{
.appVersion = "1179";
copyright = "Copyright (c) 2010, Sebastian Kosch (sebastian@aldusleaf.org),\012with Reserved Font Name \"Crimson Text\".\012This Font Software is licensed under the SIL Open Font License, Version 1.1.\012This license is available with a FAQ at: http://scripts.sil.org/OFL";
customParameters = (
{
name = vendorID;
value = PfEd;
},
{
name = panose;
value = (
2,
0,
8,
3,
0,
0,
0,
0,
0,
0
);
},
{
name = unicodeRanges;
value = (
0,
1,
2,
3,
5,
6,
7,
31,
33,
37,
38,
60
);
},
{
name = codePageRanges;
value = (
1252,
1250,
1254,
1257
);
},
{
name = glyphOrder;
value = (
.notdef,
.null,
CR,
space,
exclam,
quotedbl,
numbersign,
dollar,
percent,
ampersand,
quotesingle,
parenleft,
parenright,
asterisk,
plus,
comma,
hyphen,
period,
slash,
zero,
one,
two,
three,
four,
five,
six,
seven,
eight,
nine,
colon,
semicolon,
less,
equal,
greater,
question,
at,
A,
B,
C,
D,
E,
F,
G,
H,
I,
J,
K,
L,
M,
N,
O,
P,
Q,
R,
S,
T,
U,
V,
W,
X,
Y,
Z,
bracketleft,
backslash,
bracketright,
asciicircum,
underscore,
grave,
a,
b,
c,
d,
e,
f,
g,
h,
i,
j,
k,
l,
m,
n,
o,
p,
q,
r,
s,
t,
u,
v,
w,
x,
y,
z,
braceleft,
bar,
braceright,
asciitilde,
uni00A0,
exclamdown,
cent,
sterling,
currency,
yen,
brokenbar,
section,
dieresis,
copyright,
ordfeminine,
guillemotleft,
logicalnot,
registered,
macron,
degree,
plusminus,
uni00B2,
uni00B3,
acute,
uni00B5,
paragraph,
periodcentered,
cedilla,
uni00B9,
ordmasculine,
guillemotright,
onequarter,
onehalf,
threequarters,
questiondown,
Agrave,
Aacute,
Acircumflex,
Atilde,
Adieresis,
Aring,
AE,
Ccedilla,
Egrave,
Eacute,
Ecircumflex,
Edieresis,
Igrave,
Iacute,
Icircumflex,
Idieresis,
Eth,
Ntilde,
Ograve,
Oacute,
Ocircumflex,
Otilde,
Odieresis,
multiply,
Oslash,
Ugrave,
Uacute,
Ucircumflex,
Udieresis,
Yacute,
Thorn,
germandbls,
agrave,
aacute,
acircumflex,
atilde,
adieresis,
aring,
ae,
ccedilla,
egrave,
eacute,
ecircumflex,
edieresis,
igrave,
iacute,
icircumflex,
idieresis,
eth,
ntilde,
ograve,
oacute,
ocircumflex,
otilde,
odieresis,
divide,
oslash,
ugrave,

glyphs = (
{
glyphname = .notdef;
layers = (
{
layerId = "EE330C8E-4A1C-402A-831D-620872201BE1";
paths = (
{
closed = 1;
nodes = (
"306 0 LINE",
"306 682 LINE",
"34 682 LINE",
"34 0 LINE"
);
},
{
closed = 1;
nodes = (
"68 648 LINE",
"272 648 LINE",
"272 34 LINE",
"68 34 LINE"
);
}
);
userData = {
assembly = "PUSHB[ ]\011/* 2 values pushed */
1 0 
MDAP[1]\011/* MoveDirectAbsPt */
ALIGNRP[ ]\011/* AlignRelativePt */
PUSHB[ ]\011/* 3 values pushed */
7 4 6 
MIRP[01101]\011/* MoveIndirectRelPt */
SHP[0]\011/* ShiftPointByLastPoint */
PUSHB[ ]\011/* 2 values pushed */
6 5 
MDRP[11100]\011/* MoveDirectRelPt */
ALIGNRP[ ]\011/* AlignRelativePt */
PUSHB[ ]\011/* 3 values pushed */
3 2 6 
MIRP[01101]\011/* MoveIndirectRelPt */
SHP[0]\011/* ShiftPointByLastPoint */
SVTCA[0]\011/* SetFreedomAndProjectionVectorToAxis */
PUSHB[ ]\011/* 2 values pushed */
3 0 
MDAP[1]\011/* MoveDirectAbsPt */
ALIGNRP[ ]\011/* AlignRelativePt */
PUSHB[ ]\011/* 3 values pushed */
5 4 6 
MIRP[01101]\011/* MoveIndirectRelPt */
SHP[0]\011/* ShiftPointByLastPoint */
PUSHB[ ]\011/* 3 values pushed */
7 6 7 
MIRP[11100]\011/* MoveIndirectRelPt */
ALIGNRP[ ]\011/* AlignRelativePt */
PUSHB[ ]\011/* 3 values pushed */
1 2 6 
MIRP[01101]\011/* MoveIndirectRelPt */
SHP[0]\011/* ShiftPointByLastPoint */";
};
width = 374;
}
);
note = .notdef;
},
{
glyphname = exclam;
layers = (
{
layerId = "EE330C8E-4A1C-402A-831D-620872201BE1";
paths = (
{
closed = 1;
nodes = (
"-4 34 OFFCURVE",
"30 -11 OFFCURVE",
"84 -11 OFFCURVE",
"132 35 OFFCURVE",
"144 97 OFFCURVE",
"112 139 OFFCURVE",
"83 139 QCURVE SMOOTH",
"56 139 OFFCURVE",
"8 97 OFFCURVE",
"2 66 QCURVE SMOOTH"
);
},
{
closed = 1;
nodes = (
"159 642 OFFCURVE",
"117 605 OFFCURVE",
"111 575 QCURVE SMOOTH",
"104 540 OFFCURVE",
"82 272 OFFCURVE",
"79 212 QCURVE",
"79 190 OFFCURVE",
"85 190 QCURVE SMOOTH",
"111 190 OFFCURVE",
"122 221 QCURVE SMOOTH",
"220 519 OFFCURVE",
"230 574 QCURVE SMOOTH",
"236 605 OFFCURVE",
"208 642 OFFCURVE",
"185 642 QCURVE SMOOTH"
);
}
);
width = 230;
}
);
note = exclam;
unicode = 0021;
},
{
glyphname = quotedbl;
layers = (
{
layerId = "EE330C8E-4A1C-402A-831D-620872201BE1";
paths = (
{
closed = 1;
nodes = (
"264 698 OFFCURVE",
"219 653 OFFCURVE",
"216 636 QCURVE",
"216 623 OFFCURVE",
"220 558 OFFCURVE",
"220 487 OFFCURVE",
"216 447 QCURVE",
"215 441 OFFCURVE",
"225 434 OFFCURVE",
"231 434 QCURVE SMOOTH",
"248 434 OFFCURVE",
"252 449 QCURVE SMOOTH",
"261 479 OFFCURVE",
"311 603 OFFCURVE",
"317 633 QCURVE",
"323 677 OFFCURVE",
"312 698 OFFCURVE",
"289 698 QCURVE SMOOTH"
);
},
{
closed = 1;
nodes = (
"110 698 OFFCURVE",
"65 653 OFFCURVE",
"62 636 QCURVE",
"62 623 OFFCURVE",
"66 558 OFFCURVE",
"66 487 OFFCURVE",
"62 447 QCURVE",
"61 441 OFFCURVE",
"71 434 OFFCURVE",
"77 434 QCURVE SMOOTH",
"94 434 OFFCURVE",
"98 449 QCURVE SMOOTH",
"107 479 OFFCURVE",
"157 603 OFFCURVE",
"163 633 QCURVE",
"169 677 OFFCURVE",
"158 698 OFFCURVE",
"135 698 QCURVE SMOOTH"
);
}
);
width = 340;
}
);
note = quotedbl;
unicode = 0022;
},
{
glyphname = numbersign;
layers = (
{
layerId = "EE330C8E-4A1C-402A-831D-620872201BE1";
paths = (
{
closed = 1;
nodes = (
"408 524 LINE",
"408 525 OFFCURVE",
"409 526 QCURVE",
"409 532 OFFCURVE",
"387 532 QCURVE SMOOTH",
"347 532 OFFCURVE",
"344 524 QCURVE SMOOTH",
"293 378 LINE",
"216 378 LINE",
"268 524 LINE",
"268 525 OFFCURVE",
"269 526 QCURVE",
"269 532 OFFCURVE",
"247 532 QCURVE SMOOTH",
"207 532 OFFCURVE",
"204 524 QCURVE SMOOTH",
"153 378 LINE",
"81 378 LINE SMOOTH",
"73 378 OFFCURVE",
"56 331 OFFCURVE",
"56 317 QCURVE SMOOTH",
"56 311 OFFCURVE",
"63 311 QCURVE SMOOTH",
"134 311 LINE",
"105 237 LINE",
"33 237 LINE SMOOTH",
"25 237 OFFCURVE",
"8 190 OFFCURVE",
"8 176 QCURVE SMOOTH",
"8 170 OFFCURVE",
"15 170 QCURVE SMOOTH",
"86 170 LINE",
"34 24 LINE",
"34 23 OFFCURVE",
"33 21 QCURVE",
"33 16 OFFCURVE",
"60 16 QCURVE SMOOTH",
"95 16 OFFCURVE",
"98 24 QCURVE SMOOTH",
"149 170 LINE",
"226 170 LINE",
"174 24 LINE",
"174 23 OFFCURVE",
"173 21 QCURVE",
"173 16 OFFCURVE",
"200 16 QCURVE SMOOTH",
"235 16 OFFCURVE",
"238 24 QCURVE SMOOTH",
"289 170 LINE",
"361 170 LINE SMOOTH",
"369 170 OFFCURVE",
"386 217 OFFCURVE",
"386 231 QCURVE SMOOTH",
"386 237 OFFCURVE",
"379 237 QCURVE SMOOTH",
"308 237 LINE",
"337 311 LINE",
"409 311 LINE SMOOTH",
"417 311 OFFCURVE",
"434 359 OFFCURVE",
"434 373 QCURVE SMOOTH",
"434 378 OFFCURVE",
"427 378 QCURVE SMOOTH",
"356 378 OFFCURVE",
"356 378 QCURVE"
);
},
{
closed = 1;
nodes = (
"245 237 LINE",
"168 237 LINE",
"197 311 LINE",
"274 311 LINE"
);
}
);
width = 442;
}
);
note = numbersign;
unicode = 0023;
},
{
glyphname = dollar;
layers = (
{
layerId = "EE330C8E-4A1C-402A-831D-620872201BE1";
paths = (
{
closed = 1;
nodes = (
"240 224 OFFCURVE",
"243 220 QCURVE",
"270 189 OFFCURVE",
"270 161 QCURVE SMOOTH",
"270 123 OFFCURVE",
"213 46 OFFCURVE",
"170 46 QCURVE SMOOTH",
"166 46 LINE",
"233 231 LINE"
);
},
{
closed = 1;
nodes = (
"168 -9 LINE SMOOTH",
"214 -9 OFFCURVE",
"309 31 OFFCURVE",
"343 68 QCURVE SMOOTH",
"402 132 OFFCURVE",
"402 219 QCURVE SMOOTH",
"402 258 OFFCURVE",
"374 307 OFFCURVE",
"346 330 QCURVE",
"338 336 OFFCURVE",
"298 365 OFFCURVE",
"287 374 QCURVE",
"354 557 LINE",
"382 518 OFFCURVE",
"382 462 QCURVE SMOOTH",
"382 452 OFFCURVE",
"389 450 QCURVE",
"397 446 OFFCURVE",
"418 446 QCURVE SMOOTH",
"426 446 OFFCURVE",
"437 618 QCURVE",
"403 624 OFFCURVE",
"380 631 QCURVE",
"400 682 LINE",
"384 700 OFFCURVE",
"360 700 QCURVE SMOOTH",
"349 700 OFFCURVE",
"347 694 QCURVE SMOOTH",
"328 641 LINE",
"310 643 OFFCURVE",
"300 643 QCURVE SMOOTH",
"221 643 OFFCURVE",
"72 521 OFFCURVE",
"72 432 QCURVE SMOOTH",
"72 391 OFFCURVE",
"109 334 OFFCURVE",
"143 306 QCURVE SMOOTH",
"150 300 OFFCURVE",
"183 274 OFFCURVE",
"191 266 QCURVE",
"117 59 LINE",
"89 76 OFFCURVE",
"59 147 OFFCURVE",
"59 181 QCURVE",
"54 185 OFFCURVE",
"38 185 QCURVE SMOOTH",
"15 185 OFFCURVE",
"14 175 QCURVE SMOOTH",
"6 103 OFFCURVE",
"6 42 QCURVE SMOOTH",
"6 16 LINE",
"58 3 OFFCURVE",
"94 -3 QCURVE",
"74 -58 LINE",
"93 -74 OFFCURVE",
"110 -74 QCURVE SMOOTH",
"122 -74 OFFCURVE",
"124 -69 QCURVE SMOOTH",
"146 -9 LINE"
);
},
{
closed = 1;
nodes = (
"222 434 OFFCURVE",
"217 442 QCURVE",
"201 465 OFFCURVE",
"201 492 QCURVE SMOOTH",
"201 521 OFFCURVE",
"243 589 OFFCURVE",
"290 589 QCURVE SMOOTH",
"297 589 OFFCURVE",
"309 587 QCURVE",
"245 411 LINE"
);
}
);
width = 452;
}
);
note = dollar;
unicode = 0024;
},
{
glyphname = percent;
layers = (
{
layerId = "EE330C8E-4A1C-402A-831D-620872201BE1";
paths = (
{
closed = 1;
nodes = (
"286 605 OFFCURVE",
"259 466 QCURVE SMOOTH",
"252 430 OFFCURVE",
"217 375 OFFCURVE",
"191 375 QCURVE SMOOTH",
"128 375 OFFCURVE",
"153 510 QCURVE SMOOTH",
"171 605 OFFCURVE",
"220 605 QCURVE SMOOTH"
);
},
{
closed = 1;
nodes = (
"48 426 OFFCURVE",
"116 337 OFFCURVE",
"238 337 OFFCURVE",
"341 426 OFFCURVE",
"365 552 OFFCURVE",
"297 642 OFFCURVE",
"175 642 OFFCURVE",
"72 552 OFFCURVE"
);
},
{
closed = 1;
nodes = (
"497 268 OFFCURVE",
"470 130 QCURVE SMOOTH",
"463 93 OFFCURVE",
"428 38 OFFCURVE",
"402 38 QCURVE SMOOTH",
"339 38 OFFCURVE",
"364 174 QCURVE SMOOTH",
"382 268 OFFCURVE",
"431 268 QCURVE SMOOTH"
);
},
{
closed = 1;
nodes = (
"259 90 OFFCURVE",
"327 1 OFFCURVE",
"449 1 OFFCURVE",
"552 90 OFFCURVE",
"576 216 OFFCURVE",
"508 306 OFFCURVE",
"386 306 OFFCURVE",
"283 216 OFFCURVE"
);
},
{
closed = 1;
nodes = (
"612 646 OFFCURVE",
"583 646 QCURVE SMOOTH",
"577 646 OFFCURVE",
"563 632 QCURVE",
"-6 10 LINE",
"-6 7 OFFCURVE",
"1 1 OFFCURVE",
"17 -4 OFFCURVE",
"28 -4 QCURVE SMOOTH",
"50 -4 OFFCURVE",
"61 7 QCURVE",
"629 629 LINE"
);
}
);
width = 627;
}
);
note = percent;
unicode = 0025;
},
{
glyphname = ampersand;
layers = (
{
layerId = "EE330C8E-4A1C-402A-831D-620872201BE1";
paths = (
{
closed = 1;
nodes = (
"223 635 OFFCURVE",
"100 553 OFFCURVE",
"100 479 QCURVE SMOOTH",
"100 463 OFFCURVE",
"106 437 OFFCURVE",
"120 414 OFFCURVE",
"130 402 OFFCURVE",
"148 383 OFFCURVE",
"150 381 QCURVE",
"101 362 OFFCURVE",
"17 258 OFFCURVE",
"17 196 QCURVE SMOOTH",
"17 103 OFFCURVE",
"170 -14 OFFCURVE",
"272 -14 QCURVE SMOOTH",
"387 -14 OFFCURVE",
"570 125 OFFCURVE",
"570 224 QCURVE SMOOTH",
"570 293 OFFCURVE",
"513 344 QCURVE",
"533 342 OFFCURVE",
"539 342 QCURVE SMOOTH",
"589 342 OFFCURVE",
"646 399 OFFCURVE",
"646 444 QCURVE SMOOTH",
"646 546 OFFCURVE",
"501 546 QCURVE",
"479 530 OFFCURVE",
"479 499 QCURVE SMOOTH",
"479 480 OFFCURVE",
"503 452 OFFCURVE",
"521 452 QCURVE SMOOTH",
"532 452 OFFCURVE",
"560 474 OFFCURVE",
"570 474 QCURVE SMOOTH",
"584 474 OFFCURVE",
"603 457 OFFCURVE",
"603 444 QCURVE SMOOTH",
"603 416 OFFCURVE",
"554 384 OFFCURVE",
"521 384 QCURVE SMOOTH",
"506 384 OFFCURVE",
"460 386 OFFCURVE",
"445 386 QCURVE SMOOTH",
"387 386 OFFCURVE",
"299 311 OFFCURVE",
"299 256 QCURVE SMOOTH",
"299 218 OFFCURVE",
"355 157 OFFCURVE",
"378 157 QCURVE",
"421 168 OFFCURVE",
"421 217 QCURVE SMOOTH",
"421 231 OFFCURVE",
"392 253 OFFCURVE",
"377 257 QCURVE SMOOTH",
"349 264 OFFCURVE",
"349 280 QCURVE SMOOTH",
"349 302 OFFCURVE",
"386 329 OFFCURVE",
"411 329 QCURVE SMOOTH",
"440 329 OFFCURVE",
"468 274 OFFCURVE",
"468 237 QCURVE SMOOTH",
"468 157 OFFCURVE",
"363 40 OFFCURVE",
"284 40 QCURVE SMOOTH",
"213 40 OFFCURVE",
"137 135 OFFCURVE",
"137 204 QCURVE SMOOTH",
"137 303 OFFCURVE",
"182 341 QCURVE",
"206 320 OFFCURVE",
"244 320 QCURVE SMOOTH",
"269 320 OFFCURVE",
"309 341 OFFCURVE",
"309 360 QCURVE SMOOTH",
"309 381 OFFCURVE",
"266 407 OFFCURVE",
"239 407 QCURVE SMOOTH",
"224 407 OFFCURVE",
"199 400 QCURVE",
"170 425 OFFCURVE",
"170 466 QCURVE SMOOTH",
"170 513 OFFCURVE",
"228 584 OFFCURVE",
"272 584 QCURVE SMOOTH",
"302 584 OFFCURVE",
"343 545 OFFCURVE",
"343 514 QCURVE SMOOTH",
"343 497 OFFCURVE",
"335 470 OFFCURVE",
"335 469 QCURVE SMOOTH",
"335 460 OFFCURVE",
"349 460 QCURVE SMOOTH",
"366 460 OFFCURVE",
"409 514 OFFCURVE",
"409 543 QCURVE SMOOTH",
"409 585 OFFCURVE",
"340 635 OFFCURVE",
"294 635 QCURVE SMOOTH"
);
}
);
width = 649;
}
);
note = ampersand;
unicode = 0026;
},
{
glyphname = quotesingle;
layers = (
{
layerId = "EE330C8E-4A1C-402A-831D-620872201BE1";
paths = (
{
closed = 1;
nodes = (
"110 698 OFFCURVE",
"65 653 OFFCURVE",
"62 636 QCURVE",
"62 623 OFFCURVE",
"66 558 OFFCURVE",
"66 487 OFFCURVE",
"62 447 QCURVE",
"61 441 OFFCURVE",
"71 434 OFFCURVE",
"77 434 QCURVE SMOOTH",
"94 434 OFFCURVE",
"98 449 QCURVE SMOOTH",
"107 479 OFFCURVE",
"157 603 OFFCURVE",
"163 633 QCURVE",
"169 677 OFFCURVE",
"158 698 OFFCURVE",
"135 698 QCURVE SMOOTH"
);
}
);
width = 186;
}
);
note = quotesingle;
unicode = 0027;
},
{
glyphname = parenleft;
layers = (
{
layerId = "EE330C8E-4A1C-402A-831D-620872201BE1";
paths = (
{
closed = 1;
nodes = (
"29 141 OFFCURVE",
"55 30 OFFCURVE",
"94 -48 OFFCURVE",
"138 -108 OFFCURVE",
"174 -137 OFFCURVE",
"184 -137 QCURVE SMOOTH",
"189 -137 OFFCURVE",
"199 -118 OFFCURVE",
"200 -111 QCURVE",
"200 -106 OFFCURVE",
"199 -106 QCURVE",
"179 -93 OFFCURVE",
"139 45 OFFCURVE",
"139 141 QCURVE SMOOTH",
"139 329 OFFCURVE",
"292 674 OFFCURVE",
"360 718 QCURVE",
"362 720 OFFCURVE",
"362 722 OFFCURVE",
"363 727 OFFCURVE",
"363 729 QCURVE SMOOTH",
"363 748 OFFCURVE",
"356 748 QCURVE SMOOTH",
"341 748 OFFCURVE",
"267 696 OFFCURVE",
"174 595 OFFCURVE",
"88 466 OFFCURVE",
"29 289 OFFCURVE",
"29 200 QCURVE SMOOTH"
);
}
);
width = 353;
}
);
note = parenleft;
unicode = 0028;
},
{
glyphname = parenright;
layers = (
{
layerId = "EE330C8E-4A1C-402A-831D-620872201BE1";
paths = (
{
closed = 1;
nodes = (
"319 479 OFFCURVE",
"282 612 OFFCURVE",
"231 697 OFFCURVE",
"181 748 OFFCURVE",
"165 748 QCURVE SMOOTH",
"160 748 OFFCURVE",
"149 728 OFFCURVE",
"148 721 QCURVE",
"148 719 OFFCURVE",
"149 718 QCURVE",
"174 697 OFFCURVE",
"209 561 OFFCURVE",
"209 471 QCURVE SMOOTH",
"209 364 OFFCURVE",
"154 148 OFFCURVE",
"79 1 OFFCURVE",
"9 -96 OFFCURVE",
"-11 -106 QCURVE",
"-14 -108 OFFCURVE",
"-14 -112 QCURVE SMOOTH",
"-14 -118 LINE SMOOTH",
"-14 -137 OFFCURVE",
"-7 -137 QCURVE SMOOTH",
"10 -137 OFFCURVE",
"84 -84 OFFCURVE",
"177 19 OFFCURVE",
"262 148 OFFCURVE",
"319 322 OFFCURVE",
"319 408 QCURVE SMOOTH"
);
}
);
width = 344;
}
);
note = parenright;
unicode = 0029;
},
{
glyphname = asterisk;
layers = (
{
layerId = "EE330C8E-4A1C-402A-831D-620872201BE1";
paths = (
{
closed = 1;
nodes = (
"217 516 OFFCURVE",
"212 528 OFFCURVE",
"211 549 OFFCURVE",
"211 566 OFFCURVE",
"212 575 QCURVE",
"212 584 LINE SMOOTH",
"212 607 OFFCURVE",
"211 622 OFFCURVE",
"206 654 OFFCURVE",
"191 665 OFFCURVE",
"179 665 QCURVE SMOOTH",
"161 665 OFFCURVE",
"135 635 OFFCURVE",
"135 616 QCURVE SMOOTH",
"135 592 OFFCURVE",
"188 520 OFFCURVE",
"188 510 QCURVE SMOOTH",
"188 506 OFFCURVE",
"186 502 OFFCURVE",
"177 500 OFFCURVE",
"166 500 QCURVE SMOOTH",
"157 500 OFFCURVE",
"102 508 OFFCURVE",
"86 508 QCURVE SMOOTH",
"61 508 OFFCURVE",
"31 487 OFFCURVE",
"24 467 OFFCURVE",
"24 458 QCURVE SMOOTH",
"24 446 OFFCURVE",
"43 428 OFFCURVE",
"56 428 QCURVE SMOOTH",
"77 428 OFFCURVE",
"168 472 OFFCURVE",
"184 472 OFFCURVE",
"184 464 QCURVE SMOOTH",
"184 453 OFFCURVE",
"116 356 OFFCURVE",
"116 334 QCURVE SMOOTH",
"116 321 OFFCURVE",
"136 301 OFFCURVE",
"148 301 QCURVE SMOOTH",
"181 301 OFFCURVE",
"192 339 QCURVE SMOOTH",
"199 362 OFFCURVE",
"203 427 OFFCURVE",
"208 462 OFFCURVE",
"228 462 OFFCURVE",
"258 420 OFFCURVE",
"295 378 OFFCURVE",
"313 378 QCURVE SMOOTH",
"329 378 OFFCURVE",
"358 407 OFFCURVE",
"358 424 QCURVE SMOOTH",
"358 445 OFFCURVE",
"320 468 OFFCURVE",
"275 474 OFFCURVE",
"237 483 OFFCURVE",
"237 492 QCURVE SMOOTH",
"237 504 OFFCURVE",
"302 534 OFFCURVE",
"368 575 OFFCURVE",
"368 602 QCURVE SMOOTH",
"368 635 OFFCURVE",
"341 635 QCURVE SMOOTH",
"316 635 OFFCURVE",
"267 576 OFFCURVE",
"231 516 OFFCURVE",
"221 516 QCURVE SMOOTH"
);
}
);
width = 376;
}
);
note = asterisk;
unicode = 002A;
},
{
glyphname = plus;
layers = (
{
layerId = "EE330C8E-4A1C-402A-831D-620872201BE1";
paths = (
{
closed = 1;
nodes = (
"229 434 OFFCURVE",
"209 319 OFFCURVE",
"203 290 QCURVE",
"203 286 OFFCURVE",
"199 286 QCURVE SMOOTH",
"34 286 OFFCURVE",
"34 286 QCURVE",
"8 260 OFFCURVE",
"8 232 QCURVE SMOOTH",
"8 214 OFFCURVE",
"12 214 QCURVE SMOOTH",
"183 214 LINE SMOOTH",
"187 214 OFFCURVE",
"187 209 QCURVE",
"151 21 LINE",
"150 18 OFFCURVE",
"158 12 OFFCURVE",
"166 12 QCURVE SMOOTH",
"183 12 OFFCURVE",
"231 23 OFFCURVE",
"232 30 QCURVE",
"267 210 OFFCURVE",
"267 210 QCURVE",
"267 214 OFFCURVE",
"271 214 QCURVE SMOOTH",
"437 214 OFFCURVE",
"437 214 QCURVE",
"463 240 OFFCURVE",
"463 268 QCURVE SMOOTH",
"463 286 OFFCURVE",
"459 286 QCURVE SMOOTH",
"286 286 LINE SMOOTH",
"281 286 OFFCURVE",
"283 291 QCURVE",
"318 479 LINE",
"319 483 OFFCURVE",
"314 488 OFFCURVE",
"308 488 QCURVE SMOOTH",
"295 488 OFFCURVE",
"238 479 OFFCURVE",
"236 470 QCURVE SMOOTH"
);
}
);
width = 485;
}
);
note = plus;
unicode = 002B;
},
{
glyphname = comma;
layers = (
{
layerId = "EE330C8E-4A1C-402A-831D-620872201BE1";
paths = (
{
closed = 1;
nodes = (
"2 -156 OFFCURVE",
"18 -168 QCURVE",
"76 -131 OFFCURVE",
"136 -72 OFFCURVE",
"166 -20 QCURVE SMOOTH",
"195 30 OFFCURVE",
"195 95 QCURVE SMOOTH",
"195 119 OFFCURVE",
"194 126 QCURVE",
"185 134 OFFCURVE",
"159 134 QCURVE SMOOTH",
"121 134 OFFCURVE",
"68 93 OFFCURVE",
"68 61 QCURVE SMOOTH",
"68 47 OFFCURVE",
"84 1 OFFCURVE",
"84 -9 QCURVE SMOOTH",
"84 -32 OFFCURVE",
"67 -74 OFFCURVE",
"43 -101 OFFCURVE",
"19 -121 OFFCURVE",
"2 -132 OFFCURVE",
"2 -134 QCURVE SMOOTH"
);
}
);
width = 243;
}
);
note = comma;
unicode = 002C;
},
{
glyphname = hyphen;
layers = (
{
layerId = "EE330C8E-4A1C-402A-831D-620872201BE1";
paths = (
{
closed = 1;
nodes = (
"46 266 OFFCURVE",
"29 219 OFFCURVE",
"29 208 QCURVE SMOOTH",
"29 193 OFFCURVE",
"34 193 QCURVE",
"260 204 LINE",
"267 205 OFFCURVE",
"286 256 OFFCURVE",
"286 267 QCURVE SMOOTH",
"286 279 OFFCURVE",
"280 279 QCURVE",
"53 267 LINE"
);
}
);
width = 330;
}
);
note = hyphen;
unicode = 002D;
},
{
glyphname = period;
layers = (
{
layerId = "EE330C8E-4A1C-402A-831D-620872201BE1";
paths = (
{
closed = 1;
nodes = (
"162 96 OFFCURVE",
"130 139 OFFCURVE",
"74 139 OFFCURVE",
"25 96 OFFCURVE",
"13 36 OFFCURVE",
"46 -11 OFFCURVE",
"75 -11 QCURVE SMOOTH",
"103 -11 OFFCURVE",
"150 35 OFFCURVE",
"156 66 QCURVE SMOOTH"
);
}
);
width = 203;
}
);
note = period;
unicode = 002E;
},
{
glyphname = slash;
layers = (
{
layerId = "EE330C8E-4A1C-402A-831D-620872201BE1";
paths = (
{
closed = 1;
nodes = (
"487 761 OFFCURVE",
"463 761 QCURVE SMOOTH",
"425 761 OFFCURVE",
"413 739 QCURVE SMOOTH",
"-11 -28 LINE",
"-10 -30 LINE",
"-10 -32 OFFCURVE",
"-2 -35 OFFCURVE",
"4 -35 QCURVE SMOOTH",
"26 -35 OFFCURVE",
"69 -18 OFFCURVE",
"72 -12 QCURVE",
"496 755 LINE"
);
}
);
width = 486;
}
);
note = slash;
unicode = 002F;
},
{
glyphname = zero;
layers = (
{
layerId = "EE330C8E-4A1C-402A-831D-620872201BE1";
paths = (
{
closed = 1;
nodes = (
"345 575 OFFCURVE",
"361 435 OFFCURVE",
"338 317 QCURVE SMOOTH",
"285 49 OFFCURVE",
"205 49 QCURVE SMOOTH",
"169 49 OFFCURVE",
"146 194 OFFCURVE",
"168 312 QCURVE SMOOTH",
"192 431 OFFCURVE",
"266 575 OFFCURVE",
"307 575 QCURVE SMOOTH"
);
},
{
closed = 1;
nodes = (
"13 182 OFFCURVE",
"108 -3 OFFCURVE",
"278 -3 OFFCURVE",
"442 182 OFFCURVE",
"492 440 OFFCURVE",
"401 625 OFFCURVE",
"231 625 OFFCURVE",
"63 440 OFFCURVE"
);
}
);
width = 502;
}
);
note = zero;
unicode = 0030;
},
{
glyphname = one;
layers = (
{
layerId = "EE330C8E-4A1C-402A-831D-620872201BE1";
paths = (
{
closed = 1;
nodes = (
"283 643 OFFCURVE",
"59 505 QCURVE",
"55 501 OFFCURVE",
"55 493 QCURVE",
"52 476 OFFCURVE",
"64 469 QCURVE",
"122 502 OFFCURVE",
"148 502 OFFCURVE",
"148 481 QCURVE SMOOTH",
"148 468 OFFCURVE",
"144 452 QCURVE",
"78 113 LINE SMOOTH",
"70 73 OFFCURVE",
"62 56 QCURVE SMOOTH",
"58 47 OFFCURVE",
"11 30 OFFCURVE",
"0 30 QCURVE SMOOTH",
"-8 30 OFFCURVE",
"-8 3 QCURVE SMOOTH",
"-8 -3 OFFCURVE",
"-7 -4 QCURVE",
"3 -3 OFFCURVE",
"96 4 OFFCURVE",
"118 4 QCURVE SMOOTH",
"139 4 OFFCURVE",
"228 -3 OFFCURVE",
"238 -4 QCURVE",
"245 10 OFFCURVE",
"245 27 QCURVE SMOOTH",
"245 30 OFFCURVE",
"244 30 QCURVE SMOOTH",
"238 30 OFFCURVE",
"218 35 OFFCURVE",
"195 53 OFFCURVE",
"195 66 QCURVE SMOOTH",
"195 87 OFFCURVE",
"202 126 QCURVE SMOOTH",
"280 530 LINE SMOOTH",
"293 595 OFFCURVE",
"307 624 QCURVE",
"307 643 OFFCURVE",
"298 643 QCURVE SMOOTH"
);
}
);
width = 309;
}
);
note = one;
unicode = 0031;
},
{
glyphname = two;
layers = (
{
layerId = "EE330C8E-4A1C-402A-831D-620872201BE1";
paths = (
{
closed = 1;
nodes = (
"274 559 OFFCURVE",
"302 517 OFFCURVE",
"302 483 QCURVE SMOOTH",
"302 468 OFFCURVE",
"299 451 QCURVE SMOOTH",
"285 378 OFFCURVE",
"103 139 OFFCURVE",
"-7 33 QCURVE",
"-8 27 OFFCURVE",
"-8 19 QCURVE SMOOTH",
"-8 8 OFFCURVE",
"-3 0 QCURVE",
"4 0 OFFCURVE",
"203 1 QCURVE SMOOTH",
"346 0 LINE",
"357 28 OFFCURVE",
"413 156 OFFCURVE",
"420 174 QCURVE",
"415 182 OFFCURVE",
"406 182 QCURVE SMOOTH",
"382 182 OFFCURVE",
"377 174 QCURVE",
"376 172 OFFCURVE",
"363 145 OFFCURVE",
"353 131 OFFCURVE",
"334 111 OFFCURVE",
"308 102 OFFCURVE",
"292 102 QCURVE SMOOTH",
"133 102 LINE SMOOTH",
"130 102 OFFCURVE",
"130 106 QCURVE SMOOTH",
"130 111 OFFCURVE",
"132 113 QCURVE",
"138 118 OFFCURVE",
"202 171 OFFCURVE",
"222 188 OFFCURVE",
"282 240 OFFCURVE",
"306 265 OFFCURVE",
"355 316 OFFCURVE",
"377 349 OFFCURVE",
"411 399 OFFCURVE",
"425 439 OFFCURVE",
"437 488 OFFCURVE",
"437 511 QCURVE SMOOTH",
"437 572 OFFCURVE",
"364 642 OFFCURVE",
"305 642 QCURVE SMOOTH",
"257 642 OFFCURVE",
"136 553 OFFCURVE",
"108 516 QCURVE",
"104 499 LINE",
"104 490 OFFCURVE",
"112 474 OFFCURVE",
"118 474 QCURVE SMOOTH",
"119 474 OFFCURVE",
"156 516 OFFCURVE",
"215 559 OFFCURVE",
"245 559 QCURVE SMOOTH"
);
}
);
width = 452;
}
);
note = two;
unicode = 0032;
},
{
glyphname = three;
layers = (
{
layerId = "EE330C8E-4A1C-402A-831D-620872201BE1";
paths = (
{
closed = 1;
nodes = (
"236 642 OFFCURVE",
"143 601 OFFCURVE",
"107 560 QCURVE",
"104 557 OFFCURVE",
"104 544 QCURVE SMOOTH",
"104 524 OFFCURVE",
"112 524 QCURVE SMOOTH",
"114 524 OFFCURVE",
"150 548 OFFCURVE",
"208 572 OFFCURVE",
"238 572 QCURVE SMOOTH",
"258 572 OFFCURVE",
"288 532 OFFCURVE",
"281 501 QCURVE SMOOTH",
"255 381 OFFCURVE",
"125 359 QCURVE",
"123 355 OFFCURVE",
"119 340 QCURVE SMOOTH",
"115 323 OFFCURVE",
"120 314 QCURVE",
"151 319 OFFCURVE",
"187 319 QCURVE SMOOTH",
"233 319 OFFCURVE",
"272 246 OFFCURVE",
"260 188 QCURVE SMOOTH",
"247 120 OFFCURVE",
"186 48 OFFCURVE",
"142 48 QCURVE SMOOTH",
"118 48 OFFCURVE",
"61 104 OFFCURVE",
"42 104 QCURVE SMOOTH",
"24 104 OFFCURVE",
"-6 78 OFFCURVE",
"-6 56 QCURVE SMOOTH",
"-6 36 OFFCURVE",
"-3 28 QCURVE",
"29 -4 OFFCURVE",
"98 -4 QCURVE SMOOTH",
"160 -4 OFFCURVE",
"281 45 OFFCURVE",
"377 147 OFFCURVE",
"390 214 QCURVE SMOOTH",
"403 284 OFFCURVE",
"323 378 OFFCURVE",
"287 378 QCURVE",
"322 407 OFFCURVE",
"354 437 OFFCURVE",
"388 493 OFFCURVE",
"395 527 QCURVE SMOOTH",
"406 583 OFFCURVE",
"348 642 OFFCURVE",
"310 642 QCURVE SMOOTH"
);
}
);
width = 430;
}
);
note = three;
unicode = 0033;
},
{
glyphname = four;
layers = (
{
layerId = "EE330C8E-4A1C-402A-831D-620872201BE1";
paths = (
{
closed = 1;
nodes = (
"426 646 OFFCURVE",
"410 630 QCURVE SMOOTH",
"12 222 LINE",
"9 207 OFFCURVE",
"9 198 QCURVE SMOOTH",
"9 183 OFFCURVE",
"16 174 QCURVE",
"239 173 LINE SMOOTH",
"247 173 OFFCURVE",
"247 168 QCURVE",
"216 8 LINE",
"213 -5 OFFCURVE",
"267 -5 QCURVE SMOOTH",
"306 -5 OFFCURVE",
"330 4 QCURVE",
"362 166 LINE",
"364 174 OFFCURVE",
"369 174 QCURVE SMOOTH",
"407 174 LINE",
"411 184 LINE",
"415 193 OFFCURVE",
"423 221 OFFCURVE",
"423 229 QCURVE SMOOTH",
"423 244 OFFCURVE",
"415 244 QCURVE SMOOTH",
"385 244 LINE SMOOTH",
"376 244 OFFCURVE",
"378 252 QCURVE",
"453 634 LINE SMOOTH",
"454 639 OFFCURVE",
"444 646 OFFCURVE",
"439 646 QCURVE SMOOTH"
);
},
{
closed = 1;
nodes = (
"264 253 LINE",
"262 247 OFFCURVE",
"253 244 QCURVE",
"109 244 LINE SMOOTH",
"104 244 OFFCURVE",
"104 251 QCURVE SMOOTH",
"104 254 OFFCURVE",
"106 256 QCURVE SMOOTH",
"294 450 LINE SMOOTH",
"296 452 OFFCURVE",
"298 452 QCURVE SMOOTH",
"302 452 OFFCURVE",
"300 445 QCURVE"
);
}
);
width = 464;
}
);
note = four;
unicode = 0034;
},
{
glyphname = five;
layers = (
{
layerId = "EE330C8E-4A1C-402A-831D-620872201BE1";
paths = (
{
closed = 1;
nodes = (
"418 558 OFFCURVE",
"427 609 QCURVE SMOOTH",
"431 633 OFFCURVE",
"426 643 QCURVE",
"404 638 OFFCURVE",
"189 638 QCURVE SMOOTH",
"184 638 OFFCURVE",
"129 485 OFFCURVE",
"102 406 QCURVE SMOOTH",
"76 328 LINE",
"82 314 OFFCURVE",
"90 314 QCURVE SMOOTH",
"92 314 OFFCURVE",
"116 321 OFFCURVE",
"160 328 OFFCURVE",
"186 328 QCURVE SMOOTH",
"228 328 OFFCURVE",
"275 248 OFFCURVE",
"262 183 QCURVE SMOOTH",
"252 132 OFFCURVE",
"191 48 OFFCURVE",
"143 48 QCURVE SMOOTH",
"119 48 OFFCURVE",
"62 104 OFFCURVE",
"43 104 QCURVE SMOOTH",
"25 104 OFFCURVE",
"-5 78 OFFCURVE",
"-5 56 QCURVE SMOOTH",
"-5 36 OFFCURVE",
"-2 28 QCURVE",
"30 -4 OFFCURVE",
"99 -4 QCURVE SMOOTH",
"206 -4 OFFCURVE",
"378 132 OFFCURVE",
"398 235 QCURVE SMOOTH",
"412 311 OFFCURVE",
"308 422 OFFCURVE",
"236 422 QCURVE SMOOTH",
"199 422 OFFCURVE",
"159 412 QCURVE",
"198 523 LINE SMOOTH",
"201 532 OFFCURVE",
"240 536 OFFCURVE",
"317 535 QCURVE SMOOTH",
"368 535 OFFCURVE",
"402 535 QCURVE"
);
}
);
width = 445;
}
);
note = five;
unicode = 0035;
},
{
glyphname = six;
layers = (
{
layerId = "EE330C8E-4A1C-402A-831D-620872201BE1";
paths = (
{
closed = 1;
nodes = (
"231 323 OFFCURVE",
"232 318 QCURVE",
"253 312 OFFCURVE",
"265 300 QCURVE SMOOTH",
"283 282 OFFCURVE",
"283 224 QCURVE SMOOTH",
"283 159 OFFCURVE",
"231 46 OFFCURVE",
"193 46 QCURVE SMOOTH",
"144 46 OFFCURVE",
"144 120 QCURVE SMOOTH",
"144 235 OFFCURVE",
"186 334 QCURVE SMOOTH",
"268 527 OFFCURVE",
"465 611 QCURVE",
"466 620 OFFCURVE",
"460 643 OFFCURVE",
"455 645 QCURVE",
"365 609 OFFCURVE",
"215 510 OFFCURVE",
"116 409 OFFCURVE",
"48 300 OFFCURVE",
"18 204 OFFCURVE",
"18 161 QCURVE SMOOTH",
"18 83 OFFCURVE",
"109 -6 OFFCURVE",
"181 -6 QCURVE SMOOTH",
"264 -6 OFFCURVE",
"409 132 OFFCURVE",
"409 218 QCURVE SMOOTH",
"409 279 OFFCURVE",
"337 367 OFFCURVE",
"287 367 QCURVE SMOOTH",
"266 367 OFFCURVE",
"231 352 OFFCURVE",
"231 344 QCURVE SMOOTH"
);
}
);
width = 467;
}
);
note = six;
unicode = 0036;
},
{
glyphname = seven;
layers = (
{
layerId = "EE330C8E-4A1C-402A-831D-620872201BE1";
paths = (
{
closed = 1;
nodes = (
"41 -11 OFFCURVE",
"44 -10 QCURVE",
"440 542 LINE SMOOTH",
"479 600 OFFCURVE",
"479 613 QCURVE SMOOTH",
"479 618 OFFCURVE",
"474 618 QCURVE SMOOTH",
"473 618 OFFCURVE",
"425 615 OFFCURVE",
"411 615 QCURVE SMOOTH",
"110 615 LINE SMOOTH",
"94 615 OFFCURVE",
"90 603 QCURVE",
"86 593 OFFCURVE",
"55 526 OFFCURVE",
"27 460 OFFCURVE",
"20 440 QCURVE",
"26 433 OFFCURVE",
"43 433 QCURVE SMOOTH",
"45 433 OFFCURVE",
"53 434 OFFCURVE",
"54 434 QCURVE",
"94 513 OFFCURVE",
"141 513 QCURVE SMOOTH",
"361 513 LINE",
"14 28 LINE",
"10 24 OFFCURVE",
"10 14 QCURVE SMOOTH",
"10 5 OFFCURVE",
"26 -11 OFFCURVE",
"37 -11 QCURVE SMOOTH"
);
}
);
width = 471;
}
);
note = seven;
unicode = 0037;
},
{
glyphname = eight;
layers = (
{
layerId = "EE330C8E-4A1C-402A-831D-620872201BE1";
paths = (
{
closed = 1;
nodes = (
"133 46 OFFCURVE",
"133 122 QCURVE SMOOTH",
"133 164 OFFCURVE",
"168 263 OFFCURVE",
"183 274 QCURVE",
"189 278 OFFCURVE",
"191 278 QCURVE SMOOTH",
"194 278 OFFCURVE",
"202 270 QCURVE SMOOTH",
"203 269 OFFCURVE",
"222 251 OFFCURVE",
"227 245 OFFCURVE",
"244 227 OFFCURVE",
"250 216 OFFCURVE",
"262 198 OFFCURVE",
"267 183 OFFCURVE",
"271 164 OFFCURVE",
"271 154 QCURVE SMOOTH",
"271 136 OFFCURVE",
"258 91 OFFCURVE",
"216 46 OFFCURVE",
"185 46 QCURVE SMOOTH"
);
},
{
closed = 1;
nodes = (
"330 580 OFFCURVE",
"330 524 QCURVE SMOOTH",
"330 456 OFFCURVE",
"277 386 QCURVE",
"274 383 OFFCURVE",
"270 383 QCURVE SMOOTH",
"265 383 OFFCURVE",
"260 388 QCURVE SMOOTH",
"259 389 OFFCURVE",
"242 405 OFFCURVE",
"240 409 OFFCURVE",
"226 424 OFFCURVE",
"223 432 OFFCURVE",
"216 447 OFFCURVE",
"214 461 OFFCURVE",
"214 470 QCURVE SMOOTH",
"214 486 OFFCURVE",
"223 531 OFFCURVE",
"258 580 OFFCURVE",
"286 580 QCURVE SMOOTH"
);
},
{
closed = 1;
nodes = (
"221 633 OFFCURVE",
"89 534 OFFCURVE",
"89 448 QCURVE SMOOTH",
"89 429 OFFCURVE",
"96 397 OFFCURVE",
"115 366 OFFCURVE",
"123 354 OFFCURVE",
"152 324 OFFCURVE",
"152 323 QCURVE",
"157 318 OFFCURVE",
"151 315 QCURVE SMOOTH",
"8 242 OFFCURVE",
"8 121 QCURVE SMOOTH",
"8 56 OFFCURVE",
"99 -6 OFFCURVE",
"168 -6 QCURVE SMOOTH",
"262 -6 OFFCURVE",
"403 119 OFFCURVE",
"403 191 QCURVE SMOOTH",
"403 206 OFFCURVE",
"396 235 OFFCURVE",
"381 261 OFFCURVE",
"368 282 OFFCURVE",
"347 305 OFFCURVE",
"336 316 OFFCURVE",
"326 325 QCURVE SMOOTH",
"316 334 LINE",
"315 335 OFFCURVE",
"315 340 OFFCURVE",
"317 341 QCURVE",
"450 418 OFFCURVE",
"450 514 QCURVE SMOOTH",
"450 570 OFFCURVE",
"358 633 OFFCURVE",
"294 633 QCURVE SMOOTH"
);
}
);
width = 458;
}
);
note = eight;
unicode = 0038;
},
{
glyphname = nine;
layers = (
{
layerId = "EE330C8E-4A1C-402A-831D-620872201BE1";
paths = (
{
closed = 1;
nodes = (
"233 316 OFFCURVE",
"232 321 QCURVE",
"211 327 OFFCURVE",
"199 339 QCURVE SMOOTH",
"181 357 OFFCURVE",
"181 415 QCURVE SMOOTH",
"181 480 OFFCURVE",
"233 593 OFFCURVE",
"271 593 QCURVE SMOOTH",
"320 593 OFFCURVE",
"320 519 QCURVE SMOOTH",
"320 404 OFFCURVE",
"278 305 QCURVE SMOOTH",
"196 112 OFFCURVE",
"-1 28 QCURVE",
"-2 19 OFFCURVE",
"4 -4 OFFCURVE",
"9 -6 QCURVE",
"99 30 OFFCURVE",
"249 129 OFFCURVE",
"348 230 OFFCURVE",
"416 339 OFFCURVE",
"446 435 OFFCURVE",
"446 478 QCURVE SMOOTH",
"446 556 OFFCURVE",
"355 645 OFFCURVE",
"283 645 QCURVE SMOOTH",
"200 645 OFFCURVE",
"55 507 OFFCURVE",
"55 421 QCURVE SMOOTH",
"55 360 OFFCURVE",
"127 272 OFFCURVE",
"177 272 QCURVE SMOOTH",
"199 272 OFFCURVE",
"233 286 OFFCURVE",
"233 294 QCURVE SMOOTH"
);
}
);
width = 451;
}
);
note = nine;
unicode = 0039;
},
{
glyphname = colon;
layers = (
{
layerId = "EE330C8E-4A1C-402A-831D-620872201BE1";
paths = (
{
closed = 1;
nodes = (
"70 335 OFFCURVE",
"102 298 OFFCURVE",
"127 298 QCURVE SMOOTH",
"158 298 OFFCURVE",
"210 358 OFFCURVE",
"210 392 QCURVE SMOOTH",
"210 417 OFFCURVE",
"180 449 OFFCURVE",
"156 449 QCURVE SMOOTH",
"124 449 OFFCURVE",
"70 396 OFFCURVE",
"70 361 QCURVE SMOOTH"
);
},
{
closed = 1;
nodes = (
"10 26 OFFCURVE",
"42 -11 OFFCURVE",
"67 -11 QCURVE SMOOTH",
"98 -11 OFFCURVE",
"149 49 OFFCURVE",
"149 83 QCURVE SMOOTH",
"149 108 OFFCURVE",
"120 140 OFFCURVE",
"96 140 QCURVE SMOOTH",
"64 140 OFFCURVE",
"10 87 OFFCURVE",
"10 52 QCURVE SMOOTH"
);
}
);
width = 226;
}
);
note = colon;
unicode = 003A;
},
{
glyphname = semicolon;
layers = (
{
layerId = "EE330C8E-4A1C-402A-831D-620872201BE1";
paths = (
{
closed = 1;
nodes = (
"105 335 OFFCURVE",
"137 298 OFFCURVE",
"162 298 QCURVE SMOOTH",
"193 298 OFFCURVE",
"245 358 OFFCURVE",
"245 392 QCURVE SMOOTH",
"245 417 OFFCURVE",
"215 449 OFFCURVE",
"191 449 QCURVE SMOOTH",
"159 449 OFFCURVE",
"105 396 OFFCURVE",
"105 361 QCURVE SMOOTH"
);
},
{
closed = 1;
nodes = (
"65 -52 OFFCURVE",
"25 -106 OFFCURVE",
"-9 -133 OFFCURVE",
"-9 -134 QCURVE",
"-11 -141 OFFCURVE",
"0 -168 OFFCURVE",
"5 -168 QCURVE SMOOTH",
"7 -168 LINE",
"65 -131 OFFCURVE",
"129 -67 OFFCURVE",
"155 -20 QCURVE",
"179 36 OFFCURVE",
"182 52 QCURVE SMOOTH",
"188 83 OFFCURVE",
"183 126 QCURVE",
"174 134 OFFCURVE",
"147 134 QCURVE SMOOTH",
"109 134 OFFCURVE",
"63 82 OFFCURVE",
"59 62 QCURVE SMOOTH",
"54 36 OFFCURVE",
"75 -3 OFFCURVE",
"72 -18 QCURVE SMOOTH"
);
}
);
width = 262;
}
);
note = semicolon;
unicode = 003B;
},
{
glyphname = less;
layers = (
{
layerId = "EE330C8E-4A1C-402A-831D-620872201BE1";
paths = (
{
closed = 1;
nodes = (
"419 364 LINE",
"423 386 OFFCURVE",
"423 386 QCURVE",
"423 430 OFFCURVE",
"419 430 QCURVE SMOOTH",
"418 430 OFFCURVE",
"414 428 QCURVE SMOOTH",
"30 241 LINE SMOOTH",
"12 232 OFFCURVE",
"9 217 QCURVE SMOOTH",
"4 187 OFFCURVE",
"18 177 QCURVE",
"330 -13 LINE",
"334 -15 LINE",
"338 -15 OFFCURVE",
"359 38 OFFCURVE",
"360 45 QCURVE",
"359 51 OFFCURVE",
"359 51 QCURVE",
"93 209 LINE"
);
}
);
width = 427;
}
);
note = less;
unicode = 003C;
},
{
glyphname = equal;
layers = (
{
layerId = "EE330C8E-4A1C-402A-831D-620872201BE1";
paths = (
{
closed = 1;
nodes = (
"440 109 LINE",
"448 114 OFFCURVE",
"448 115 QCURVE",
"463 147 OFFCURVE",
"469 176 QCURVE",
"469 177 OFFCURVE",
"469 178 QCURVE SMOOTH",
"469 181 OFFCURVE",
"462 181 QCURVE SMOOTH",
"50 181 LINE",
"48 181 LINE SMOOTH",
"47 181 OFFCURVE",
"43 179 OFFCURVE",
"42 176 QCURVE",
"32 153 OFFCURVE",
"23 119 QCURVE",
"27 109 OFFCURVE",
"27 109 QCURVE"
);
},
{
closed = 1;
nodes = (
"469 251 LINE",
"475 257 LINE",
"492 293 OFFCURVE",
"497 318 QCURVE SMOOTH",
"498 323 OFFCURVE",
"494 323 QCURVE SMOOTH",
"76 323 LINE SMOOTH",
"67 323 OFFCURVE",
"50 261 QCURVE",
"55 251 LINE"
);
}
);
width = 531;
}
);
note = equal;
unicode = 003D;
},
{
glyphname = greater;
layers = (
{
layerId = "EE330C8E-4A1C-402A-831D-620872201BE1";
paths = (
{
closed = 1;
nodes = (
"4 51 LINE",
"0 45 LINE",
"-1 40 OFFCURVE",
"0 -15 OFFCURVE",
"4 -15 QCURVE SMOOTH",
"5 -15 OFFCURVE",
"9 -13 QCURVE SMOOTH",
"394 177 LINE SMOOTH",
"414 187 OFFCURVE",
"419 217 QCURVE SMOOTH",
"422 232 OFFCURVE",
"407 241 QCURVE SMOOTH",
"96 428 LINE",
"92 430 OFFCURVE",
"92 430 QCURVE SMOOTH",
"87 430 OFFCURVE",
"65 373 QCURVE",
"66 364 OFFCURVE",
"66 364 QCURVE",
"332 209 LINE"
);
}
);
width = 441;
}
);
note = greater;
unicode = 003E;
},
{
glyphname = question;
layers = (
{
layerId = "EE330C8E-4A1C-402A-831D-620872201BE1";
paths = (
{
closed = 1;
nodes = (
"6 24 OFFCURVE",
"41 -11 OFFCURVE",
"64 -11 QCURVE SMOOTH",
"95 -11 OFFCURVE",
"146 46 OFFCURVE",
"146 81 QCURVE SMOOTH",
"146 107 OFFCURVE",
"114 139 OFFCURVE",
"89 139 QCURVE SMOOTH",
"58 139 OFFCURVE",
"6 86 OFFCURVE",
"6 51 QCURVE SMOOTH"
);
},
{
closed = 1;
nodes = (
"179 218 OFFCURVE",
"130 254 OFFCURVE",
"130 271 QCURVE SMOOTH",
"130 296 OFFCURVE",
"169 312 QCURVE SMOOTH",
"227 338 OFFCURVE",
"272 363 QCURVE SMOOTH",
"304 380 OFFCURVE",
"348 459 OFFCURVE",
"348 500 QCURVE SMOOTH",
"348 564 OFFCURVE",
"252 646 OFFCURVE",
"187 646 QCURVE SMOOTH",
"134 646 OFFCURVE",
"104 609 QCURVE",
"91 580 OFFCURVE",
"114 522 OFFCURVE",
"147 522 QCURVE SMOOTH",
"162 522 OFFCURVE",
"207 567 OFFCURVE",
"222 567 QCURVE SMOOTH",
"271 567 OFFCURVE",
"271 515 QCURVE SMOOTH",
"271 472 OFFCURVE",
"219 449 QCURVE SMOOTH",
"118 404 LINE SMOOTH",
"92 392 OFFCURVE",
"50 341 OFFCURVE",
"50 300 QCURVE SMOOTH",
"50 263 OFFCURVE",
"142 195 OFFCURVE",
"166 195 QCURVE",
"179 203 OFFCURVE",
"179 215 QCURVE SMOOTH"
);
}
);
width = 346;
}
);
note = question;
unicode = 003F;
},
{
glyphname = at;
layers = (
{
layerId = "EE330C8E-4A1C-402A-831D-620872201BE1";
paths = (
{
closed = 1;
nodes = (
"347 -171 OFFCURVE",
"415 -141 OFFCURVE",
"418 -122 QCURVE",
"418 -113 LINE",
"383 -126 OFFCURVE",
"351 -126 QCURVE SMOOTH",
"186 -126 OFFCURVE",
"70 64 OFFCURVE",
"101 223 QCURVE SMOOTH",
"126 354 OFFCURVE",
"327 519 OFFCURVE",
"455 519 QCURVE SMOOTH",
"570 519 OFFCURVE",
"672 344 OFFCURVE",
"647 214 QCURVE SMOOTH",
"642 187 OFFCURVE",
"626 137 OFFCURVE",
"596 73 OFFCURVE",
"545 34 OFFCURVE",
"512 34 QCURVE SMOOTH",
"470 34 OFFCURVE",
"501 143 QCURVE SMOOTH",
"560 348 LINE SMOOTH",
"566 370 OFFCURVE",
"577 401 QCURVE",
"562 404 LINE",
"547 406 OFFCURVE",
"501 410 OFFCURVE",
"485 410 QCURVE SMOOTH",
"366 410 OFFCURVE",
"189 247 OFFCURVE",
"168 141 QCURVE SMOOTH",
"157 85 OFFCURVE",
"200 -7 OFFCURVE",
"249 -7 QCURVE SMOOTH",
"293 -7 OFFCURVE",
"374 41 OFFCURVE",
"391 67 QCURVE",
"392 68 OFFCURVE",
"396 70 OFFCURVE",
"396 69 QCURVE",
"390 37 OFFCURVE",
"445 -13 OFFCURVE",
"492 -13 QCURVE SMOOTH",
"559 -13 OFFCURVE",
"683 102 OFFCURVE",
"709 233 QCURVE SMOOTH",
"725 314 OFFCURVE",
"685 470 OFFCURVE",
"565 577 OFFCURVE",
"476 577 QCURVE SMOOTH",
"315 577 OFFCURVE",
"58 365 OFFCURVE",
"23 185 QCURVE SMOOTH",
"11 124 OFFCURVE",
"37 -2 OFFCURVE",
"102 -105 OFFCURVE",
"219 -171 OFFCURVE",
"291 -171 QCURVE SMOOTH"
);
},
{
closed = 1;
nodes = (
"405 158 OFFCURVE",
"317 53 OFFCURVE",
"287 53 QCURVE SMOOTH",
"269 53 OFFCURVE",
"261 90 OFFCURVE",
"271 143 QCURVE SMOOTH",
"290 240 OFFCURVE",
"392 359 OFFCURVE",
"432 359 QCURVE SMOOTH",
"455 359 OFFCURVE",
"460 334 OFFCURVE",
"454 322 QCURVE",
"412 182 LINE SMOOTH"
);
}
);
width = 749;
}
);
note = at;
unicode = 0040;
},
{
glyphname = A;
layers = (
{
layerId = "EE330C8E-4A1C-402A-831D-620872201BE1";
paths = (
{
closed = 1;
nodes = (
"359 213 OFFCURVE",
"395 211 QCURVE",
"401 211 OFFCURVE",
"401 207 QCURVE",
"423 78 OFFCURVE",
"423 69 QCURVE SMOOTH",
"423 62 OFFCURVE",
"418 55 QCURVE",
"411 47 OFFCURVE",
"375 30 OFFCURVE",
"359 30 OFFCURVE",
"359 3 QCURVE SMOOTH",
"359 -3 OFFCURVE",
"360 -4 QCURVE",
"479 3 OFFCURVE",
"498 3 QCURVE SMOOTH",
"522 3 OFFCURVE",
"617 -4 OFFCURVE",
"620 -4 QCURVE",
"627 5 OFFCURVE",
"627 25 QCURVE SMOOTH",
"627 30 OFFCURVE",
"625 30 QCURVE SMOOTH",
"614 30 OFFCURVE",
"568 50 OFFCURVE",
"565 66 QCURVE SMOOTH",
"555 115 OFFCURVE",
"551 141 QCURVE",
"446 659 LINE",
"443 667 OFFCURVE",
"434 667 QCURVE SMOOTH",
"428 667 OFFCURVE",
"414 656 OFFCURVE",
"397 633 OFFCURVE",
"387 618 OFFCURVE",
"369 588 OFFCURVE",
"368 586 QCURVE",
"96 134 LINE SMOOTH",
"66 84 OFFCURVE",
"57 71 QCURVE",
"48 59 OFFCURVE",
"-18 30 OFFCURVE",
"-28 30 QCURVE SMOOTH",
"-33 30 OFFCURVE",
"-33 4 QCURVE SMOOTH",
"-33 -2 OFFCURVE",
"-32 -4 QCURVE",
"-18 -3 OFFCURVE",
"61 3 OFFCURVE",
"86 3 QCURVE SMOOTH",
"110 3 OFFCURVE",
"174 -3 OFFCURVE",
"186 -4 QCURVE",
"191 6 OFFCURVE",
"191 26 QCURVE SMOOTH",
"191 30 OFFCURVE",
"189 30 QCURVE SMOOTH",
"175 30 OFFCURVE",
"124 48 OFFCURVE",
"124 82 OFFCURVE",
"157 131 QCURVE",
"202 207 LINE",
"203 208 OFFCURVE",
"216 212 OFFCURVE",
"219 212 QCURVE SMOOTH",
"252 213 OFFCURVE",
"304 213 QCURVE SMOOTH"
);
},
{
closed = 1;
nodes = (
"275 273 OFFCURVE",
"248 276 QCURVE",
"247 276 OFFCURVE",
"246 279 OFFCURVE",
"247 280 QCURVE",
"355 458 LINE",
"387 280 LINE",
"387 275 OFFCURVE",
"383 275 QCURVE",
"354 273 OFFCURVE",
"316 273 QCURVE SMOOTH"
);
}
);
width = 634;
}
);
note = A;
unicode = 0041;
},
{
glyphname = B;
layers = (
{
layerId = "EE330C8E-4A1C-402A-831D-620872201BE1";
paths = (
{
closed = 1;
nodes = (
"392 157 OFFCURVE",
"343 76 OFFCURVE",
"314 64 QCURVE SMOOTH",
"293 55 OFFCURVE",
"268 55 QCURVE SMOOTH",
"237 55 OFFCURVE",
"206 59 OFFCURVE",
"196 66 OFFCURVE",
"196 72 QCURVE SMOOTH",
"196 76 OFFCURVE",
"196 76 QCURVE",
"240 301 LINE",
"242 315 OFFCURVE",
"300 315 QCURVE SMOOTH",
"392 315 OFFCURVE",
"392 224 QCURVE SMOOTH"
);
},
{
closed = 1;
nodes = (
"533 277 OFFCURVE",
"483 343 OFFCURVE",
"457 348 QCURVE",
"457 348 OFFCURVE",
"464 352 OFFCURVE",
"477 360 OFFCURVE",
"494 372 OFFCURVE",
"512 389 OFFCURVE",
"531 409 OFFCURVE",
"547 435 OFFCURVE",
"560 464 OFFCURVE",
"568 499 OFFCURVE",
"568 518 QCURVE SMOOTH",
"568 555 OFFCURVE",
"535 612 OFFCURVE",
"482 645 OFFCURVE",
"422 661 OFFCURVE",
"391 661 QCURVE SMOOTH",
"385 661 OFFCURVE",
"306 659 OFFCURVE",
"247 659 QCURVE SMOOTH",
"185 659 OFFCURVE",
"116 662 QCURVE",
"109 655 OFFCURVE",
"109 635 QCURVE SMOOTH",
"109 628 OFFCURVE",
"111 628 QCURVE SMOOTH",
"120 628 OFFCURVE",
"161 607 OFFCURVE",
"162 599 QCURVE",
"163 585 OFFCURVE",
"152 521 QCURVE SMOOTH",
"79 143 LINE SMOOTH",
"66 76 OFFCURVE",
"54 55 QCURVE SMOOTH",
"49 46 OFFCURVE",
"5 30 OFFCURVE",
"-5 30 QCURVE SMOOTH",
"-6 30 OFFCURVE",
"-10 23 OFFCURVE",
"-13 11 OFFCURVE",
"-13 5 QCURVE SMOOTH",
"-13 -2 OFFCURVE",
"-11 -4 QCURVE",
"0 -4 OFFCURVE",
"74 2 OFFCURVE",
"108 2 QCURVE SMOOTH",
"110 2 OFFCURVE",
"261 0 OFFCURVE",
"262 0 QCURVE SMOOTH",
"377 0 OFFCURVE",
"533 126 OFFCURVE",
"533 226 QCURVE SMOOTH"
);
},
{
closed = 1;
nodes = (
"428 449 OFFCURVE",
"360 371 OFFCURVE",
"302 371 QCURVE SMOOTH",
"253 371 OFFCURVE",
"256 385 QCURVE SMOOTH",
"296 590 LINE",
"299 600 OFFCURVE",
"326 606 OFFCURVE",
"355 606 QCURVE SMOOTH",
"392 606 OFFCURVE",
"428 571 OFFCURVE",
"428 529 QCURVE SMOOTH"
);
}
);
width = 561;
}
);
note = B;
unicode = 0042;
},
{
glyphname = C;
layers = (
{
layerId = "EE330C8E-4A1C-402A-831D-620872201BE1";
paths = (
{
closed = 1;
nodes = (
"325 667 OFFCURVE",
"189 602 OFFCURVE",
"80 495 OFFCURVE",
"11 341 OFFCURVE",
"11 259 QCURVE SMOOTH",
"11 144 OFFCURVE",
"167 -7 OFFCURVE",
"298 -7 QCURVE SMOOTH",
"447 -7 OFFCURVE",
"504 44 QCURVE SMOOTH",
"512 51 OFFCURVE",
"541 141 OFFCURVE",
"544 155 QCURVE",
"541 168 OFFCURVE",
"515 168 QCURVE SMOOTH",
"514 168 OFFCURVE",
"499 138 OFFCURVE",
"469 95 OFFCURVE",
"452 83 QCURVE SMOOTH",
"429 67 OFFCURVE",
"347 47 OFFCURVE",
"305 47 QCURVE SMOOTH",
"231 47 OFFCURVE",
"156 157 OFFCURVE",
"156 247 QCURVE SMOOTH",
"156 344 OFFCURVE",
"215 511 OFFCURVE",
"321 611 OFFCURVE",
"385 611 QCURVE SMOOTH",
"422 611 OFFCURVE",
"481 590 OFFCURVE",
"515 561 OFFCURVE",
"537 522 OFFCURVE",
"545 492 OFFCURVE",
"546 478 QCURVE",
"558 475 OFFCURVE",
"560 475 QCURVE SMOOTH",
"569 475 OFFCURVE",
"586 483 OFFCURVE",
"588 490 QCURVE",
"589 497 OFFCURVE",
"598 626 OFFCURVE",
"598 638 QCURVE",
"493 667 OFFCURVE",
"391 667 QCURVE SMOOTH"
);
}
);
width = 587;
}
);
note = C;
unicode = 0043;
},
{
glyphname = D;
layers = (
{
layerId = "EE330C8E-4A1C-402A-831D-620872201BE1";
paths = (
{
closed = 1;
nodes = (
"142 2 OFFCURVE",
"261 -3 OFFCURVE",
"279 -3 QCURVE SMOOTH",
"351 -3 OFFCURVE",
"479 46 OFFCURVE",
"572 128 OFFCURVE",
"641 233 OFFCURVE",
"675 348 OFFCURVE",
"675 404 QCURVE SMOOTH",
"675 457 OFFCURVE",
"643 547 OFFCURVE",
"580 618 OFFCURVE",
"476 659 OFFCURVE",
"409 659 QCURVE SMOOTH",
"247 659 LINE SMOOTH",
"185 659 OFFCURVE",
"116 662 QCURVE",
"109 655 OFFCURVE",
"109 635 QCURVE SMOOTH",
"109 628 OFFCURVE",
"111 628 QCURVE SMOOTH",
"120 628 OFFCURVE",
"161 607 OFFCURVE",
"162 599 QCURVE",
"163 585 OFFCURVE",
"152 521 QCURVE SMOOTH",
"79 143 LINE SMOOTH",
"66 76 OFFCURVE",
"54 55 QCURVE SMOOTH",
"49 46 OFFCURVE",
"5 30 OFFCURVE",
"-5 30 QCURVE SMOOTH",
"-6 30 OFFCURVE",
"-10 23 OFFCURVE",
"-13 11 OFFCURVE",
"-13 5 QCURVE SMOOTH",
"-13 -2 OFFCURVE",
"-11 -4 QCURVE",
"0 -4 OFFCURVE",
"74 2 OFFCURVE",
"108 2 QCURVE SMOOTH"
);
},
{
closed = 1;
nodes = (
"444 603 OFFCURVE",
"503 560 OFFCURVE",
"529 487 OFFCURVE",
"535 392 OFFCURVE",
"524 340 QCURVE SMOOTH",
"496 197 OFFCURVE",
"383 53 OFFCURVE",
"305 53 QCURVE SMOOTH",
"219 53 OFFCURVE",
"202 66 QCURVE SMOOTH",
"195 71 OFFCURVE",
"208 136 QCURVE SMOOTH",
"283 524 LINE SMOOTH",
"290 568 OFFCURVE",
"307 587 QCURVE SMOOTH",
"321 603 OFFCURVE",
"403 603 QCURVE SMOOTH"
);
}
);
width = 678;
}
);
note = D;
unicode = 0044;
},
{
glyphname = E;
layers = (
{
layerId = "EE330C8E-4A1C-402A-831D-620872201BE1";
paths = (
{
closed = 1;
nodes = (
"148 2 OFFCURVE",
"384 -2 OFFCURVE",
"437 -2 QCURVE",
"442 13 OFFCURVE",
"465 62 OFFCURVE",
"481 95 OFFCURVE",
"517 162 OFFCURVE",
"521 170 QCURVE",
"517 176 OFFCURVE",
"494 176 QCURVE SMOOTH",
"483 176 OFFCURVE",
"480 170 QCURVE",
"463 139 OFFCURVE",
"413 89 OFFCURVE",
"396 80 QCURVE SMOOTH",
"344 54 OFFCURVE",
"286 54 QCURVE SMOOTH",
"262 54 LINE SMOOTH",
"220 54 OFFCURVE",
"201 64 OFFCURVE",
"201 82 QCURVE SMOOTH",
"201 101 OFFCURVE",
"209 141 QCURVE SMOOTH",
"238 295 LINE SMOOTH",
"240 304 OFFCURVE",
"307 304 QCURVE SMOOTH",
"370 304 OFFCURVE",
"382 292 QCURVE SMOOTH",
"391 283 OFFCURVE",
"393 238 QCURVE",
"395 230 OFFCURVE",
"406 230 QCURVE SMOOTH",
"423 230 OFFCURVE",
"427 234 QCURVE",
"463 423 LINE",
"460 428 OFFCURVE",
"444 428 QCURVE SMOOTH",
"431 428 OFFCURVE",
"428 421 QCURVE SMOOTH",
"408 376 OFFCURVE",
"392 359 OFFCURVE",
"370 359 QCURVE SMOOTH",
"291 359 LINE SMOOTH",
"273 359 OFFCURVE",
"251 362 OFFCURVE",
"252 365 QCURVE",
"282 519 LINE SMOOTH",
"290 564 OFFCURVE",
"302 597 QCURVE SMOOTH",
"305 605 OFFCURVE",
"333 610 OFFCURVE",
"365 610 QCURVE SMOOTH",
"400 610 LINE SMOOTH",
"436 610 OFFCURVE",
"501 556 OFFCURVE",
"512 518 QCURVE",
"513 511 OFFCURVE",
"524 511 QCURVE SMOOTH",
"541 511 OFFCURVE",
"546 516 QCURVE",
"546 573 LINE SMOOTH",
"546 634 OFFCURVE",
"548 664 QCURVE",
"494 664 OFFCURVE",
"300 659 OFFCURVE",
"247 659 QCURVE SMOOTH",
"196 659 OFFCURVE",
"116 662 QCURVE",
"109 655 OFFCURVE",
"109 635 QCURVE SMOOTH",
"109 628 OFFCURVE",
"111 628 QCURVE SMOOTH",
"120 628 OFFCURVE",
"161 607 OFFCURVE",
"162 599 QCURVE",
"163 585 OFFCURVE",
"152 521 QCURVE SMOOTH",
"79 143 LINE SMOOTH",
"66 76 OFFCURVE",
"54 55 QCURVE SMOOTH",
"49 46 OFFCURVE",
"5 30 OFFCURVE",
"-5 30 QCURVE SMOOTH",
"-6 30 OFFCURVE",
"-10 23 OFFCURVE",
"-13 11 OFFCURVE",
"-13 5 QCURVE SMOOTH",
"-13 -2 OFFCURVE",
"-11 -4 QCURVE",
"0 -4 OFFCURVE",
"74 2 OFFCURVE",
"108 2 QCURVE SMOOTH"
);
}
);
width = 542;
}
);
note = E;
unicode = 0045;
},
{
glyphname = F;
layers = (
{
layerId = "EE330C8E-4A1C-402A-831D-620872201BE1";
paths = (
{
closed = 1;
nodes = (
"148 3 OFFCURVE",
"278 -4 QCURVE",
"280 -1 OFFCURVE",
"283 14 QCURVE SMOOTH",
"286 30 OFFCURVE",
"282 30 QCURVE SMOOTH",
"275 30 OFFCURVE",
"256 32 OFFCURVE",
"221 39 OFFCURVE",
"199 59 OFFCURVE",
"199 74 QCURVE SMOOTH",
"199 96 OFFCURVE",
"208 141 QCURVE SMOOTH",
"237 295 LINE SMOOTH",
"239 304 OFFCURVE",
"306 304 QCURVE SMOOTH",
"369 304 OFFCURVE",
"381 292 QCURVE SMOOTH",
"390 283 OFFCURVE",
"392 238 QCURVE",
"394 230 OFFCURVE",
"405 230 QCURVE SMOOTH",
"422 230 OFFCURVE",
"426 234 QCURVE",
"462 423 LINE",
"459 428 OFFCURVE",
"443 428 QCURVE SMOOTH",
"430 428 OFFCURVE",
"427 421 QCURVE SMOOTH",
"407 376 OFFCURVE",
"391 359 OFFCURVE",
"369 359 QCURVE SMOOTH",
"290 359 LINE SMOOTH",
"272 359 OFFCURVE",
"250 362 OFFCURVE",
"251 365 QCURVE",
"281 519 LINE SMOOTH",
"289 564 OFFCURVE",
"301 597 QCURVE SMOOTH",
"304 605 OFFCURVE",
"332 610 OFFCURVE",
"364 610 QCURVE SMOOTH",
"399 610 LINE SMOOTH",
"435 610 OFFCURVE",
"500 556 OFFCURVE",
"511 518 QCURVE",
"512 511 OFFCURVE",
"523 511 QCURVE SMOOTH",
"540 511 OFFCURVE",
"545 516 QCURVE",
"545 573 LINE SMOOTH",
"545 634 OFFCURVE",
"547 664 QCURVE",
"493 664 OFFCURVE",
"300 659 OFFCURVE",
"247 659 QCURVE SMOOTH",
"196 659 OFFCURVE",
"116 662 QCURVE",
"109 655 OFFCURVE",
"109 635 QCURVE SMOOTH",
"109 628 OFFCURVE",
"111 628 QCURVE SMOOTH",
"120 628 OFFCURVE",
"161 607 OFFCURVE",
"162 599 QCURVE",
"163 585 OFFCURVE",
"152 521 QCURVE SMOOTH",
"79 143 LINE SMOOTH",
"66 76 OFFCURVE",
"54 55 QCURVE SMOOTH",
"49 46 OFFCURVE",
"5 30 OFFCURVE",
"-5 30 QCURVE SMOOTH",
"-6 30 OFFCURVE",
"-10 23 OFFCURVE",
"-13 11 OFFCURVE",
"-13 5 QCURVE SMOOTH",
"-13 -2 OFFCURVE",
"-11 -4 QCURVE",
"6 -3 OFFCURVE",
"54 1 OFFCURVE",
"93 3 OFFCURVE",
"119 3 QCURVE SMOOTH"
);
}
);
width = 537;
}
);
note = F;
unicode = 0046;
},
{
glyphname = G;
layers = (
{
layerId = "EE330C8E-4A1C-402A-831D-620872201BE1";
paths = (
{
closed = 1;
nodes = (
"505 42 OFFCURVE",
"530 65 OFFCURVE",
"530 72 QCURVE SMOOTH",
"530 88 OFFCURVE",
"536 112 QCURVE SMOOTH",
"560 223 LINE SMOOTH",
"564 241 OFFCURVE",
"581 251 QCURVE",
"590 255 OFFCURVE",
"633 267 OFFCURVE",
"645 267 OFFCURVE",
"645 301 QCURVE",
"531 295 OFFCURVE",
"514 295 QCURVE SMOOTH",
"505 295 OFFCURVE",
"364 301 QCURVE",
"357 296 OFFCURVE",
"357 274 QCURVE SMOOTH",
"357 267 OFFCURVE",
"359 267 QCURVE SMOOTH",
"373 267 OFFCURVE",
"430 253 OFFCURVE",
"430 239 QCURVE SMOOTH",
"430 217 OFFCURVE",
"424 188 QCURVE SMOOTH",
"397 59 LINE",
"354 47 OFFCURVE",
"311 47 QCURVE SMOOTH",
"233 47 OFFCURVE",
"155 161 OFFCURVE",
"155 247 QCURVE SMOOTH",
"155 305 OFFCURVE",
"183 427 OFFCURVE",
"237 539 OFFCURVE",
"329 611 OFFCURVE",
"385 611 QCURVE SMOOTH",
"422 611 OFFCURVE",
"481 590 OFFCURVE",
"515 561 OFFCURVE",
"537 522 OFFCURVE",
"545 492 OFFCURVE",
"546 478 QCURVE",
"555 475 OFFCURVE",
"559 475 QCURVE SMOOTH",
"585 475 OFFCURVE",
"588 490 QCURVE",
"590 498 OFFCURVE",
"598 622 OFFCURVE",
"598 638 QCURVE",
"493 667 OFFCURVE",
"391 667 QCURVE SMOOTH",
"325 667 OFFCURVE",
"189 603 OFFCURVE",
"80 495 OFFCURVE",
"11 339 OFFCURVE",
"11 254 QCURVE SMOOTH",
"11 142 OFFCURVE",
"172 -8 OFFCURVE",
"299 -8 QCURVE SMOOTH",
"406 -8 OFFCURVE",
"490 34 QCURVE SMOOTH"
);
}
);
width = 616;
}
);
note = G;
unicode = 0047;
},
{
glyphname = H;
layers = (
{
layerId = "EE330C8E-4A1C-402A-831D-620872201BE1";
paths = (
{
closed = 1;
nodes = (
"340 369 OFFCURVE",
"304 369 OFFCURVE",
"279 370 OFFCURVE",
"264 371 OFFCURVE",
"256 373 OFFCURVE",
"254 375 OFFCURVE",
"254 376 QCURVE SMOOTH",
"254 378 LINE",
"281 519 LINE SMOOTH",
"283 530 OFFCURVE",
"299 594 OFFCURVE",
"305 604 QCURVE SMOOTH",
"309 611 OFFCURVE",
"356 628 OFFCURVE",
"364 628 QCURVE SMOOTH",
"367 628 OFFCURVE",
"372 649 OFFCURVE",
"372 657 QCURVE SMOOTH",
"372 662 LINE",
"258 656 OFFCURVE",
"240 656 QCURVE SMOOTH",
"221 656 OFFCURVE",
"181 658 OFFCURVE",
"132 661 OFFCURVE",
"118 662 QCURVE",
"112 656 OFFCURVE",
"112 632 QCURVE SMOOTH",
"112 628 OFFCURVE",
"113 628 QCURVE SMOOTH",
"124 628 OFFCURVE",
"161 611 OFFCURVE",
"161 596 QCURVE SMOOTH",
"161 571 OFFCURVE",
"152 523 QCURVE SMOOTH",
"77 135 LINE SMOOTH",
"68 78 OFFCURVE",
"52 52 QCURVE",
"47 43 OFFCURVE",
"4 30 OFFCURVE",
"-7 30 QCURVE SMOOTH",
"-9 30 OFFCURVE",
"-13 9 OFFCURVE",
"-13 2 QCURVE SMOOTH",
"-13 -3 OFFCURVE",
"-12 -4 QCURVE",
"0 -3 OFFCURVE",
"89 3 OFFCURVE",
"114 3 QCURVE SMOOTH",
"132 3 OFFCURVE",
"177 1 OFFCURVE",
"229 -3 OFFCURVE",
"241 -4 QCURVE",
"248 6 OFFCURVE",
"248 25 QCURVE SMOOTH",
"248 30 OFFCURVE",
"246 30 QCURVE SMOOTH",
"237 30 OFFCURVE",
"198 49 OFFCURVE",
"198 59 QCURVE SMOOTH",
"198 87 OFFCURVE",
"208 139 QCURVE SMOOTH",
"240 303 LINE",
"242 311 OFFCURVE",
"354 311 QCURVE SMOOTH",
"464 311 OFFCURVE",
"464 305 QCURVE SMOOTH",
"464 304 LINE",
"430 135 LINE SMOOTH",
"415 69 OFFCURVE",
"406 53 QCURVE SMOOTH",
"401 44 OFFCURVE",
"357 30 OFFCURVE",
"346 30 QCURVE SMOOTH",
"344 30 OFFCURVE",
"341 10 OFFCURVE",
"341 2 QCURVE SMOOTH",
"341 -3 OFFCURVE",
"342 -4 QCURVE",
"353 -3 OFFCURVE",
"446 3 OFFCURVE",
"471 3 QCURVE SMOOTH",
"495 3 OFFCURVE",
"592 -4 OFFCURVE",
"594 -4 QCURVE",
"602 8 OFFCURVE",
"602 25 QCURVE SMOOTH",
"602 30 OFFCURVE",
"600 30 QCURVE SMOOTH",
"591 30 OFFCURVE",
"551 49 OFFCURVE",
"551 59 QCURVE SMOOTH",
"551 82 OFFCURVE",
"562 139 QCURVE SMOOTH",
"636 519 LINE SMOOTH",
"648 582 OFFCURVE",
"660 604 QCURVE SMOOTH",
"664 611 OFFCURVE",
"710 628 OFFCURVE",
"717 628 QCURVE SMOOTH",
"718 628 OFFCURVE",
"722 632 OFFCURVE",
"726 646 OFFCURVE",
"726 656 QCURVE SMOOTH",
"726 662 OFFCURVE",
"726 662 QCURVE",
"612 656 OFFCURVE",
"605 656 QCURVE SMOOTH",
"599 656 OFFCURVE",
"473 662 QCURVE",
"465 654 OFFCURVE",
"465 634 QCURVE SMOOTH",
"465 628 OFFCURVE",
"467 628 QCURVE SMOOTH",
"515 628 OFFCURVE",
"515 600 QCURVE SMOOTH",
"515 577 OFFCURVE",
"506 523 QCURVE SMOOTH",
"478 375 LINE SMOOTH",
"477 369 OFFCURVE",
"366 369 QCURVE SMOOTH"
);
}
);
width = 714;
}
);
note = H;
unicode = 0048;
},
{
glyphname = I;
layers = (
{
layerId = "EE330C8E-4A1C-402A-831D-620872201BE1";
paths = (
{
closed = 1;
nodes = (
"283 530 OFFCURVE",
"299 594 OFFCURVE",
"305 604 QCURVE SMOOTH",
"309 611 OFFCURVE",
"356 628 OFFCURVE",
"364 628 QCURVE SMOOTH",
"367 628 OFFCURVE",
"372 649 OFFCURVE",
"372 657 QCURVE SMOOTH",
"372 662 LINE",
"258 656 OFFCURVE",
"240 656 QCURVE SMOOTH",
"221 656 OFFCURVE",
"181 658 OFFCURVE",
"132 661 OFFCURVE",
"118 662 QCURVE",
"112 656 OFFCURVE",
"112 632 QCURVE SMOOTH",
"112 628 OFFCURVE",
"113 628 QCURVE SMOOTH",
"124 628 OFFCURVE",
"161 611 OFFCURVE",
"161 596 QCURVE SMOOTH",
"161 571 OFFCURVE",
"152 523 QCURVE SMOOTH",
"77 135 LINE SMOOTH",
"68 78 OFFCURVE",
"52 52 QCURVE",
"47 43 OFFCURVE",
"4 30 OFFCURVE",
"-7 30 QCURVE SMOOTH",
"-9 30 OFFCURVE",
"-13 9 OFFCURVE",
"-13 2 QCURVE SMOOTH",
"-13 -3 OFFCURVE",
"-12 -4 QCURVE",
"-3 -4 OFFCURVE",
"96 3 OFFCURVE",
"121 3 QCURVE SMOOTH",
"145 3 OFFCURVE",
"237 -4 OFFCURVE",
"241 -4 QCURVE",
"248 6 OFFCURVE",
"248 25 QCURVE SMOOTH",
"248 30 OFFCURVE",
"246 30 QCURVE SMOOTH",
"237 30 OFFCURVE",
"198 49 OFFCURVE",
"198 59 QCURVE SMOOTH",
"198 87 OFFCURVE",
"208 139 QCURVE SMOOTH",
"281 519 LINE SMOOTH"
);
}
);
width = 360;
}
);
note = I;
unicode = 0049;
},
{
glyphname = J;
layers = (
{
layerId = "EE330C8E-4A1C-402A-831D-620872201BE1";
paths = (
{
closed = 1;
nodes = (
"114 13 OFFCURVE",
"45 -128 OFFCURVE",
"-13 -176 QCURVE",
"-15 -180 OFFCURVE",
"-15 -194 QCURVE SMOOTH",
"-15 -212 OFFCURVE",
"-1 -218 QCURVE",
"45 -199 OFFCURVE",
"120 -148 OFFCURVE",
"196 -66 OFFCURVE",
"253 61 OFFCURVE",
"269 143 QCURVE SMOOTH",
"342 519 LINE SMOOTH",
"344 530 OFFCURVE",
"360 594 OFFCURVE",
"366 604 QCURVE SMOOTH",
"370 611 OFFCURVE",
"417 628 OFFCURVE",
"425 628 QCURVE SMOOTH",
"428 628 OFFCURVE",
"433 649 OFFCURVE",
"433 657 QCURVE SMOOTH",
"433 662 LINE",
"319 656 OFFCURVE",
"301 656 QCURVE SMOOTH",
"282 656 OFFCURVE",
"241 658 OFFCURVE",
"193 661 OFFCURVE",
"179 662 QCURVE",
"173 656 OFFCURVE",
"173 632 QCURVE SMOOTH",
"173 628 OFFCURVE",
"174 628 QCURVE SMOOTH",
"185 628 OFFCURVE",
"222 611 OFFCURVE",
"222 596 QCURVE SMOOTH",
"222 571 OFFCURVE",
"213 523 QCURVE SMOOTH",
"138 135 LINE SMOOTH"
);
}
);
width = 421;
}
);
note = J;
unicode = 004A;
},
{
glyphname = K;
layers = (
{
layerId = "EE330C8E-4A1C-402A-831D-620872201BE1";
paths = (
{
closed = 1;
nodes = (
"283 530 OFFCURVE",
"299 594 OFFCURVE",
"305 604 QCURVE SMOOTH",
"309 611 OFFCURVE",
"356 628 OFFCURVE",
"364 628 QCURVE SMOOTH",
"367 628 OFFCURVE",
"372 649 OFFCURVE",
"372 657 QCURVE SMOOTH",
"372 662 LINE",
"258 656 OFFCURVE",
"240 656 QCURVE SMOOTH",
"221 656 OFFCURVE",
"181 658 OFFCURVE",
"132 661 OFFCURVE",
"118 662 QCURVE",
"112 656 OFFCURVE",
"112 632 QCURVE SMOOTH",
"112 628 OFFCURVE",
"113 628 QCURVE SMOOTH",
"124 628 OFFCURVE",
"161 611 OFFCURVE",
"161 596 QCURVE SMOOTH",
"161 571 OFFCURVE",
"152 523 QCURVE SMOOTH",
"77 135 LINE SMOOTH",
"68 78 OFFCURVE",
"52 52 QCURVE",
"47 43 OFFCURVE",
"4 30 OFFCURVE",
"-7 30 QCURVE SMOOTH",
"-9 30 OFFCURVE",
"-13 9 OFFCURVE",
"-13 2 QCURVE SMOOTH",
"-13 -3 OFFCURVE",
"-12 -4 QCURVE",
"0 -3 OFFCURVE",
"89 3 OFFCURVE",
"114 3 QCURVE SMOOTH",
"132 3 OFFCURVE",
"177 1 OFFCURVE",
"229 -3 OFFCURVE",
"241 -4 QCURVE",
"248 6 OFFCURVE",
"248 25 QCURVE SMOOTH",
"248 30 OFFCURVE",
"246 30 QCURVE SMOOTH",
"237 30 OFFCURVE",
"198 49 OFFCURVE",
"198 59 QCURVE SMOOTH",
"198 87 OFFCURVE",
"208 139 QCURVE SMOOTH",
"281 519 LINE SMOOTH"
);
},
{
closed = 1;
nodes = (
"409 76 LINE SMOOTH",
"424 53 OFFCURVE",
"457 22 OFFCURVE",
"487 6 OFFCURVE",
"531 -2 OFFCURVE",
"563 -4 OFFCURVE",
"592 -4 QCURVE SMOOTH",
"636 -4 OFFCURVE",
"652 0 QCURVE",
"659 10 OFFCURVE",
"659 22 QCURVE SMOOTH",
"659 30 OFFCURVE",
"656 30 QCURVE SMOOTH",
"625 30 OFFCURVE",
"572 65 OFFCURVE",
"539 112 QCURVE SMOOTH",
"384 334 LINE SMOOTH",
"381 338 OFFCURVE",
"381 343 QCURVE SMOOTH",
"381 353 OFFCURVE",
"391 363 QCURVE SMOOTH",
"604 585 LINE SMOOTH",
"640 622 OFFCURVE",
"715 630 QCURVE",
"718 630 OFFCURVE",
"723 653 OFFCURVE",
"723 662 QCURVE",
"609 656 OFFCURVE",
"605 656 QCURVE SMOOTH",
"583 656 OFFCURVE",
"481 662 QCURVE",
"477 655 OFFCURVE",
"477 641 QCURVE SMOOTH",
"477 630 OFFCURVE",
"480 630 QCURVE SMOOTH",
"491 630 OFFCURVE",
"532 619 OFFCURVE",
"532 610 QCURVE SMOOTH",
"532 598 OFFCURVE",
"520 586 QCURVE SMOOTH",
"391 457 OFFCURVE",
"287 360 OFFCURVE",
"245 333 QCURVE"
);
}
);
width = 711;
}
);
note = K;
unicode = 004B;
},
{
glyphname = L;
layers = (
{
layerId = "EE330C8E-4A1C-402A-831D-620872201BE1";
paths = (
{
closed = 1;
nodes = (
"281 519 LINE SMOOTH",
"283 530 OFFCURVE",
"299 594 OFFCURVE",
"305 604 QCURVE SMOOTH",
"309 611 OFFCURVE",
"356 628 OFFCURVE",
"364 628 QCURVE SMOOTH",
"367 628 OFFCURVE",
"372 649 OFFCURVE",
"372 657 QCURVE SMOOTH",
"372 662 LINE",
"258 656 OFFCURVE",
"240 656 QCURVE SMOOTH",
"221 656 OFFCURVE",
"181 658 OFFCURVE",
"132 661 OFFCURVE",
"118 662 QCURVE",
"112 656 OFFCURVE",
"112 632 QCURVE SMOOTH",
"112 628 OFFCURVE",
"113 628 QCURVE SMOOTH",
"124 628 OFFCURVE",
"161 611 OFFCURVE",
"161 596 QCURVE SMOOTH",
"161 571 OFFCURVE",
"152 523 QCURVE SMOOTH",
"77 135 LINE SMOOTH",
"67 79 OFFCURVE",
"56 56 QCURVE SMOOTH",
"52 48 OFFCURVE",
"4 30 OFFCURVE",
"-6 30 QCURVE SMOOTH",
"-7 30 OFFCURVE",
"-10 23 OFFCURVE",
"-13 11 OFFCURVE",
"-13 5 QCURVE SMOOTH",
"-13 0 OFFCURVE",
"-11 -4 QCURVE",
"10 -2 LINE",
"31 -1 OFFCURVE",
"96 2 OFFCURVE",
"120 2 QCURVE SMOOTH",
"160 2 OFFCURVE",
"384 -2 OFFCURVE",
"437 -2 QCURVE",
"442 13 OFFCURVE",
"465 62 OFFCURVE",
"481 95 OFFCURVE",
"517 162 OFFCURVE",
"521 170 QCURVE",
"517 176 OFFCURVE",
"494 176 QCURVE SMOOTH",
"483 176 OFFCURVE",
"480 170 QCURVE",
"463 139 OFFCURVE",
"413 89 OFFCURVE",
"396 80 QCURVE SMOOTH",
"344 54 OFFCURVE",
"286 54 QCURVE SMOOTH",
"262 54 LINE SMOOTH",
"220 54 OFFCURVE",
"201 65 OFFCURVE",
"201 82 QCURVE SMOOTH",
"201 97 OFFCURVE",
"208 139 QCURVE SMOOTH"
);
}
);
width = 522;
}
);
note = L;
unicode = 004C;
},
{
glyphname = M;
layers = (
{
layerId = "EE330C8E-4A1C-402A-831D-620872201BE1";
paths = (
{
closed = 1;
nodes = (
"460 231 LINE",
"460 229 OFFCURVE",
"456 229 OFFCURVE",
"456 230 QCURVE",
"445 287 OFFCURVE",
"404 506 OFFCURVE",
"381 633 OFFCURVE",
"378 662 QCURVE",
"302 658 OFFCURVE",
"279 658 QCURVE SMOOTH",
"257 658 OFFCURVE",
"173 662 QCURVE",
"165 654 OFFCURVE",
"165 635 QCURVE SMOOTH",
"165 628 OFFCURVE",
"166 628 QCURVE SMOOTH",
"182 628 OFFCURVE",
"232 615 OFFCURVE",
"232 602 QCURVE SMOOTH",
"232 598 OFFCURVE",
"225 566 QCURVE",
"104 101 LINE",
"100 88 OFFCURVE",
"98 80 QCURVE SMOOTH",
"92 59 OFFCURVE",
"11 30 OFFCURVE",
"-6 30 QCURVE SMOOTH",
"-7 30 OFFCURVE",
"-10 22 OFFCURVE",
"-13 10 OFFCURVE",
"-13 0 OFFCURVE",
"-11 -4 QCURVE",
"1 -3 OFFCURVE",
"89 3 OFFCURVE",
"114 3 QCURVE SMOOTH",
"132 3 OFFCURVE",
"177 1 OFFCURVE",
"230 -3 OFFCURVE",
"242 -4 QCURVE",
"248 5 OFFCURVE",
"248 24 QCURVE SMOOTH",
"248 30 OFFCURVE",
"246 30 QCURVE SMOOTH",
"235 30 OFFCURVE",
"163 57 OFFCURVE",
"163 70 QCURVE SMOOTH",
"163 78 OFFCURVE",
"166 93 QCURVE SMOOTH",
"179 156 OFFCURVE",
"269 479 QCURVE",
"271 484 OFFCURVE",
"273 484 QCURVE SMOOTH",
"275 484 OFFCURVE",
"276 480 QCURVE",
"369 0 LINE",
"375 -2 OFFCURVE",
"377 -2 QCURVE SMOOTH",
"388 -2 OFFCURVE",
"415 22 OFFCURVE",
"420 31 QCURVE SMOOTH",
"650 454 LINE SMOOTH",
"654 461 OFFCURVE",
"656 461 QCURVE SMOOTH",
"660 461 OFFCURVE",
"660 450 QCURVE SMOOTH",
"660 420 OFFCURVE",
"658 402 QCURVE SMOOTH",
"631 145 LINE SMOOTH",
"628 111 OFFCURVE",
"622 77 OFFCURVE",
"617 67 OFFCURVE",
"612 58 QCURVE",
"605 48 OFFCURVE",
"559 30 OFFCURVE",
"549 30 QCURVE SMOOTH",
"548 30 OFFCURVE",
"545 24 OFFCURVE",
"542 12 OFFCURVE",
"542 7 QCURVE SMOOTH",
"542 0 OFFCURVE",
"544 -4 QCURVE",
"552 -4 OFFCURVE",
"654 3 OFFCURVE",
"679 3 QCURVE SMOOTH",
"703 3 OFFCURVE",
"792 -4 OFFCURVE",
"797 -4 QCURVE",
"804 5 OFFCURVE",
"804 25 QCURVE SMOOTH",
"804 30 OFFCURVE",
"802 30 QCURVE SMOOTH",
"795 30 OFFCURVE",
"774 35 OFFCURVE",
"749 54 OFFCURVE",
"749 68 QCURVE SMOOTH",
"749 79 OFFCURVE",
"753 116 OFFCURVE",
"753 116 QCURVE",
"760 215 OFFCURVE",
"794 524 QCURVE SMOOTH",
"801 591 OFFCURVE",
"818 611 QCURVE SMOOTH",
"833 628 OFFCURVE",
"866 628 QCURVE SMOOTH",
"873 628 OFFCURVE",
"873 662 QCURVE",
"797 658 OFFCURVE",
"776 658 QCURVE SMOOTH",
"713 658 OFFCURVE",
"681 662 QCURVE",
"627 546 LINE"
);
}
);
width = 861;
}
);
note = M;
unicode = 004D;
},
{
glyphname = N;
layers = (
{
layerId = "EE330C8E-4A1C-402A-831D-620872201BE1";
paths = (
{
closed = 1;
nodes = (
"233 657 OFFCURVE",
"128 662 QCURVE",
"121 657 OFFCURVE",
"121 636 QCURVE SMOOTH",
"121 628 OFFCURVE",
"124 628 QCURVE SMOOTH",
"141 628 OFFCURVE",
"197 611 OFFCURVE",
"197 596 QCURVE SMOOTH",
"197 569 OFFCURVE",
"191 537 QCURVE SMOOTH",
"115 144 LINE SMOOTH",
"105 88 OFFCURVE",
"92 71 QCURVE SMOOTH",
"75 49 OFFCURVE",
"11 30 OFFCURVE",
"-7 30 QCURVE SMOOTH",
"-8 30 OFFCURVE",
"-10 22 OFFCURVE",
"-13 10 OFFCURVE",
"-13 0 OFFCURVE",
"-11 -4 QCURVE",
"1 -3 OFFCURVE",
"90 3 OFFCURVE",
"115 3 QCURVE SMOOTH",
"133 3 OFFCURVE",
"178 1 OFFCURVE",
"230 -3 OFFCURVE",
"242 -4 QCURVE",
"248 8 OFFCURVE",
"248 25 QCURVE SMOOTH",
"248 30 OFFCURVE",
"246 30 QCURVE SMOOTH",
"241 30 OFFCURVE",
"219 35 OFFCURVE",
"188 46 OFFCURVE",
"166 70 OFFCURVE",
"166 86 QCURVE SMOOTH",
"166 101 OFFCURVE",
"174 141 QCURVE SMOOTH",
"248 524 LINE",
"525 18 LINE",
"539 -5 OFFCURVE",
"550 -5 QCURVE SMOOTH",
"570 -5 OFFCURVE",
"574 -1 QCURVE",
"589 98 OFFCURVE",
"597 139 QCURVE SMOOTH",
"671 519 LINE SMOOTH",
"682 576 OFFCURVE",
"698 592 QCURVE",
"711 606 OFFCURVE",
"756 624 OFFCURVE",
"782 628 OFFCURVE",
"789 628 QCURVE SMOOTH",
"797 628 OFFCURVE",
"797 662 QCURVE",
"704 657 OFFCURVE",
"673 657 QCURVE SMOOTH",
"648 657 OFFCURVE",
"543 662 QCURVE",
"537 656 OFFCURVE",
"537 635 QCURVE SMOOTH",
"537 628 OFFCURVE",
"539 628 QCURVE SMOOTH",
"556 628 OFFCURVE",
"619 599 OFFCURVE",
"619 557 OFFCURVE",
"613 524 QCURVE SMOOTH",
"569 292 LINE",
"561 257 OFFCURVE",
"559 251 QCURVE",
"528 312 OFFCURVE",
"421 500 OFFCURVE",
"354 628 OFFCURVE",
"345 662 QCURVE",
"306 657 OFFCURVE",
"252 657 QCURVE SMOOTH"
);
}
);
width = 675;
}
);
note = N;
unicode = 004E;
},
{
glyphname = O;
layers = (
{
layerId = "EE330C8E-4A1C-402A-831D-620872201BE1";
paths = (
{
closed = 1;
nodes = (
"481 611 OFFCURVE",
"481 435 QCURVE SMOOTH",
"481 395 OFFCURVE",
"467 298 OFFCURVE",
"436 190 OFFCURVE",
"391 103 OFFCURVE",
"320 46 OFFCURVE",
"278 46 QCURVE SMOOTH",
"245 46 OFFCURVE",
"196 77 OFFCURVE",
"169 133 OFFCURVE",
"157 199 OFFCURVE",
"157 238 QCURVE SMOOTH",
"157 397 OFFCURVE",
"278 611 OFFCURVE",
"359 611 QCURVE SMOOTH"
);
},
{
closed = 1;
nodes = (
"314 667 OFFCURVE",
"178 598 OFFCURVE",
"76 486 OFFCURVE",
"12 334 OFFCURVE",
"12 256 QCURVE SMOOTH",
"12 141 OFFCURVE",
"146 -10 OFFCURVE",
"252 -10 QCURVE SMOOTH",
"321 -10 OFFCURVE",
"457 59 OFFCURVE",
"560 171 OFFCURVE",
"624 322 OFFCURVE",
"624 400 QCURVE SMOOTH",
"624 516 OFFCURVE",
"489 667 OFFCURVE",
"383 667 QCURVE SMOOTH"
);
}
);
width = 626;
}
);
note = O;
unicode = 004F;
},
{
glyphname = P;
layers = (
{
layerId = "EE330C8E-4A1C-402A-831D-620872201BE1";
paths = (
{
closed = 1;
nodes = (
"350 662 OFFCURVE",
"273 657 OFFCURVE",
"245 657 QCURVE SMOOTH",
"223 657 OFFCURVE",
"118 662 QCURVE",
"116 660 OFFCURVE",
"110 640 OFFCURVE",
"110 633 QCURVE SMOOTH",
"110 628 OFFCURVE",
"112 628 QCURVE SMOOTH",
"121 628 OFFCURVE",
"160 609 OFFCURVE",
"160 595 QCURVE SMOOTH",
"160 561 OFFCURVE",
"152 523 QCURVE SMOOTH",
"76 135 LINE SMOOTH",
"64 74 OFFCURVE",
"54 55 QCURVE",
"42 30 OFFCURVE",
"-7 30 QCURVE SMOOTH",
"-10 30 OFFCURVE",
"-13 12 QCURVE",
"-14 2 OFFCURVE",
"-12 -4 QCURVE",
"-7 -4 OFFCURVE",
"104 3 OFFCURVE",
"129 3 QCURVE SMOOTH",
"149 3 OFFCURVE",
"278 -4 QCURVE",
"280 -1 OFFCURVE",
"283 14 QCURVE SMOOTH",
"286 30 OFFCURVE",
"282 30 QCURVE SMOOTH",
"275 30 OFFCURVE",
"256 32 OFFCURVE",
"222 39 OFFCURVE",
"199 59 OFFCURVE",
"199 74 QCURVE SMOOTH",
"199 88 OFFCURVE",
"208 141 QCURVE SMOOTH",
"294 588 LINE SMOOTH",
"298 607 OFFCURVE",
"352 607 QCURVE SMOOTH",
"384 607 OFFCURVE",
"417 554 OFFCURVE",
"417 520 QCURVE SMOOTH",
"417 436 OFFCURVE",
"361 328 OFFCURVE",
"304 328 QCURVE SMOOTH",
"298 328 OFFCURVE",
"276 331 OFFCURVE",
"272 331 QCURVE SMOOTH",
"269 331 OFFCURVE",
"263 316 OFFCURVE",
"263 309 QCURVE SMOOTH",
"263 303 OFFCURVE",
"264 302 QCURVE SMOOTH",
"272 294 OFFCURVE",
"307 281 OFFCURVE",
"328 281 QCURVE SMOOTH",
"381 281 OFFCURVE",
"470 323 OFFCURVE",
"527 389 OFFCURVE",
"558 470 OFFCURVE",
"558 510 QCURVE SMOOTH",
"558 547 OFFCURVE",
"533 604 OFFCURVE",
"496 636 OFFCURVE",
"445 656 OFFCURVE",
"401 662 OFFCURVE",
"377 662 QCURVE SMOOTH"
);
}
);
width = 546;
}
);
note = P;
unicode = 0050;
},
{
glyphname = Q;
layers = (
{
layerId = "EE330C8E-4A1C-402A-831D-620872201BE1";
paths = (
{
closed = 1;
nodes = (
"481 611 OFFCURVE",
"481 435 QCURVE SMOOTH",
"481 395 OFFCURVE",
"467 298 OFFCURVE",
"436 190 OFFCURVE",
"391 103 OFFCURVE",
"320 46 OFFCURVE",
"278 46 QCURVE SMOOTH",
"245 46 OFFCURVE",
"196 77 OFFCURVE",
"169 133 OFFCURVE",
"157 199 OFFCURVE",
"157 238 QCURVE SMOOTH",
"157 397 OFFCURVE",
"278 611 OFFCURVE",
"359 611 QCURVE SMOOTH"
);
},
{
closed = 1;
nodes = (
"314 667 OFFCURVE",
"178 598 OFFCURVE",
"76 486 OFFCURVE",
"12 334 OFFCURVE",
"12 256 QCURVE SMOOTH",
"12 152 OFFCURVE",
"124 6 OFFCURVE",
"215 -7 QCURVE",
"120 -13 OFFCURVE",
"54 -27 QCURVE",
"49 -29 OFFCURVE",
"32 -52 OFFCURVE",
"32 -56 QCURVE",
"118 -77 OFFCURVE",
"327 -154 OFFCURVE",
"478 -200 OFFCURVE",
"544 -200 QCURVE SMOOTH",
"608 -200 OFFCURVE",
"741 -113 OFFCURVE",
"762 -85 QCURVE",
"762 -78 OFFCURVE",
"743 -66 OFFCURVE",
"737 -65 QCURVE",
"717 -82 OFFCURVE",
"643 -114 OFFCURVE",
"606 -114 QCURVE SMOOTH",
"538 -114 OFFCURVE",
"288 -31 OFFCURVE",
"262 -27 QCURVE",
"290 -21 OFFCURVE",
"392 24 OFFCURVE",
"422 43 QCURVE SMOOTH",
"510 98 OFFCURVE",
"624 293 OFFCURVE",
"624 400 QCURVE SMOOTH",
"624 516 OFFCURVE",
"489 667 OFFCURVE",
"383 667 QCURVE SMOOTH"
);
}
);
width = 624;
}
);
note = Q;
unicode = 0051;
},
{
glyphname = R;
layers = (
{
layerId = "EE330C8E-4A1C-402A-831D-620872201BE1";
paths = (
{
closed = 1;
nodes = (
"349 662 OFFCURVE",
"273 657 OFFCURVE",
"246 657 QCURVE SMOOTH",
"224 657 OFFCURVE",
"119 662 QCURVE",
"117 660 OFFCURVE",
"111 640 OFFCURVE",
"111 633 QCURVE SMOOTH",
"111 628 OFFCURVE",
"113 628 QCURVE SMOOTH",
"125 628 OFFCURVE",
"162 609 OFFCURVE",
"162 594 QCURVE SMOOTH",
"162 574 OFFCURVE",
"153 523 QCURVE SMOOTH",
"77 135 LINE",
"68 78 OFFCURVE",
"52 52 QCURVE",
"47 43 OFFCURVE",
"4 30 OFFCURVE",
"-7 30 QCURVE SMOOTH",
"-9 30 OFFCURVE",
"-13 9 OFFCURVE",
"-13 2 QCURVE SMOOTH",
"-13 -3 OFFCURVE",
"-12 -4 QCURVE",
"0 -3 OFFCURVE",
"89 3 OFFCURVE",
"114 3 QCURVE SMOOTH",
"132 3 OFFCURVE",
"177 1 OFFCURVE",
"229 -3 OFFCURVE",
"241 -4 QCURVE",
"248 6 OFFCURVE",
"248 25 QCURVE SMOOTH",
"248 30 OFFCURVE",
"246 30 QCURVE SMOOTH",
"237 30 OFFCURVE",
"198 49 OFFCURVE",
"198 59 QCURVE SMOOTH",
"198 87 OFFCURVE",
"208 139 QCURVE SMOOTH",
"235 277 LINE",
"236 285 OFFCURVE",
"243 292 OFFCURVE",
"246 293 OFFCURVE",
"251 293 QCURVE SMOOTH",
"270 293 OFFCURVE",
"283 279 QCURVE SMOOTH",
"298 263 OFFCURVE",
"346 160 QCURVE",
"348 155 OFFCURVE",
"365 119 OFFCURVE",
"371 107 OFFCURVE",
"389 74 OFFCURVE",
"400 62 OFFCURVE",
"422 35 OFFCURVE",
"441 24 OFFCURVE",
"472 7 OFFCURVE",
"503 0 OFFCURVE",
"545 -6 OFFCURVE",
"568 -6 QCURVE SMOOTH",
"590 -6 OFFCURVE",
"604 -4 QCURVE",
"614 11 OFFCURVE",
"614 29 QCURVE",
"568 29 OFFCURVE",
"520 90 QCURVE SMOOTH",
"458 168 OFFCURVE",
"411 307 QCURVE SMOOTH",
"408 315 OFFCURVE",
"413 317 QCURVE",
"475 338 OFFCURVE",
"563 461 OFFCURVE",
"563 523 QCURVE SMOOTH",
"563 560 OFFCURVE",
"525 617 OFFCURVE",
"466 647 OFFCURVE",
"406 662 OFFCURVE",
"377 662 QCURVE SMOOTH"
);
},
{
closed = 1;
nodes = (
"385 607 OFFCURVE",
"419 566 OFFCURVE",
"419 525 QCURVE SMOOTH",
"419 484 OFFCURVE",
"398 406 OFFCURVE",
"349 348 OFFCURVE",
"316 348 QCURVE SMOOTH",
"281 348 OFFCURVE",
"253 355 OFFCURVE",
"253 368 QCURVE SMOOTH",
"253 372 OFFCURVE",
"254 375 QCURVE",
"294 582 LINE SMOOTH",
"297 598 OFFCURVE",
"319 607 OFFCURVE",
"356 607 QCURVE SMOOTH"
);
}
);
width = 632;
}
);
note = R;
unicode = 0052;
},
{
glyphname = S;
layers = (
{
layerId = "EE330C8E-4A1C-402A-831D-620872201BE1";
paths = (
{
closed = 1;
nodes = (
"268 670 OFFCURVE",
"186 638 OFFCURVE",
"114 583 OFFCURVE",
"68 498 OFFCURVE",
"68 450 QCURVE SMOOTH",
"68 437 OFFCURVE",
"71 415 OFFCURVE",
"80 393 OFFCURVE",
"86 377 OFFCURVE",
"103 357 OFFCURVE",
"110 347 OFFCURVE",
"133 326 OFFCURVE",
"140 320 OFFCURVE",
"167 297 OFFCURVE",
"170 295 QCURVE",
"175 291 OFFCURVE",
"226 250 OFFCURVE",
"249 228 OFFCURVE",
"274 188 OFFCURVE",
"274 169 QCURVE SMOOTH",
"274 162 OFFCURVE",
"270 138 OFFCURVE",
"255 101 OFFCURVE",
"232 70 OFFCURVE",
"188 47 OFFCURVE",
"160 47 QCURVE SMOOTH",
"114 47 OFFCURVE",
"54 136 OFFCURVE",
"54 182 QCURVE",
"52 185 OFFCURVE",
"34 190 OFFCURVE",
"30 190 QCURVE SMOOTH",
"6 190 OFFCURVE",
"6 182 QCURVE",
"6 182 OFFCURVE",
"7 120 OFFCURVE",
"7 104 QCURVE SMOOTH",
"7 59 OFFCURVE",
"2 16 QCURVE",
"101 -10 OFFCURVE",
"167 -10 QCURVE SMOOTH",
"207 -10 OFFCURVE",
"290 20 OFFCURVE",
"364 76 OFFCURVE",
"411 171 OFFCURVE",
"411 228 QCURVE SMOOTH",
"411 253 OFFCURVE",
"401 293 OFFCURVE",
"374 325 OFFCURVE",
"357 341 OFFCURVE",
"316 372 OFFCURVE",
"309 377 QCURVE SMOOTH",
"305 380 OFFCURVE",
"280 400 OFFCURVE",
"271 408 OFFCURVE",
"249 426 OFFCURVE",
"239 437 OFFCURVE",
"222 454 OFFCURVE",
"214 468 OFFCURVE",
"205 485 OFFCURVE",
"201 502 OFFCURVE",
"201 511 QCURVE SMOOTH",
"201 523 OFFCURVE",
"210 554 OFFCURVE",
"230 590 OFFCURVE",
"269 614 OFFCURVE",
"295 614 QCURVE SMOOTH",
"320 614 OFFCURVE",
"360 584 OFFCURVE",
"381 540 OFFCURVE",
"391 498 OFFCURVE",
"391 482 QCURVE SMOOTH",
"391 474 OFFCURVE",
"398 467 OFFCURVE",
"406 465 OFFCURVE",
"413 465 QCURVE SMOOTH",
"427 465 LINE SMOOTH",
"431 465 OFFCURVE",
"456 642 QCURVE",
"435 646 OFFCURVE",
"376 661 OFFCURVE",
"330 670 OFFCURVE",
"305 670 QCURVE SMOOTH"
);
}
);
width = 449;
}
);
note = S;
unicode = 0053;
},
{
glyphname = T;
layers = (
{
layerId = "EE330C8E-4A1C-402A-831D-620872201BE1";
paths = (
{
closed = 1;
nodes = (
"135 78 OFFCURVE",
"120 52 QCURVE SMOOTH",
"115 43 OFFCURVE",
"72 30 OFFCURVE",
"61 30 QCURVE SMOOTH",
"59 30 OFFCURVE",
"55 9 OFFCURVE",
"55 2 QCURVE SMOOTH",
"55 -3 OFFCURVE",
"56 -4 QCURVE",
"67 -3 OFFCURVE",
"159 3 OFFCURVE",
"184 3 QCURVE SMOOTH",
"202 3 OFFCURVE",
"246 1 OFFCURVE",
"297 -3 OFFCURVE",
"309 -4 QCURVE",
"316 6 OFFCURVE",
"316 25 QCURVE SMOOTH",
"316 30 OFFCURVE",
"314 30 QCURVE SMOOTH",
"305 30 OFFCURVE",
"266 49 OFFCURVE",
"266 59 QCURVE SMOOTH",
"266 87 OFFCURVE",
"276 139 QCURVE SMOOTH",
"346 500 LINE SMOOTH",
"357 558 OFFCURVE",
"371 589 QCURVE",
"373 594 OFFCURVE",
"381 601 OFFCURVE",
"419 607 OFFCURVE",
"453 607 QCURVE SMOOTH",
"490 607 OFFCURVE",
"532 561 OFFCURVE",
"534 508 QCURVE",
"534 503 OFFCURVE",
"542 503 QCURVE SMOOTH",
"548 503 OFFCURVE",
"568 508 OFFCURVE",
"570 510 QCURVE",
"585 674 LINE",
"541 663 OFFCURVE",
"518 663 QCURVE SMOOTH",
"479 663 OFFCURVE",
"351 657 OFFCURVE",
"273 657 OFFCURVE",
"149 663 OFFCURVE",
"110 663 QCURVE SMOOTH",
"86 663 OFFCURVE",
"48 674 QCURVE",
"-1 511 LINE",
"0 509 OFFCURVE",
"18 504 OFFCURVE",
"24 504 QCURVE SMOOTH",
"31 504 OFFCURVE",
"34 509 QCURVE",
"57 562 OFFCURVE",
"115 607 OFFCURVE",
"153 607 QCURVE SMOOTH",
"202 607 OFFCURVE",
"228 597 OFFCURVE",
"228 577 QCURVE SMOOTH",
"228 564 OFFCURVE",
"215 497 QCURVE SMOOTH",
"145 135 LINE SMOOTH"
);
}
);
width = 573;
}
);
note = T;
unicode = 0054;
},
{
glyphname = U;
layers = (
{
layerId = "EE330C8E-4A1C-402A-831D-620872201BE1";
paths = (
{
closed = 1;
nodes = (
"44 311 LINE SMOOTH",
"29 224 OFFCURVE",
"41 104 OFFCURVE",
"98 29 OFFCURVE",
"179 -5 OFFCURVE",
"234 -5 QCURVE SMOOTH",
"340 -5 OFFCURVE",
"502 145 OFFCURVE",
"530 291 QCURVE SMOOTH",
"575 519 LINE SMOOTH",
"586 576 OFFCURVE",
"602 592 QCURVE",
"615 606 OFFCURVE",
"656 622 OFFCURVE",
"677 625 OFFCURVE",
"685 625 QCURVE SMOOTH",
"687 625 OFFCURVE",
"693 639 OFFCURVE",
"694 644 QCURVE SMOOTH",
"696 654 OFFCURVE",
"694 662 QCURVE",
"682 661 OFFCURVE",
"600 654 OFFCURVE",
"577 654 QCURVE SMOOTH",
"540 654 OFFCURVE",
"456 662 QCURVE",
"453 660 OFFCURVE",
"449 641 OFFCURVE",
"448 626 OFFCURVE",
"451 625 QCURVE",
"462 625 OFFCURVE",
"511 607 OFFCURVE",
"518 596 QCURVE SMOOTH",
"521 591 OFFCURVE",
"523 577 OFFCURVE",
"522 558 OFFCURVE",
"520 546 OFFCURVE",
"516 525 OFFCURVE",
"516 524 QCURVE",
"470 286 LINE SMOOTH",
"458 227 OFFCURVE",
"416 142 OFFCURVE",
"361 96 OFFCURVE",
"304 75 OFFCURVE",
"272 75 QCURVE SMOOTH",
"206 75 OFFCURVE",
"150 187 OFFCURVE",
"168 279 QCURVE SMOOTH",
"214 516 LINE SMOOTH",
"224 572 OFFCURVE",
"237 601 QCURVE SMOOTH",
"240 608 OFFCURVE",
"294 625 OFFCURVE",
"302 625 QCURVE SMOOTH",
"307 625 OFFCURVE",
"310 644 QCURVE",
"310 662 LINE",
"196 656 OFFCURVE",
"179 656 QCURVE SMOOTH",
"171 656 OFFCURVE",
"45 662 QCURVE",
"43 660 OFFCURVE",
"40 642 QCURVE SMOOTH",
"37 625 OFFCURVE",
"40 625 QCURVE SMOOTH",
"50 625 OFFCURVE",
"90 608 OFFCURVE",
"93 600 QCURVE",
"96 590 OFFCURVE",
"85 522 QCURVE SMOOTH"
);
}
);
width = 679;
}
);
note = U;
unicode = 0055;
},
{
glyphname = V;
layers = (
{
layerId = "EE330C8E-4A1C-402A-831D-620872201BE1";
paths = (
{
closed = 1;
nodes = (
"129 656 OFFCURVE",
"18 662 QCURVE",
"10 650 OFFCURVE",
"10 634 QCURVE SMOOTH",
"10 625 OFFCURVE",
"13 625 QCURVE SMOOTH",
"26 625 OFFCURVE",
"71 609 OFFCURVE",
"74 592 QCURVE",
"75 580 OFFCURVE",
"87 522 OFFCURVE",
"89 510 QCURVE SMOOTH",
"181 3 LINE",
"186 -10 OFFCURVE",
"200 -10 QCURVE SMOOTH",
"209 -10 OFFCURVE",
"236 10 OFFCURVE",
"247 27 QCURVE SMOOTH",
"572 568 LINE SMOOTH",
"583 587 OFFCURVE",
"614 613 OFFCURVE",
"644 623 OFFCURVE",
"662 626 OFFCURVE",
"669 626 QCURVE SMOOTH",
"671 626 OFFCURVE",
"675 647 QCURVE",
"676 657 OFFCURVE",
"674 662 QCURVE",
"566 657 OFFCURVE",
"564 657 QCURVE SMOOTH",
"550 657 OFFCURVE",
"458 662 QCURVE",
"452 650 OFFCURVE",
"452 632 QCURVE SMOOTH",
"452 625 OFFCURVE",
"454 625 QCURVE SMOOTH",
"482 625 OFFCURVE",
"516 605 OFFCURVE",
"513 590 QCURVE SMOOTH",
"508 568 OFFCURVE",
"481 522 QCURVE SMOOTH",
"286 193 LINE",
"225 523 LINE SMOOTH",
"214 579 OFFCURVE",
"217 589 QCURVE",
"220 607 OFFCURVE",
"269 625 OFFCURVE",
"285 625 QCURVE SMOOTH",
"288 625 OFFCURVE",
"293 647 OFFCURVE",
"293 656 QCURVE SMOOTH",
"293 660 OFFCURVE",
"292 662 QCURVE",
"190 656 OFFCURVE",
"150 656 QCURVE SMOOTH"
);
}
);
width = 548;
}
);
note = V;
unicode = 0056;
},
{
glyphname = W;
layers = (
{
layerId = "EE330C8E-4A1C-402A-831D-620872201BE1";
paths = (
{
closed = 1;
nodes = (
"144 656 OFFCURVE",
"18 662 QCURVE",
"16 660 OFFCURVE",
"13 644 QCURVE SMOOTH",
"10 625 OFFCURVE",
"13 625 QCURVE SMOOTH",
"25 625 OFFCURVE",
"60 614 OFFCURVE",
"65 604 QCURVE SMOOTH",
"78 580 OFFCURVE",
"93 527 QCURVE SMOOTH",
"241 -8 LINE",
"243 -13 OFFCURVE",
"248 -13 QCURVE SMOOTH",
"254 -13 OFFCURVE",
"276 5 OFFCURVE",
"286 19 QCURVE SMOOTH",
"439 233 LINE",
"507 -8 LINE",
"509 -13 OFFCURVE",
"516 -13 QCURVE SMOOTH",
"522 -13 OFFCURVE",
"544 4 OFFCURVE",
"554 19 QCURVE SMOOTH",
"879 510 LINE SMOOTH",
"919 569 OFFCURVE",
"950 598 QCURVE SMOOTH",
"961 608 OFFCURVE",
"1007 626 OFFCURVE",
"1021 626 QCURVE SMOOTH",
"1028 626 OFFCURVE",
"1028 662 QCURVE",
"1016 661 OFFCURVE",
"971 658 OFFCURVE",
"932 656 OFFCURVE",
"911 656 QCURVE SMOOTH",
"888 656 OFFCURVE",
"801 662 QCURVE",
"793 656 OFFCURVE",
"793 639 QCURVE SMOOTH",
"793 626 OFFCURVE",
"795 626 QCURVE SMOOTH",
"803 626 OFFCURVE",
"829 622 OFFCURVE",
"857 606 OFFCURVE",
"855 594 QCURVE SMOOTH",
"852 579 OFFCURVE",
"829 544 QCURVE SMOOTH",
"788 482 OFFCURVE",
"597 198 OFFCURVE",
"595 197 QCURVE",
"543 372 LINE",
"635 510 LINE SMOOTH",
"672 565 OFFCURVE",
"704 596 QCURVE SMOOTH",
"715 606 OFFCURVE",
"764 626 OFFCURVE",
"778 626 QCURVE SMOOTH",
"781 626 OFFCURVE",
"786 656 OFFCURVE",
"785 662 QCURVE",
"671 656 OFFCURVE",
"667 656 QCURVE SMOOTH",
"645 656 OFFCURVE",
"558 662 QCURVE",
"550 656 OFFCURVE",
"550 637 QCURVE SMOOTH",
"550 626 OFFCURVE",
"552 626 QCURVE SMOOTH",
"558 626 OFFCURVE",
"576 624 OFFCURVE",
"600 618 OFFCURVE",
"616 604 OFFCURVE",
"614 594 QCURVE SMOOTH",
"612 584 OFFCURVE",
"585 542 QCURVE SMOOTH",
"523 447 LINE",
"491 562 LINE SMOOTH",
"485 585 OFFCURVE",
"486 593 QCURVE",
"489 610 OFFCURVE",
"520 625 OFFCURVE",
"535 625 QCURVE SMOOTH",
"538 625 OFFCURVE",
"542 647 OFFCURVE",
"542 656 QCURVE SMOOTH",
"542 661 OFFCURVE",
"542 662 QCURVE",
"428 656 OFFCURVE",
"418 656 QCURVE SMOOTH",
"416 656 OFFCURVE",
"290 662 QCURVE",
"288 660 OFFCURVE",
"285 644 QCURVE SMOOTH",
"282 625 OFFCURVE",
"285 625 QCURVE SMOOTH",
"316 625 OFFCURVE",
"334 600 QCURVE",
"341 591 OFFCURVE",
"359 527 QCURVE SMOOTH",
"419 310 LINE",
"397 280 LINE SMOOTH",
"376 251 OFFCURVE",
"330 191 OFFCURVE",
"329 192 QCURVE",
"328 192 OFFCURVE",
"225 560 QCURVE SMOOTH",
"219 583 OFFCURVE",
"220 591 QCURVE",
"226 625 OFFCURVE",
"270 625 QCURVE SMOOTH",
"273 625 OFFCURVE",
"277 648 OFFCURVE",
"277 657 QCURVE SMOOTH",
"277 661 OFFCURVE",
"277 662 QCURVE",
"163 656 OFFCURVE",
"149 656 QCURVE SMOOTH"
);
}
);
width = 1015;
}
);
note = W;
unicode = 0057;
},
{
glyphname = X;
layers = (
{
layerId = "EE330C8E-4A1C-402A-831D-620872201BE1";
paths = (
{
closed = 1;
nodes = (
"257 656 OFFCURVE",
"159 662 OFFCURVE",
"154 662 QCURVE",
"146 655 OFFCURVE",
"146 637 QCURVE SMOOTH",
"146 625 OFFCURVE",
"147 625 QCURVE SMOOTH",
"177 625 OFFCURVE",
"193 610 QCURVE SMOOTH",
"202 602 OFFCURVE",
"229 537 QCURVE SMOOTH",
"314 332 LINE",
"83 67 LINE SMOOTH",
"70 52 OFFCURVE",
"7 33 OFFCURVE",
"-5 33 QCURVE SMOOTH",
"-9 33 OFFCURVE",
"-13 10 QCURVE",
"-13 7 OFFCURVE",
"-12 -4 OFFCURVE",
"-12 -4 QCURVE",
"102 2 OFFCURVE",
"108 2 QCURVE SMOOTH",
"139 2 OFFCURVE",
"229 -4 QCURVE",
"233 4 OFFCURVE",
"234 12 QCURVE SMOOTH",
"237 33 OFFCURVE",
"234 33 QCURVE SMOOTH",
"210 33 OFFCURVE",
"168 51 OFFCURVE",
"171 66 QCURVE SMOOTH",
"172 71 OFFCURVE",
"203 110 OFFCURVE",
"251 167 OFFCURVE",
"294 215 OFFCURVE",
"339 267 OFFCURVE",
"341 269 QCURVE",
"424 72 LINE",
"426 66 OFFCURVE",
"424 61 QCURVE",
"422 49 OFFCURVE",
"379 33 OFFCURVE",
"367 33 QCURVE SMOOTH",
"364 33 OFFCURVE",
"357 13 OFFCURVE",
"357 5 QCURVE SMOOTH",
"357 -3 OFFCURVE",
"358 -4 QCURVE",
"377 -3 OFFCURVE",
"435 0 OFFCURVE",
"483 2 OFFCURVE",
"529 2 OFFCURVE",
"640 -4 QCURVE",
"645 6 OFFCURVE",
"646 11 QCURVE",
"646 12 OFFCURVE",
"649 27 OFFCURVE",
"649 31 OFFCURVE",
"648 33 QCURVE",
"636 33 OFFCURVE",
"590 54 OFFCURVE",
"577 76 QCURVE SMOOTH",
"567 94 OFFCURVE",
"455 356 QCURVE",
"673 586 LINE SMOOTH",
"693 606 OFFCURVE",
"751 625 OFFCURVE",
"764 625 QCURVE SMOOTH",
"767 625 OFFCURVE",
"773 646 OFFCURVE",
"773 655 QCURVE SMOOTH",
"773 661 OFFCURVE",
"772 662 QCURVE",
"658 656 OFFCURVE",
"647 656 QCURVE SMOOTH",
"635 656 OFFCURVE",
"533 662 QCURVE",
"525 655 OFFCURVE",
"525 636 QCURVE SMOOTH",
"525 625 OFFCURVE",
"526 625 QCURVE SMOOTH",
"551 625 OFFCURVE",
"591 606 OFFCURVE",
"589 594 QCURVE SMOOTH",
"588 587 OFFCURVE",
"567 559 OFFCURVE",
"530 518 OFFCURVE",
"494 480 OFFCURVE",
"445 429 OFFCURVE",
"431 414 QCURVE",
"360 582 LINE",
"355 592 OFFCURVE",
"357 604 QCURVE",
"360 614 OFFCURVE",
"396 625 OFFCURVE",
"410 625 QCURVE SMOOTH",
"413 625 OFFCURVE",
"419 645 OFFCURVE",
"419 654 QCURVE SMOOTH",
"419 656 OFFCURVE",
"419 661 OFFCURVE",
"419 662 QCURVE",
"305 656 OFFCURVE",
"284 656 QCURVE SMOOTH"
);
}
);
width = 761;
}
);
note = X;
unicode = 0058;
},
{
glyphname = Y;
layers = (
{
layerId = "EE330C8E-4A1C-402A-831D-620872201BE1";
paths = (
{
closed = 1;
nodes = (
"123 656 OFFCURVE",
"26 662 OFFCURVE",
"21 662 QCURVE",
"17 659 OFFCURVE",
"11 641 OFFCURVE",
"11 634 QCURVE SMOOTH",
"11 625 OFFCURVE",
"13 625 QCURVE SMOOTH",
"22 625 OFFCURVE",
"51 616 OFFCURVE",
"60 610 QCURVE",
"77 597 OFFCURVE",
"96 537 QCURVE SMOOTH",
"114 483 LINE SMOOTH",
"133 430 OFFCURVE",
"169 316 OFFCURVE",
"168 309 QCURVE",
"135 139 LINE SMOOTH",
"123 85 OFFCURVE",
"112 58 QCURVE",
"107 50 OFFCURVE",
"56 33 OFFCURVE",
"46 33 QCURVE SMOOTH",
"42 33 OFFCURVE",
"39 12 QCURVE",
"37 2 OFFCURVE",
"40 -4 QCURVE",
"52 -3 OFFCURVE",
"151 4 OFFCURVE",
"176 4 QCURVE SMOOTH",
"200 4 OFFCURVE",
"297 -4 OFFCURVE",
"304 -4 QCURVE",
"306 -1 OFFCURVE",
"309 14 QCURVE",
"312 33 OFFCURVE",
"309 33 QCURVE SMOOTH",
"301 33 OFFCURVE",
"257 51 OFFCURVE",
"257 58 QCURVE",
"255 93 OFFCURVE",
"266 145 QCURVE SMOOTH",
"297 304 LINE",
"299 317 OFFCURVE",
"485 556 OFFCURVE",
"515 590 QCURVE SMOOTH",
"531 608 OFFCURVE",
"578 626 OFFCURVE",
"595 626 QCURVE SMOOTH",
"599 626 OFFCURVE",
"602 644 QCURVE SMOOTH",
"603 649 OFFCURVE",
"603 662 QCURVE",
"522 656 OFFCURVE",
"497 656 QCURVE SMOOTH",
"469 656 OFFCURVE",
"385 662 QCURVE",
"377 655 OFFCURVE",
"377 634 QCURVE SMOOTH",
"377 625 OFFCURVE",
"379 625 QCURVE SMOOTH",
"407 625 OFFCURVE",
"436 613 OFFCURVE",
"434 603 QCURVE SMOOTH",
"429 581 OFFCURVE",
"289 403 QCURVE",
"226 582 LINE",
"221 594 OFFCURVE",
"223 604 QCURVE SMOOTH",
"225 614 OFFCURVE",
"263 625 OFFCURVE",
"277 625 QCURVE SMOOTH",
"279 625 OFFCURVE",
"285 644 OFFCURVE",
"285 653 QCURVE SMOOTH",
"285 660 OFFCURVE",
"284 662 QCURVE",
"170 656 OFFCURVE",
"151 656 QCURVE SMOOTH"
);
}
);
width = 590;
}
);
note = Y;
unicode = 0059;
},
{
glyphname = Z;
layers = (
{
layerId = "EE330C8E-4A1C-402A-831D-620872201BE1";
paths = (
{
closed = 1;
nodes = (
"176 656 OFFCURVE",
"155 662 QCURVE",
"135 594 OFFCURVE",
"92 482 QCURVE",
"95 478 OFFCURVE",
"122 478 QCURVE SMOOTH",
"131 478 OFFCURVE",
"135 484 QCURVE",
"137 488 OFFCURVE",
"141 495 QCURVE SMOOTH",
"156 523 OFFCURVE",
"173 550 OFFCURVE",
"207 584 OFFCURVE",
"255 599 OFFCURVE",
"288 599 QCURVE SMOOTH",
"447 599 LINE",
"-4 43 LINE",
"-9 38 OFFCURVE",
"-11 26 QCURVE",
"-15 12 OFFCURVE",
"-8 0 QCURVE",
"473 0 LINE",
"480 21 OFFCURVE",
"504 72 OFFCURVE",
"549 157 OFFCURVE",
"557 174 QCURVE",
"552 180 OFFCURVE",
"529 180 QCURVE SMOOTH",
"519 180 OFFCURVE",
"516 174 QCURVE SMOOTH",
"491 125 OFFCURVE",
"394 57 OFFCURVE",
"329 57 QCURVE SMOOTH",
"181 57 LINE SMOOTH",
"175 57 OFFCURVE",
"169 62 OFFCURVE",
"170 67 QCURVE",
"171 71 OFFCURVE",
"180 82 QCURVE SMOOTH",
"291 218 LINE SMOOTH",
"402 354 OFFCURVE",
"625 629 OFFCURVE",
"626 633 QCURVE SMOOTH",
"628 640 OFFCURVE",
"626 665 OFFCURVE",
"623 666 QCURVE",
"491 656 OFFCURVE",
"406 656 QCURVE SMOOTH",
"304 656 LINE SMOOTH"
);
}
);
width = 615;
}
);
note = Z;
unicode = 005A;
},
{
glyphname = bracketleft;
layers = (
{
layerId = "EE330C8E-4A1C-402A-831D-620872201BE1";
paths = (
{
closed = 1;
nodes = (
"200 -79 OFFCURVE",
"140 -60 OFFCURVE",
"124 -60 QCURVE SMOOTH",
"116 -60 OFFCURVE",
"118 -52 QCURVE",
"266 711 LINE SMOOTH",
"268 720 OFFCURVE",
"276 720 QCURVE SMOOTH",
"293 720 OFFCURVE",
"362 740 OFFCURVE",
"386 752 QCURVE SMOOTH",
"402 760 OFFCURVE",
"402 784 QCURVE SMOOTH",
"402 793 OFFCURVE",
"398 793 QCURVE",
"283 770 OFFCURVE",
"181 770 QCURVE SMOOTH",
"173 770 OFFCURVE",
"162 758 OFFCURVE",
"159 749 OFFCURVE",
"159 747 QCURVE",
"-4 -87 LINE",
"-4 -110 OFFCURVE",
"10 -110 QCURVE SMOOTH",
"96 -110 OFFCURVE",
"218 -133 QCURVE",
"226 -130 OFFCURVE",
"229 -96 OFFCURVE",
"222 -92 QCURVE SMOOTH"
);
}
);
width = 391;
}
);
note = bracketleft;
unicode = 005B;
},
{
glyphname = backslash;
layers = (
{
layerId = "EE330C8E-4A1C-402A-831D-620872201BE1";
paths = (
{
closed = 1;
nodes = (
"25 761 OFFCURVE",
"18 755 QCURVE",
"155 -37 LINE",
"177 -39 LINE",
"190 -39 OFFCURVE",
"216 -17 OFFCURVE",
"216 7 QCURVE SMOOTH",
"216 9 OFFCURVE",
"216 11 QCURVE",
"215 13 OFFCURVE",
"215 13 QCURVE",
"89 739 LINE",
"83 761 OFFCURVE",
"38 761 QCURVE SMOOTH"
);
}
);
width = 250;
}
);
note = backslash;
unicode = 005C;
},
{
glyphname = bracketright;
layers = (
{
layerId = "EE330C8E-4A1C-402A-831D-620872201BE1";
paths = (
{
closed = 1;
nodes = (
"-15 -100 OFFCURVE",
"-15 -126 QCURVE SMOOTH",
"-15 -132 OFFCURVE",
"-12 -133 QCURVE",
"119 -110 OFFCURVE",
"206 -110 QCURVE SMOOTH",
"214 -110 OFFCURVE",
"225 -98 OFFCURVE",
"228 -89 OFFCURVE",
"228 -87 QCURVE",
"390 747 LINE",
"390 753 LINE SMOOTH",
"390 770 OFFCURVE",
"377 770 QCURVE SMOOTH",
"273 770 OFFCURVE",
"168 793 QCURVE",
"166 793 OFFCURVE",
"159 778 OFFCURVE",
"158 759 OFFCURVE",
"164 752 QCURVE",
"183 740 OFFCURVE",
"244 720 OFFCURVE",
"262 720 QCURVE SMOOTH",
"271 720 OFFCURVE",
"269 711 QCURVE SMOOTH",
"120 -52 LINE",
"118 -60 OFFCURVE",
"111 -60 QCURVE SMOOTH",
"95 -60 OFFCURVE",
"26 -79 OFFCURVE",
"0 -92 QCURVE SMOOTH"
);
}
);
width = 385;
}
);
note = bracketright;
unicode = 005D;
},
{
glyphname = asciicircum;
layers = (
{
layerId = "EE330C8E-4A1C-402A-831D-620872201BE1";
paths = (
{
closed = 1;
nodes = (
"44 469 OFFCURVE",
"50 469 QCURVE SMOOTH",
"63 469 OFFCURVE",
"165 542 OFFCURVE",
"201 582 QCURVE",
"225 542 OFFCURVE",
"297 469 OFFCURVE",
"309 469 QCURVE SMOOTH",
"313 469 OFFCURVE",
"325 494 OFFCURVE",
"327 500 QCURVE",
"327 502 OFFCURVE",
"304 533 OFFCURVE",
"275 575 OFFCURVE",
"268 588 QCURVE SMOOTH",
"252 620 OFFCURVE",
"235 676 OFFCURVE",
"228 690 OFFCURVE",
"218 690 QCURVE SMOOTH",
"216 690 OFFCURVE",
"213 689 OFFCURVE",
"211 687 OFFCURVE",
"210 684 OFFCURVE",
"207 679 OFFCURVE",
"206 677 QCURVE",
"182 639 OFFCURVE",
"123 571 OFFCURVE",
"80 532 OFFCURVE",
"46 503 OFFCURVE",
"44 499 QCURVE"
);
}
);
width = 352;
}
);
note = asciicircum;
unicode = 005E;
},
{
glyphname = underscore;
layers = (
{
layerId = "EE330C8E-4A1C-402A-831D-620872201BE1";
paths = (
{
closed = 1;
nodes = (
"27 -45 LINE",
"441 -45 LINE",
"442 -45 LINE SMOOTH",
"444 -45 OFFCURVE",
"449 -42 OFFCURVE",
"450 -39 QCURVE",
"465 -6 OFFCURVE",
"465 9 QCURVE SMOOTH",
"465 17 OFFCURVE",
"463 17 QCURVE SMOOTH",
"45 17 LINE SMOOTH",
"31 17 OFFCURVE",
"22 -35 QCURVE"
);
}
);
width = 519;
}
);
note = underscore;
unicode = 005F;
},
{
glyphname = grave;
layers = (
{
layerId = "EE330C8E-4A1C-402A-831D-620872201BE1";
paths = (
{
closed = 1;
nodes = (
"48 627 OFFCURVE",
"156 522 OFFCURVE",
"167 522 QCURVE SMOOTH",
"172 522 OFFCURVE",
"186 537 OFFCURVE",
"186 540 QCURVE SMOOTH",
"186 547 OFFCURVE",
"143 650 OFFCURVE",
"126 678 QCURVE",
"119 687 OFFCURVE",
"97 687 QCURVE SMOOTH",
"76 687 OFFCURVE",
"48 665 OFFCURVE",
"48 654 QCURVE SMOOTH"
);
}
);
width = 210;
}
);
note = grave;
unicode = 0060;
},
{
glyphname = a;
layers = (
{
layerId = "EE330C8E-4A1C-402A-831D-620872201BE1";
paths = (
{
closed = 1;
nodes = (
"258 449 OFFCURVE",
"138 391 OFFCURVE",
"57 300 OFFCURVE",
"8 191 OFFCURVE",
"8 140 QCURVE SMOOTH",
"8 74 OFFCURVE",
"70 -8 OFFCURVE",
"125 -8 QCURVE SMOOTH",
"187 -8 OFFCURVE",
"234 76 QCURVE",
"233 71 OFFCURVE",
"232 59 QCURVE",
"232 53 OFFCURVE",
"232 46 QCURVE SMOOTH",
"232 21 OFFCURVE",
"262 -8 OFFCURVE",
"285 -8 QCURVE SMOOTH",
"327 -8 OFFCURVE",
"448 83 OFFCURVE",
"459 110 QCURVE",
"459 114 OFFCURVE",
"442 134 OFFCURVE",
"440 134 QCURVE",
"431 123 OFFCURVE",
"381 81 OFFCURVE",
"367 81 QCURVE SMOOTH",
"357 81 OFFCURVE",
"357 105 QCURVE SMOOTH",
"357 122 OFFCURVE",
"359 128 QCURVE",
"417 427 LINE",
"406 435 OFFCURVE",
"355 449 OFFCURVE",
"323 449 QCURVE SMOOTH"
);
},
{
closed = 1;
nodes = (
"285 385 OFFCURVE",
"292 378 QCURVE",
"274 288 LINE SMOOTH",
"258 207 OFFCURVE",
"194 68 OFFCURVE",
"162 68 QCURVE SMOOTH",
"131 68 OFFCURVE",
"131 124 QCURVE SMOOTH",
"131 153 OFFCURVE",
"149 238 OFFCURVE",
"182 324 OFFCURVE",
"235 385 OFFCURVE",
"265 385 QCURVE SMOOTH"
);
}
);
width = 462;
}
);
note = a;
unicode = 0061;
},
{
glyphname = b;
layers = (
{
layerId = "EE330C8E-4A1C-402A-831D-620872201BE1";
paths = (
{
closed = 1;
nodes = (
"277 449 OFFCURVE",
"237 429 OFFCURVE",
"202 393 OFFCURVE",
"184 369 OFFCURVE",
"173 352 QCURVE",
"170 348 OFFCURVE",
"169 346 QCURVE",
"215 584 LINE SMOOTH",
"232 660 OFFCURVE",
"232 673 QCURVE SMOOTH",
"232 690 OFFCURVE",
"222 695 QCURVE",
"196 684 OFFCURVE",
"81 656 OFFCURVE",
"57 656 QCURVE",
"48 647 OFFCURVE",
"48 633 QCURVE SMOOTH",
"48 625 OFFCURVE",
"51 625 QCURVE SMOOTH",
"100 625 OFFCURVE",
"100 603 QCURVE SMOOTH",
"100 590 OFFCURVE",
"91 544 QCURVE SMOOTH",
"17 162 LINE SMOOTH",
"11 130 OFFCURVE",
"11 107 QCURVE SMOOTH",
"11 56 OFFCURVE",
"76 -10 OFFCURVE",
"124 -10 QCURVE SMOOTH",
"167 -10 OFFCURVE",
"263 37 OFFCURVE",
"346 116 OFFCURVE",
"401 237 OFFCURVE",
"401 303 QCURVE SMOOTH",
"401 449 OFFCURVE",
"299 449 QCURVE SMOOTH"
);
},
{
closed = 1;
nodes = (
"279 363 OFFCURVE",
"279 296 QCURVE SMOOTH",
"279 247 OFFCURVE",
"246 132 OFFCURVE",
"189 47 OFFCURVE",
"159 47 QCURVE SMOOTH",
"134 47 OFFCURVE",
"123 125 OFFCURVE",
"134 167 QCURVE",
"147 238 OFFCURVE",
"217 363 OFFCURVE",
"249 363 QCURVE SMOOTH"
);
}
);
width = 410;
}
);
note = b;
unicode = 0062;
},
{
glyphname = c;
layers = (
{
layerId = "EE330C8E-4A1C-402A-831D-620872201BE1";
paths = (
{
closed = 1;
nodes = (
"190 449 OFFCURVE",
"77 367 OFFCURVE",
"9 230 OFFCURVE",
"9 156 QCURVE SMOOTH",
"9 81 OFFCURVE",
"80 -6 OFFCURVE",
"154 -6 QCURVE SMOOTH",
"201 -6 OFFCURVE",
"307 74 OFFCURVE",
"319 102 QCURVE",
"319 106 OFFCURVE",
"302 126 OFFCURVE",
"300 126 QCURVE",
"289 111 OFFCURVE",
"229 68 OFFCURVE",
"199 68 QCURVE SMOOTH",
"135 68 OFFCURVE",
"135 169 QCURVE SMOOTH",
"135 218 OFFCURVE",
"164 322 OFFCURVE",
"214 394 OFFCURVE",
"241 394 QCURVE SMOOTH",
"256 394 OFFCURVE",
"276 368 OFFCURVE",
"285 336 OFFCURVE",
"307 310 OFFCURVE",
"324 310 QCURVE SMOOTH",
"345 310 OFFCURVE",
"371 346 OFFCURVE",
"371 371 QCURVE SMOOTH",
"371 383 OFFCURVE",
"364 404 QCURVE",
"324 449 OFFCURVE",
"252 449 QCURVE SMOOTH"
);
}
);
width = 371;
}
);
note = c;
unicode = 0063;
},
{
glyphname = d;
layers = (
{
layerId = "EE330C8E-4A1C-402A-831D-620872201BE1";
paths = (
{
closed = 1;
nodes = (
"236 444 OFFCURVE",
"125 383 OFFCURVE",
"49 295 OFFCURVE",
"5 190 OFFCURVE",
"5 140 QCURVE SMOOTH",
"5 74 OFFCURVE",
"68 -8 OFFCURVE",
"122 -8 QCURVE SMOOTH",
"184 -8 OFFCURVE",
"232 76 QCURVE",
"231 71 OFFCURVE",
"230 61 QCURVE",
"229 54 OFFCURVE",
"229 46 QCURVE SMOOTH",
"229 21 OFFCURVE",
"260 -8 OFFCURVE",
"282 -8 QCURVE SMOOTH",
"325 -8 OFFCURVE",
"446 83 OFFCURVE",
"456 110 QCURVE",
"456 114 OFFCURVE",
"440 134 OFFCURVE",
"437 134 QCURVE",
"429 123 OFFCURVE",
"379 81 OFFCURVE",
"364 81 QCURVE SMOOTH",
"354 81 OFFCURVE",
"354 105 QCURVE SMOOTH",
"354 122 OFFCURVE",
"356 128 QCURVE",
"445 586 LINE SMOOTH",
"446 592 OFFCURVE",
"455 632 OFFCURVE",
"462 667 OFFCURVE",
"462 673 QCURVE SMOOTH",
"462 690 OFFCURVE",
"452 695 QCURVE",
"427 684 OFFCURVE",
"312 656 OFFCURVE",
"287 656 QCURVE",
"278 647 OFFCURVE",
"278 633 QCURVE SMOOTH",
"278 625 OFFCURVE",
"281 625 QCURVE SMOOTH",
"330 625 OFFCURVE",
"330 603 QCURVE SMOOTH",
"330 595 OFFCURVE",
"321 541 QCURVE",
"302 448 LINE",
"300 448 OFFCURVE",
"297 448 QCURVE"
);
},
{
closed = 1;
nodes = (
"272 288 LINE SMOOTH",
"254 203 OFFCURVE",
"192 68 OFFCURVE",
"159 68 QCURVE SMOOTH",
"128 68 OFFCURVE",
"128 124 QCURVE SMOOTH",
"128 153 OFFCURVE",
"147 238 OFFCURVE",
"179 324 OFFCURVE",
"233 385 OFFCURVE",
"262 385 QCURVE SMOOTH",
"272 385 OFFCURVE",
"288 373 OFFCURVE",
"286 360 QCURVE"
);
}
);
width = 465;
}
);
note = d;
unicode = 0064;
},
{
glyphname = e;
layers = (
{
layerId = "EE330C8E-4A1C-402A-831D-620872201BE1";
paths = (
{
closed = 1;
nodes = (
"189 449 OFFCURVE",
"76 365 OFFCURVE",
"9 229 OFFCURVE",
"9 157 QCURVE SMOOTH",
"9 79 OFFCURVE",
"82 -6 OFFCURVE",
"154 -6 QCURVE SMOOTH",
"201 -6 OFFCURVE",
"307 74 OFFCURVE",
"319 102 QCURVE",
"319 106 OFFCURVE",
"302 126 OFFCURVE",
"300 126 QCURVE",
"289 111 OFFCURVE",
"229 68 OFFCURVE",
"199 68 QCURVE SMOOTH",
"170 68 OFFCURVE",
"135 110 OFFCURVE",
"135 169 QCURVE SMOOTH",
"135 179 OFFCURVE",
"139 179 QCURVE SMOOTH",
"160 179 OFFCURVE",
"237 205 OFFCURVE",
"319 249 OFFCURVE",
"379 319 OFFCURVE",
"379 356 QCURVE SMOOTH",
"379 399 OFFCURVE",
"303 449 OFFCURVE",
"251 449 QCURVE SMOOTH"
);
},
{
closed = 1;
nodes = (
"265 395 OFFCURVE",
"265 356 QCURVE SMOOTH",
"265 315 OFFCURVE",
"197 229 OFFCURVE",
"150 229 QCURVE SMOOTH",
"146 229 OFFCURVE",
"146 233 QCURVE SMOOTH",
"146 286 OFFCURVE",
"215 395 OFFCURVE",
"241 395 QCURVE SMOOTH"
);
}
);
width = 393;
}
);
note = e;
unicode = 0065;
},
{
glyphname = f;
layers = (
{
layerId = "EE330C8E-4A1C-402A-831D-620872201BE1";
paths = (
{
closed = 1;
nodes = (
"308 695 OFFCURVE",
"164 560 OFFCURVE",
"142 446 QCURVE SMOOTH",
"139 430 OFFCURVE",
"133 430 QCURVE SMOOTH",
"116 430 LINE SMOOTH",
"96 430 OFFCURVE",
"59 391 OFFCURVE",
"59 380 QCURVE SMOOTH",
"59 370 OFFCURVE",
"64 370 QCURVE SMOOTH",
"123 370 LINE SMOOTH",
"127 370 OFFCURVE",
"127 365 QCURVE SMOOTH",
"127 363 LINE",
"55 2 LINE SMOOTH",
"41 -72 OFFCURVE",
"-1 -163 OFFCURVE",
"-37 -163 QCURVE SMOOTH",
"-50 -163 OFFCURVE",
"-69 -141 OFFCURVE",
"-79 -114 OFFCURVE",
"-98 -92 OFFCURVE",
"-112 -92 QCURVE SMOOTH",
"-168 -92 OFFCURVE",
"-168 -179 QCURVE",
"-164 -193 OFFCURVE",
"-114 -218 OFFCURVE",
"-78 -218 QCURVE SMOOTH",
"-43 -218 OFFCURVE",
"30 -192 OFFCURVE",
"106 -133 OFFCURVE",
"169 -18 OFFCURVE",
"184 60 QCURVE SMOOTH",
"243 364 LINE",
"245 370 OFFCURVE",
"250 370 QCURVE SMOOTH",
"370 370 LINE",
"384 394 OFFCURVE",
"384 414 QCURVE SMOOTH",
"384 429 OFFCURVE",
"374 429 QCURVE SMOOTH",
"259 429 LINE SMOOTH",
"256 429 OFFCURVE",
"256 433 QCURVE SMOOTH",
"256 434 LINE",
"274 526 OFFCURVE",
"333 640 OFFCURVE",
"365 640 QCURVE SMOOTH",
"378 640 OFFCURVE",
"396 616 OFFCURVE",
"406 586 OFFCURVE",
"426 562 OFFCURVE",
"440 562 QCURVE SMOOTH",
"499 562 OFFCURVE",
"499 662 QCURVE",
"470 695 OFFCURVE",
"406 695 QCURVE SMOOTH"
);
}
);
width = 417;
}
);
note = f;
unicode = 0066;
},
{
glyphname = g;
layers = (
{
layerId = "EE330C8E-4A1C-402A-831D-620872201BE1";
paths = (
{
closed = 1;
nodes = (
"286 -127 OFFCURVE",
"239 -169 OFFCURVE",
"183 -169 QCURVE SMOOTH",
"130 -169 OFFCURVE",
"85 -130 OFFCURVE",
"85 -99 QCURVE SMOOTH",
"85 -62 OFFCURVE",
"143 -45 QCURVE",
"184 -49 OFFCURVE",
"286 -80 OFFCURVE",
"286 -97 QCURVE SMOOTH"
);
},
{
closed = 1;
nodes = (
"279 388 OFFCURVE",
"299 357 OFFCURVE",
"299 331 QCURVE SMOOTH",
"299 308 OFFCURVE",
"292 256 OFFCURVE",
"277 201 OFFCURVE",
"246 166 OFFCURVE",
"226 166 QCURVE SMOOTH",
"188 166 OFFCURVE",
"188 217 QCURVE SMOOTH",
"188 254 OFFCURVE",
"203 330 OFFCURVE",
"237 388 OFFCURVE",
"261 388 QCURVE SMOOTH"
);
},
{
closed = 1;
nodes = (
"199 449 OFFCURVE",
"74 327 OFFCURVE",
"74 247 QCURVE SMOOTH",
"74 139 OFFCURVE",
"160 116 QCURVE",
"114 96 OFFCURVE",
"43 50 OFFCURVE",
"43 32 QCURVE SMOOTH",
"43 7 OFFCURVE",
"68 -11 QCURVE SMOOTH",
"83 -22 OFFCURVE",
"100 -27 QCURVE",
"82 -31 OFFCURVE",
"47 -43 OFFCURVE",
"8 -64 OFFCURVE",
"-15 -96 OFFCURVE",
"-15 -115 QCURVE SMOOTH",
"-15 -158 OFFCURVE",
"81 -218 OFFCURVE",
"151 -218 QCURVE SMOOTH",
"217 -218 OFFCURVE",
"317 -183 OFFCURVE",
"370 -129 OFFCURVE",
"395 -74 OFFCURVE",
"395 -48 QCURVE SMOOTH",
"395 -15 OFFCURVE",
"327 30 OFFCURVE",
"244 46 OFFCURVE",
"176 60 OFFCURVE",
"176 66 QCURVE SMOOTH",
"176 78 OFFCURVE",
"224 102 OFFCURVE",
"301 131 OFFCURVE",
"321 144 QCURVE SMOOTH",
"415 205 OFFCURVE",
"415 312 QCURVE SMOOTH",
"415 328 OFFCURVE",
"411 364 OFFCURVE",
"411 365 QCURVE SMOOTH",
"411 371 OFFCURVE",
"417 371 QCURVE SMOOTH",
"468 371 LINE",
"478 389 OFFCURVE",
"478 409 QCURVE SMOOTH",
"478 422 OFFCURVE",
"469 422 QCURVE SMOOTH",
"416 422 LINE SMOOTH",
"381 422 OFFCURVE",
"308 449 OFFCURVE",
"283 449 QCURVE SMOOTH"
);
}
);
width = 465;
}
);
note = g;
unicode = 0067;
},
{
glyphname = h;
layers = (
{
layerId = "EE330C8E-4A1C-402A-831D-620872201BE1";
paths = (
{
closed = 1;
nodes = (
"284 449 OFFCURVE",
"199 356 OFFCURVE",
"174 304 QCURVE",
"174 307 OFFCURVE",
"228 584 QCURVE SMOOTH",
"229 590 OFFCURVE",
"238 631 OFFCURVE",
"245 667 OFFCURVE",
"245 673 QCURVE SMOOTH",
"245 690 OFFCURVE",
"235 695 QCURVE",
"209 684 OFFCURVE",
"94 656 OFFCURVE",
"70 656 QCURVE",
"61 647 OFFCURVE",
"61 633 QCURVE SMOOTH",
"61 625 OFFCURVE",
"64 625 QCURVE SMOOTH",
"113 625 OFFCURVE",
"113 603 QCURVE SMOOTH",
"113 594 OFFCURVE",
"-2 0 QCURVE",
"24 -6 OFFCURVE",
"59 -6 QCURVE SMOOTH",
"95 -6 OFFCURVE",
"115 0 QCURVE",
"136 105 LINE SMOOTH",
"149 171 OFFCURVE",
"230 341 OFFCURVE",
"255 341 QCURVE SMOOTH",
"271 341 OFFCURVE",
"284 321 OFFCURVE",
"284 300 QCURVE SMOOTH",
"284 295 OFFCURVE",
"280 272 OFFCURVE",
"274 246 OFFCURVE",
"274 242 QCURVE",
"251 123 LINE SMOOTH",
"241 78 OFFCURVE",
"241 49 QCURVE SMOOTH",
"241 21 OFFCURVE",
"271 -8 OFFCURVE",
"294 -8 QCURVE SMOOTH",
"336 -8 OFFCURVE",
"457 83 OFFCURVE",
"468 110 QCURVE",
"468 114 OFFCURVE",
"451 134 OFFCURVE",
"449 134 QCURVE",
"440 123 OFFCURVE",
"390 81 OFFCURVE",
"376 81 QCURVE SMOOTH",
"366 81 OFFCURVE",
"366 105 QCURVE SMOOTH",
"366 122 OFFCURVE",
"368 128 QCURVE",
"388 233 LINE SMOOTH",
"404 316 OFFCURVE",
"404 340 QCURVE SMOOTH",
"404 387 OFFCURVE",
"362 449 OFFCURVE",
"318 449 QCURVE SMOOTH"
);
}
);
width = 469;
}
);
note = h;
unicode = 0068;
},
{
glyphname = i;
layers = (
{
layerId = "EE330C8E-4A1C-402A-831D-620872201BE1";
paths = (
{
closed = 1;
nodes = (
"133 449 OFFCURVE",
"12 358 OFFCURVE",
"1 331 QCURVE",
"1 327 OFFCURVE",
"18 307 OFFCURVE",
"20 307 QCURVE",
"28 318 OFFCURVE",
"79 360 OFFCURVE",
"93 360 QCURVE SMOOTH",
"103 360 OFFCURVE",
"103 336 QCURVE SMOOTH",
"103 323 OFFCURVE",
"101 313 QCURVE SMOOTH",
"64 123 LINE",
"62 115 OFFCURVE",
"54 60 OFFCURVE",
"54 49 QCURVE SMOOTH",
"54 21 OFFCURVE",
"85 -8 OFFCURVE",
"107 -8 QCURVE SMOOTH",
"149 -8 OFFCURVE",
"270 83 OFFCURVE",
"281 110 QCURVE",
"281 114 OFFCURVE",
"265 134 OFFCURVE",
"262 134 QCURVE",
"254 123 OFFCURVE",
"203 81 OFFCURVE",
"189 81 QCURVE SMOOTH",
"179 81 OFFCURVE",
"179 105 QCURVE SMOOTH",
"179 122 OFFCURVE",
"181 128 QCURVE",
"218 318 LINE",
"220 326 OFFCURVE",
"228 381 OFFCURVE",
"228 392 QCURVE SMOOTH",
"228 420 OFFCURVE",
"198 449 OFFCURVE",
"175 449 QCURVE SMOOTH"
);
},
{
closed = 1;
nodes = (
"176 687 OFFCURVE",
"129 636 OFFCURVE",
"129 603 QCURVE SMOOTH",
"129 576 OFFCURVE",
"162 540 OFFCURVE",
"187 540 QCURVE SMOOTH",
"218 540 OFFCURVE",
"265 592 OFFCURVE",
"265 625 QCURVE SMOOTH",
"265 651 OFFCURVE",
"232 687 OFFCURVE",
"207 687 QCURVE SMOOTH"
);
}
);
width = 286;
}
);
note = i;
unicode = 0069;
},
{
glyphname = j;
layers = (
{
layerId = "EE330C8E-4A1C-402A-831D-620872201BE1";
paths = (
{
closed = 1;
nodes = (
"208 449 OFFCURVE",
"87 358 OFFCURVE",
"76 331 QCURVE",
"76 327 OFFCURVE",
"93 307 OFFCURVE",
"95 307 QCURVE",
"104 318 OFFCURVE",
"154 360 OFFCURVE",
"168 360 QCURVE SMOOTH",
"178 360 OFFCURVE",
"178 336 QCURVE SMOOTH",
"178 323 OFFCURVE",
"176 313 QCURVE SMOOTH",
"135 100 LINE SMOOTH",
"113 -14 OFFCURVE",
"59 -122 OFFCURVE",
"-8 -181 QCURVE",
"-8 -189 OFFCURVE",
"2 -218 OFFCURVE",
"5 -218 QCURVE",
"33 -210 OFFCURVE",
"141 -140 OFFCURVE",
"169 -102 QCURVE SMOOTH",
"228 -23 OFFCURVE",
"255 120 QCURVE SMOOTH",
"293 318 LINE",
"295 326 OFFCURVE",
"303 381 OFFCURVE",
"303 392 QCURVE SMOOTH",
"303 420 OFFCURVE",
"273 449 OFFCURVE",
"250 449 QCURVE SMOOTH"
);
},
{
closed = 1;
nodes = (
"264 689 OFFCURVE",
"217 637 OFFCURVE",
"217 604 QCURVE SMOOTH",
"217 577 OFFCURVE",
"250 541 OFFCURVE",
"275 541 QCURVE SMOOTH",
"307 541 OFFCURVE",
"353 593 OFFCURVE",
"353 626 QCURVE SMOOTH",
"353 653 OFFCURVE",
"321 689 OFFCURVE",
"295 689 QCURVE SMOOTH"
);
}
);
width = 341;
}
);
note = j;
unicode = 006A;
},
{
glyphname = k;
layers = (
{
layerId = "EE330C8E-4A1C-402A-831D-620872201BE1";
paths = (
{
closed = 1;
nodes = (
"290 449 OFFCURVE",
"240 426 OFFCURVE",
"206 388 OFFCURVE",
"188 360 OFFCURVE",
"182 346 QCURVE",
"227 584 LINE SMOOTH",
"228 590 OFFCURVE",
"237 631 OFFCURVE",
"244 667 OFFCURVE",
"244 673 QCURVE SMOOTH",
"244 690 OFFCURVE",
"234 695 QCURVE",
"208 684 OFFCURVE",
"93 656 OFFCURVE",
"69 656 QCURVE",
"60 647 OFFCURVE",
"60 633 QCURVE SMOOTH",
"60 625 OFFCURVE",
"63 625 QCURVE SMOOTH",
"112 625 OFFCURVE",
"112 603 QCURVE SMOOTH",
"112 590 OFFCURVE",
"103 544 QCURVE SMOOTH",
"-2 0 LINE",
"30 -8 OFFCURVE",
"59 -8 QCURVE SMOOTH",
"96 -8 OFFCURVE",
"114 0 QCURVE",
"152 196 LINE",
"154 192 OFFCURVE",
"158 183 QCURVE",
"172 155 OFFCURVE",
"190 121 OFFCURVE",
"228 61 OFFCURVE",
"260 25 OFFCURVE",
"303 -4 OFFCURVE",
"324 -4 QCURVE SMOOTH",
"374 -4 OFFCURVE",
"462 68 OFFCURVE",
"473 96 QCURVE",
"473 99 OFFCURVE",
"450 119 OFFCURVE",
"448 119 QCURVE",
"438 106 OFFCURVE",
"389 67 OFFCURVE",
"372 67 QCURVE SMOOTH",
"351 67 OFFCURVE",
"293 156 OFFCURVE",
"276 200 QCURVE",
"308 204 OFFCURVE",
"382 243 OFFCURVE",
"440 316 OFFCURVE",
"440 357 QCURVE SMOOTH",
"440 399 OFFCURVE",
"367 449 OFFCURVE",
"320 449 QCURVE SMOOTH"
);
},
{
closed = 1;
nodes = (
"294 376 OFFCURVE",
"315 348 OFFCURVE",
"315 333 QCURVE SMOOTH",
"315 313 OFFCURVE",
"295 274 OFFCURVE",
"278 262 QCURVE SMOOTH",
"246 241 OFFCURVE",
"198 241 QCURVE SMOOTH",
"165 241 OFFCURVE",
"165 253 QCURVE SMOOTH",
"165 278 OFFCURVE",
"239 376 OFFCURVE",
"278 376 QCURVE SMOOTH"
);
}
);
width = 462;
}
);
note = k;
unicode = 006B;
},
{
glyphname = l;
layers = (
{
layerId = "EE330C8E-4A1C-402A-831D-620872201BE1";
paths = (
{
closed = 1;
nodes = (
"13 115 OFFCURVE",
"5 60 OFFCURVE",
"5 49 QCURVE SMOOTH",
"5 21 OFFCURVE",
"36 -8 OFFCURVE",
"58 -8 QCURVE SMOOTH",
"101 -8 OFFCURVE",
"222 83 OFFCURVE",
"232 110 QCURVE",
"232 114 OFFCURVE",
"216 134 OFFCURVE",
"213 134 QCURVE",
"205 123 OFFCURVE",
"155 81 OFFCURVE",
"140 81 QCURVE SMOOTH",
"130 81 OFFCURVE",
"130 105 QCURVE SMOOTH",
"130 118 OFFCURVE",
"132 128 QCURVE SMOOTH",
"221 584 LINE",
"222 588 OFFCURVE",
"232 632 OFFCURVE",
"238 667 OFFCURVE",
"238 673 QCURVE SMOOTH",
"238 690 OFFCURVE",
"228 695 QCURVE",
"203 684 OFFCURVE",
"88 656 OFFCURVE",
"63 656 QCURVE",
"54 647 OFFCURVE",
"54 633 QCURVE SMOOTH",
"54 625 OFFCURVE",
"57 625 QCURVE SMOOTH",
"106 625 OFFCURVE",
"106 603 QCURVE SMOOTH",
"106 591 OFFCURVE",
"97 544 QCURVE SMOOTH",
"15 123 LINE"
);
}
);
width = 241;
}
);
note = l;
unicode = 006C;
},
{
glyphname = m;
layers = (
{
layerId = "EE330C8E-4A1C-402A-831D-620872201BE1";
paths = (
{
closed = 1;
nodes = (
"327 449 OFFCURVE",
"243 355 OFFCURVE",
"217 302 QCURVE",
"221 328 LINE SMOOTH",
"229 380 OFFCURVE",
"229 392 QCURVE SMOOTH",
"229 420 OFFCURVE",
"199 449 OFFCURVE",
"176 449 QCURVE SMOOTH",
"134 449 OFFCURVE",
"13 358 OFFCURVE",
"2 331 QCURVE",
"2 327 OFFCURVE",
"19 307 OFFCURVE",
"21 307 QCURVE",
"29 318 OFFCURVE",
"80 360 OFFCURVE",
"94 360 QCURVE SMOOTH",
"104 360 OFFCURVE",
"104 336 QCURVE SMOOTH",
"104 323 OFFCURVE",
"102 313 QCURVE SMOOTH",
"42 0 LINE",
"66 -6 OFFCURVE",
"101 -6 QCURVE SMOOTH",
"137 -6 OFFCURVE",
"157 0 QCURVE",
"178 105 LINE SMOOTH",
"192 171 OFFCURVE",
"272 341 OFFCURVE",
"297 341 QCURVE SMOOTH",
"327 341 OFFCURVE",
"327 300 QCURVE SMOOTH",
"327 285 OFFCURVE",
"317 242 QCURVE SMOOTH",
"269 0 LINE",
"290 -6 OFFCURVE",
"328 -6 QCURVE SMOOTH",
"367 -6 OFFCURVE",
"387 0 QCURVE",
"408 105 LINE SMOOTH",
"422 171 OFFCURVE",
"502 341 OFFCURVE",
"527 341 QCURVE SMOOTH",
"558 341 OFFCURVE",
"556 300 QCURVE",
"556 292 OFFCURVE",
"546 242 QCURVE SMOOTH",
"523 123 LINE SMOOTH",
"513 78 OFFCURVE",
"513 49 QCURVE SMOOTH",
"513 21 OFFCURVE",
"544 -8 OFFCURVE",
"566 -8 QCURVE SMOOTH",
"608 -8 OFFCURVE",
"729 83 OFFCURVE",
"740 110 QCURVE",
"740 114 OFFCURVE",
"724 134 OFFCURVE",
"721 134 QCURVE",
"713 123 OFFCURVE",
"662 81 OFFCURVE",
"648 81 QCURVE SMOOTH",
"638 81 OFFCURVE",
"638 105 QCURVE SMOOTH",
"638 122 OFFCURVE",
"640 128 QCURVE",
"660 233 LINE SMOOTH",
"676 316 OFFCURVE",
"676 340 QCURVE SMOOTH",
"676 387 OFFCURVE",
"634 449 OFFCURVE",
"590 449 QCURVE SMOOTH",
"558 449 OFFCURVE",
"471 359 OFFCURVE",
"444 308 QCURVE",
"446 327 OFFCURVE",
"446 340 QCURVE SMOOTH",
"446 387 OFFCURVE",
"404 449 OFFCURVE",
"360 449 QCURVE SMOOTH"
);
}
);
width = 748;
}
);
note = m;
unicode = 006D;
},
{
glyphname = n;
layers = (
{
layerId = "EE330C8E-4A1C-402A-831D-620872201BE1";
paths = (
{
closed = 1;
nodes = (
"134 449 OFFCURVE",
"13 358 OFFCURVE",
"2 331 QCURVE",
"2 327 OFFCURVE",
"19 307 OFFCURVE",
"21 307 QCURVE",
"29 318 OFFCURVE",
"80 360 OFFCURVE",
"94 360 QCURVE SMOOTH",
"104 360 OFFCURVE",
"104 336 QCURVE SMOOTH",
"104 323 OFFCURVE",
"102 313 QCURVE SMOOTH",
"42 0 LINE",
"66 -6 OFFCURVE",
"101 -6 QCURVE SMOOTH",
"137 -6 OFFCURVE",
"157 0 QCURVE",
"178 105 LINE SMOOTH",
"192 171 OFFCURVE",
"272 341 OFFCURVE",
"297 341 QCURVE SMOOTH",
"313 341 OFFCURVE",
"326 321 OFFCURVE",
"326 300 QCURVE SMOOTH",
"326 292 OFFCURVE",
"316 242 QCURVE SMOOTH",
"293 123 LINE SMOOTH",
"283 78 OFFCURVE",
"283 49 QCURVE SMOOTH",
"283 21 OFFCURVE",
"314 -8 OFFCURVE",
"336 -8 QCURVE SMOOTH",
"378 -8 OFFCURVE",
"499 83 OFFCURVE",
"510 110 QCURVE",
"510 114 OFFCURVE",
"494 134 OFFCURVE",
"491 134 QCURVE",
"483 123 OFFCURVE",
"432 81 OFFCURVE",
"418 81 QCURVE SMOOTH",
"408 81 OFFCURVE",
"408 105 QCURVE SMOOTH",
"408 122 OFFCURVE",
"410 128 QCURVE",
"430 233 LINE SMOOTH",
"446 316 OFFCURVE",
"446 340 QCURVE SMOOTH",
"446 387 OFFCURVE",
"404 449 OFFCURVE",
"360 449 QCURVE SMOOTH",
"327 449 OFFCURVE",
"243 355 OFFCURVE",
"217 302 QCURVE",
"217 302 OFFCURVE",
"218 309 OFFCURVE",
"220 321 OFFCURVE",
"221 326 OFFCURVE",
"221 328 QCURVE",
"229 380 OFFCURVE",
"229 392 QCURVE SMOOTH",
"229 420 OFFCURVE",
"199 449 OFFCURVE",
"176 449 QCURVE SMOOTH"
);
}
);
width = 513;
}
);
note = n;
unicode = 006E;
},
{
glyphname = o;
layers = (
{
layerId = "EE330C8E-4A1C-402A-831D-620872201BE1";
paths = (
{
closed = 1;
nodes = (
"271 396 OFFCURVE",
"273 332 QCURVE SMOOTH",
"274 277 OFFCURVE",
"249 148 OFFCURVE",
"197 47 OFFCURVE",
"166 47 QCURVE SMOOTH",
"135 47 OFFCURVE",
"133 110 QCURVE SMOOTH",
"132 171 OFFCURVE",
"160 303 OFFCURVE",
"211 396 OFFCURVE",
"240 396 QCURVE SMOOTH"
);
},
{
closed = 1;
nodes = (
"185 449 OFFCURVE",
"72 359 OFFCURVE",
"9 224 OFFCURVE",
"9 156 QCURVE SMOOTH",
"9 83 OFFCURVE",
"78 -6 OFFCURVE",
"156 -6 QCURVE SMOOTH",
"221 -6 OFFCURVE",
"333 78 OFFCURVE",
"397 213 OFFCURVE",
"397 287 QCURVE SMOOTH",
"397 360 OFFCURVE",
"327 449 OFFCURVE",
"250 449 QCURVE SMOOTH"
);
}
);
width = 407;
}
);
note = o;
unicode = 006F;
},
{
glyphname = p;
layers = (
{
layerId = "EE330C8E-4A1C-402A-831D-620872201BE1";
paths = (
{
closed = 1;
nodes = (
"317 372 OFFCURVE",
"337 337 OFFCURVE",
"337 316 QCURVE SMOOTH",
"337 256 OFFCURVE",
"297 132 OFFCURVE",
"238 54 OFFCURVE",
"211 54 QCURVE SMOOTH",
"191 54 OFFCURVE",
"179 76 OFFCURVE",
"184 102 QCURVE SMOOTH",
"222 299 LINE",
"237 326 OFFCURVE",
"279 372 OFFCURVE",
"302 372 QCURVE SMOOTH"
);
},
{
closed = 1;
nodes = (
"330 449 OFFCURVE",
"296 438 OFFCURVE",
"271 418 OFFCURVE",
"254 403 OFFCURVE",
"238 381 OFFCURVE",
"236 379 QCURVE",
"250 443 LINE",
"221 449 OFFCURVE",
"192 449 QCURVE SMOOTH",
"164 449 OFFCURVE",
"134 443 QCURVE",
"100 269 LINE",
"80 251 OFFCURVE",
"46 218 QCURVE SMOOTH",
"39 211 OFFCURVE",
"39 202 QCURVE SMOOTH",
"39 187 OFFCURVE",
"50 173 QCURVE",
"88 204 LINE",
"24 -122 LINE SMOOTH",
"15 -164 OFFCURVE",
"12 -169 QCURVE",
"-1 -185 OFFCURVE",
"-37 -187 QCURVE",
"-42 -191 OFFCURVE",
"-42 -212 QCURVE SMOOTH",
"-42 -220 OFFCURVE",
"-39 -221 QCURVE",
"26 -214 OFFCURVE",
"86 -212 QCURVE SMOOTH",
"115 -211 OFFCURVE",
"199 -211 QCURVE",
"203 -205 OFFCURVE",
"203 -189 QCURVE SMOOTH",
"203 -177 OFFCURVE",
"196 -177 QCURVE SMOOTH",
"177 -177 OFFCURVE",
"161 -173 QCURVE SMOOTH",
"139 -168 OFFCURVE",
"139 -137 QCURVE SMOOTH",
"139 -130 OFFCURVE",
"141 -116 QCURVE",
"165 6 LINE",
"178 -6 OFFCURVE",
"202 -6 QCURVE SMOOTH",
"243 -6 OFFCURVE",
"335 44 OFFCURVE",
"410 125 OFFCURVE",
"460 240 OFFCURVE",
"460 299 QCURVE SMOOTH",
"460 357 OFFCURVE",
"402 449 OFFCURVE",
"349 449 QCURVE SMOOTH"
);
}
);
width = 473;
}
);
note = p;
unicode = 0070;
},
{
glyphname = q;
layers = (
{
layerId = "EE330C8E-4A1C-402A-831D-620872201BE1";
paths = (
{
closed = 1;
nodes = (
"287 385 OFFCURVE",
"292 377 QCURVE",
"265 246 LINE SMOOTH",
"258 213 OFFCURVE",
"227 135 OFFCURVE",
"180 69 OFFCURVE",
"159 69 QCURVE SMOOTH",
"131 69 OFFCURVE",
"131 128 QCURVE SMOOTH",
"131 176 OFFCURVE",
"166 295 OFFCURVE",
"229 385 OFFCURVE",
"262 385 QCURVE SMOOTH"
);
},
{
closed = 1;
nodes = (
"238 449 OFFCURVE",
"91 354 OFFCURVE",
"8 209 OFFCURVE",
"8 134 QCURVE SMOOTH",
"8 71 OFFCURVE",
"71 -8 OFFCURVE",
"127 -8 QCURVE SMOOTH",
"156 -8 OFFCURVE",
"217 40 OFFCURVE",
"230 66 QCURVE",
"194 -116 LINE SMOOTH",
"189 -139 OFFCURVE",
"169 -170 OFFCURVE",
"145 -183 OFFCURVE",
"128 -187 OFFCURVE",
"120 -187 QCURVE SMOOTH",
"115 -187 OFFCURVE",
"115 -207 QCURVE SMOOTH",
"115 -215 OFFCURVE",
"119 -221 QCURVE",
"220 -210 OFFCURVE",
"314 -210 QCURVE SMOOTH",
"320 -210 OFFCURVE",
"355 -211 OFFCURVE",
"363 -211 QCURVE",
"367 -205 OFFCURVE",
"367 -194 QCURVE SMOOTH",
"367 -176 OFFCURVE",
"361 -176 QCURVE SMOOTH",
"329 -176 OFFCURVE",
"309 -158 OFFCURVE",
"309 -134 QCURVE SMOOTH",
"309 -124 OFFCURVE",
"312 -111 QCURVE",
"415 427 LINE",
"375 449 OFFCURVE",
"320 449 QCURVE SMOOTH"
);
}
);
width = 416;
}
);
note = q;
unicode = 0071;
},
{
glyphname = r;
layers = (
{
layerId = "EE330C8E-4A1C-402A-831D-620872201BE1";
paths = (
{
closed = 1;
nodes = (
"134 449 OFFCURVE",
"13 358 OFFCURVE",
"2 331 QCURVE",
"2 327 OFFCURVE",
"19 307 OFFCURVE",
"21 307 QCURVE",
"29 318 OFFCURVE",
"80 360 OFFCURVE",
"94 360 QCURVE SMOOTH",
"104 360 OFFCURVE",
"104 336 QCURVE SMOOTH",
"104 323 OFFCURVE",
"102 313 QCURVE SMOOTH",
"42 0 LINE",
"71 -6 OFFCURVE",
"100 -6 QCURVE SMOOTH",
"129 -6 OFFCURVE",
"157 0 QCURVE",
"175 89 LINE SMOOTH",
"192 173 OFFCURVE",
"286 354 OFFCURVE",
"311 354 QCURVE SMOOTH",
"327 354 OFFCURVE",
"365 310 OFFCURVE",
"381 310 QCURVE SMOOTH",
"413 310 OFFCURVE",
"442 371 OFFCURVE",
"442 410 QCURVE",
"412 449 OFFCURVE",
"376 449 QCURVE SMOOTH",
"326 449 OFFCURVE",
"245 362 OFFCURVE",
"216 294 QCURVE",
"217 298 OFFCURVE",
"224 338 QCURVE SMOOTH",
"229 362 OFFCURVE",
"229 392 QCURVE SMOOTH",
"229 420 OFFCURVE",
"199 449 OFFCURVE",
"176 449 QCURVE SMOOTH"
);
}
);
width = 437;
}
);
note = r;
unicode = 0072;
},
{
glyphname = s;
layers = (
{
layerId = "EE330C8E-4A1C-402A-831D-620872201BE1";
paths = (
{
closed = 1;
nodes = (
"145 449 OFFCURVE",
"46 378 OFFCURVE",
"46 323 QCURVE SMOOTH",
"46 297 OFFCURVE",
"85 225 OFFCURVE",
"131 166 OFFCURVE",
"170 103 OFFCURVE",
"170 84 QCURVE SMOOTH",
"170 61 OFFCURVE",
"154 41 OFFCURVE",
"135 41 QCURVE SMOOTH",
"122 41 OFFCURVE",
"99 65 OFFCURVE",
"85 94 OFFCURVE",
"58 118 OFFCURVE",
"41 118 QCURVE SMOOTH",
"23 118 OFFCURVE",
"1 86 OFFCURVE",
"1 58 QCURVE SMOOTH",
"1 35 OFFCURVE",
"10 24 QCURVE",
"48 -8 OFFCURVE",
"110 -8 QCURVE SMOOTH",
"179 -8 OFFCURVE",
"278 64 OFFCURVE",
"278 118 QCURVE SMOOTH",
"278 144 OFFCURVE",
"239 216 OFFCURVE",
"193 275 OFFCURVE",
"154 338 OFFCURVE",
"154 357 QCURVE SMOOTH",
"154 380 OFFCURVE",
"170 400 OFFCURVE",
"189 400 QCURVE SMOOTH",
"205 400 OFFCURVE",
"228 376 OFFCURVE",
"241 347 OFFCURVE",
"266 323 OFFCURVE",
"283 323 QCURVE SMOOTH",
"301 323 OFFCURVE",
"323 355 OFFCURVE",
"323 383 QCURVE SMOOTH",
"323 406 OFFCURVE",
"312 420 QCURVE",
"278 449 OFFCURVE",
"214 449 QCURVE SMOOTH"
);
}
);
width = 325;
}
);
note = s;
unicode = 0073;
},
{
glyphname = t;
layers = (
{
layerId = "EE330C8E-4A1C-402A-831D-620872201BE1";
paths = (
{
closed = 1;
nodes = (
"93 429 LINE",
"35 429 LINE",
"30 424 OFFCURVE",
"21 393 OFFCURVE",
"21 382 QCURVE SMOOTH",
"21 370 OFFCURVE",
"25 370 QCURVE SMOOTH",
"81 370 LINE",
"33 123 LINE",
"31 115 OFFCURVE",
"23 60 OFFCURVE",
"23 49 QCURVE SMOOTH",
"23 21 OFFCURVE",
"53 -8 OFFCURVE",
"76 -8 QCURVE SMOOTH",
"118 -8 OFFCURVE",
"239 83 OFFCURVE",
"250 110 QCURVE",
"250 114 OFFCURVE",
"233 134 OFFCURVE",
"231 134 QCURVE",
"222 123 OFFCURVE",
"172 81 OFFCURVE",
"158 81 QCURVE SMOOTH",
"148 81 OFFCURVE",
"148 105 QCURVE SMOOTH",
"148 122 OFFCURVE",
"150 128 QCURVE",
"197 370 LINE",
"293 370 LINE",
"305 388 OFFCURVE",
"305 412 QCURVE SMOOTH",
"305 429 OFFCURVE",
"295 429 QCURVE SMOOTH",
"208 429 LINE",
"231 536 LINE",
"219 540 OFFCURVE",
"200 540 QCURVE SMOOTH",
"173 540 OFFCURVE",
"113 533 OFFCURVE",
"112 527 QCURVE SMOOTH"
);
}
);
width = 289;
}
);
note = t;
unicode = 0074;
},
{
glyphname = u;
layers = (
{
layerId = "EE330C8E-4A1C-402A-831D-620872201BE1";
paths = (
{
closed = 1;
nodes = (
"133 449 OFFCURVE",
"12 358 OFFCURVE",
"1 331 QCURVE",
"1 327 OFFCURVE",
"18 307 OFFCURVE",
"20 307 QCURVE",
"28 318 OFFCURVE",
"79 360 OFFCURVE",
"93 360 QCURVE SMOOTH",
"103 360 OFFCURVE",
"103 336 QCURVE SMOOTH",
"103 319 OFFCURVE",
"101 313 QCURVE",
"81 208 LINE SMOOTH",
"65 125 OFFCURVE",
"65 101 QCURVE SMOOTH",
"65 54 OFFCURVE",
"107 -8 OFFCURVE",
"151 -8 QCURVE SMOOTH",
"184 -8 OFFCURVE",
"268 86 OFFCURVE",
"294 139 QCURVE",
"294 139 OFFCURVE",
"293 132 OFFCURVE",
"291 120 OFFCURVE",
"290 115 OFFCURVE",
"290 113 QCURVE",
"282 65 OFFCURVE",
"282 49 QCURVE SMOOTH",
"282 21 OFFCURVE",
"313 -8 OFFCURVE",
"335 -8 QCURVE SMOOTH",
"377 -8 OFFCURVE",
"498 83 OFFCURVE",
"509 110 QCURVE",
"509 114 OFFCURVE",
"493 134 OFFCURVE",
"490 134 QCURVE",
"482 123 OFFCURVE",
"431 81 OFFCURVE",
"417 81 QCURVE SMOOTH",
"407 81 OFFCURVE",
"407 105 QCURVE SMOOTH",
"407 118 OFFCURVE",
"409 128 QCURVE SMOOTH",
"469 441 LINE",
"445 447 OFFCURVE",
"410 447 QCURVE SMOOTH",
"374 447 OFFCURVE",
"354 441 QCURVE",
"333 336 LINE SMOOTH",
"320 270 OFFCURVE",
"239 100 OFFCURVE",
"214 100 QCURVE SMOOTH",
"198 100 OFFCURVE",
"185 120 OFFCURVE",
"185 141 QCURVE SMOOTH",
"185 146 OFFCURVE",
"189 169 OFFCURVE",
"194 195 OFFCURVE",
"195 199 QCURVE",
"218 318 LINE SMOOTH",
"228 363 OFFCURVE",
"228 392 QCURVE SMOOTH",
"228 420 OFFCURVE",
"198 449 OFFCURVE",
"175 449 QCURVE SMOOTH"
);
}
);
width = 513;
}
);
note = u;
unicode = 0075;
},
{
glyphname = v;
layers = (
{
layerId = "EE330C8E-4A1C-402A-831D-620872201BE1";
paths = (
{
closed = 1;
nodes = (
"133 449 OFFCURVE",
"12 358 OFFCURVE",
"1 331 QCURVE",
"1 327 OFFCURVE",
"18 307 OFFCURVE",
"20 307 QCURVE",
"28 318 OFFCURVE",
"79 360 OFFCURVE",
"93 360 QCURVE SMOOTH",
"103 360 OFFCURVE",
"103 336 QCURVE SMOOTH",
"103 323 OFFCURVE",
"101 313 QCURVE SMOOTH",
"67 141 LINE SMOOTH",
"62 115 OFFCURVE",
"62 89 QCURVE SMOOTH",
"62 45 OFFCURVE",
"119 -4 OFFCURVE",
"161 -4 QCURVE SMOOTH",
"198 -4 OFFCURVE",
"294 65 OFFCURVE",
"379 172 OFFCURVE",
"438 314 OFFCURVE",
"438 380 QCURVE SMOOTH",
"438 421 OFFCURVE",
"428 438 QCURVE",
"414 449 OFFCURVE",
"390 449 QCURVE SMOOTH",
"360 449 OFFCURVE",
"319 417 OFFCURVE",
"319 390 QCURVE SMOOTH",
"319 365 OFFCURVE",
"355 314 OFFCURVE",
"355 288 QCURVE SMOOTH",
"355 247 OFFCURVE",
"306 151 OFFCURVE",
"238 88 OFFCURVE",
"211 88 QCURVE SMOOTH",
"185 88 OFFCURVE",
"185 128 QCURVE SMOOTH",
"185 150 OFFCURVE",
"188 165 QCURVE SMOOTH",
"220 328 LINE SMOOTH",
"228 364 OFFCURVE",
"228 392 QCURVE SMOOTH",
"228 420 OFFCURVE",
"198 449 OFFCURVE",
"175 449 QCURVE SMOOTH"
);
}
);
width = 443;
}
);
note = v;
unicode = 0076;
},
{
glyphname = w;
layers = (
{
layerId = "EE330C8E-4A1C-402A-831D-620872201BE1";
paths = (
{
closed = 1;
nodes = (
"133 449 OFFCURVE",
"12 358 OFFCURVE",
"1 331 QCURVE",
"1 327 OFFCURVE",
"18 307 OFFCURVE",
"20 307 QCURVE",
"28 318 OFFCURVE",
"79 360 OFFCURVE",
"93 360 QCURVE SMOOTH",
"103 360 OFFCURVE",
"103 336 QCURVE SMOOTH",
"103 323 OFFCURVE",
"101 313 QCURVE SMOOTH",
"67 141 LINE SMOOTH",
"62 115 OFFCURVE",
"62 89 QCURVE SMOOTH",
"62 45 OFFCURVE",
"119 -4 OFFCURVE",
"161 -4 QCURVE SMOOTH",
"224 -4 OFFCURVE",
"304 83 QCURVE",
"305 40 OFFCURVE",
"362 -4 OFFCURVE",
"404 -4 QCURVE SMOOTH",
"441 -4 OFFCURVE",
"537 65 OFFCURVE",
"622 172 OFFCURVE",
"681 314 OFFCURVE",
"681 380 QCURVE SMOOTH",
"681 421 OFFCURVE",
"671 438 QCURVE",
"659 449 OFFCURVE",
"630 449 QCURVE SMOOTH",
"604 449 OFFCURVE",
"561 421 OFFCURVE",
"561 395 QCURVE SMOOTH",
"561 370 OFFCURVE",
"598 311 OFFCURVE",
"598 288 QCURVE SMOOTH",
"598 247 OFFCURVE",
"549 151 OFFCURVE",
"481 88 OFFCURVE",
"454 88 QCURVE SMOOTH",
"437 88 OFFCURVE",
"426 112 OFFCURVE",
"426 148 QCURVE SMOOTH",
"426 168 OFFCURVE",
"428 182 QCURVE",
"466 326 OFFCURVE",
"466 379 QCURVE SMOOTH",
"466 412 OFFCURVE",
"442 449 OFFCURVE",
"411 449 QCURVE SMOOTH",
"389 449 OFFCURVE",
"356 409 OFFCURVE",
"334 325 OFFCURVE",
"319 234 OFFCURVE",
"312 165 QCURVE",
"268 88 OFFCURVE",
"211 88 QCURVE SMOOTH",
"185 88 OFFCURVE",
"185 128 QCURVE SMOOTH",
"185 150 OFFCURVE",
"188 165 QCURVE SMOOTH",
"220 328 LINE SMOOTH",
"228 364 OFFCURVE",
"228 392 QCURVE SMOOTH",
"228 420 OFFCURVE",
"198 449 OFFCURVE",
"175 449 QCURVE SMOOTH"
);
}
);
width = 686;
}
);
note = w;
unicode = 0077;
},
{
glyphname = x;
layers = (
{
layerId = "EE330C8E-4A1C-402A-831D-620872201BE1";
paths = (
{
closed = 1;
nodes = (
"163 449 OFFCURVE",
"42 358 OFFCURVE",
"31 331 QCURVE",
"31 327 OFFCURVE",
"48 307 OFFCURVE",
"50 307 QCURVE",
"58 318 OFFCURVE",
"109 360 OFFCURVE",
"123 360 QCURVE SMOOTH",
"138 360 OFFCURVE",
"147 332 QCURVE SMOOTH",
"183 207 LINE",
"121 97 LINE SMOOTH",
"111 80 OFFCURVE",
"90 80 QCURVE SMOOTH",
"80 80 OFFCURVE",
"49 98 OFFCURVE",
"31 98 QCURVE SMOOTH",
"5 98 OFFCURVE",
"-22 64 OFFCURVE",
"-22 41 QCURVE SMOOTH",
"-22 24 OFFCURVE",
"-15 12 QCURVE",
"15 -6 OFFCURVE",
"56 -6 QCURVE SMOOTH",
"109 -6 OFFCURVE",
"151 58 QCURVE",
"201 142 LINE",
"220 74 LINE SMOOTH",
"242 -5 OFFCURVE",
"276 -5 QCURVE SMOOTH",
"318 -5 OFFCURVE",
"439 86 OFFCURVE",
"450 113 QCURVE",
"450 117 OFFCURVE",
"434 137 OFFCURVE",
"431 137 QCURVE",
"423 126 OFFCURVE",
"372 84 OFFCURVE",
"358 84 QCURVE SMOOTH",
"343 84 OFFCURVE",
"334 112 QCURVE",
"295 251 LINE",
"344 346 LINE",
"354 363 OFFCURVE",
"375 363 QCURVE SMOOTH",
"385 363 OFFCURVE",
"416 345 OFFCURVE",
"434 345 QCURVE SMOOTH",
"460 345 OFFCURVE",
"487 379 OFFCURVE",
"487 402 QCURVE SMOOTH",
"487 419 OFFCURVE",
"480 431 QCURVE",
"450 449 OFFCURVE",
"409 449 QCURVE SMOOTH",
"355 449 OFFCURVE",
"314 385 QCURVE",
"276 318 LINE",
"261 371 LINE SMOOTH",
"240 449 OFFCURVE",
"205 449 QCURVE SMOOTH"
);
}
);
width = 483;
}
);
note = x;
unicode = 0078;
},
{
glyphname = y;
layers = (
{
layerId = "EE330C8E-4A1C-402A-831D-620872201BE1";
paths = (
{
closed = 1;
nodes = (
"178 449 OFFCURVE",
"57 358 OFFCURVE",
"46 331 QCURVE",
"46 327 OFFCURVE",
"62 307 OFFCURVE",
"65 307 QCURVE",
"73 318 OFFCURVE",
"124 360 OFFCURVE",
"138 360 QCURVE SMOOTH",
"154 360 OFFCURVE",
"162 332 QCURVE SMOOTH",
"187 243 OFFCURVE",
"215 65 OFFCURVE",
"215 8 QCURVE SMOOTH",
"215 -54 OFFCURVE",
"194 -81 QCURVE SMOOTH",
"182 -96 OFFCURVE",
"160 -115 OFFCURVE",
"111 -132 OFFCURVE",
"79 -132 QCURVE SMOOTH",
"47 -132 OFFCURVE",
"3 -120 QCURVE",
"-15 -140 OFFCURVE",
"-15 -165 QCURVE SMOOTH",
"-15 -193 OFFCURVE",
"19 -218 OFFCURVE",
"45 -218 QCURVE SMOOTH",
"93 -218 OFFCURVE",
"216 -149 OFFCURVE",
"336 -26 OFFCURVE",
"438 125 OFFCURVE",
"502 308 OFFCURVE",
"502 394 QCURVE SMOOTH",
"502 417 OFFCURVE",
"469 449 OFFCURVE",
"446 449 QCURVE SMOOTH",
"421 449 OFFCURVE",
"381 412 OFFCURVE",
"381 389 QCURVE",
"393 369 OFFCURVE",
"417 300 OFFCURVE",
"417 273 QCURVE SMOOTH",
"417 227 OFFCURVE",
"348 86 OFFCURVE",
"332 66 QCURVE",
"332 66 OFFCURVE",
"329 96 OFFCURVE",
"326 130 OFFCURVE",
"319 183 OFFCURVE",
"312 235 OFFCURVE",
"301 294 OFFCURVE",
"288 345 OFFCURVE",
"272 394 OFFCURVE",
"254 428 OFFCURVE",
"232 449 OFFCURVE",
"220 449 QCURVE SMOOTH"
);
}
);
width = 509;
}
);
note = y;
unicode = 0079;
},
{
glyphname = z;
layers = (
{
layerId = "EE330C8E-4A1C-402A-831D-620872201BE1";
paths = (
{
closed = 1;
nodes = (
"138 449 OFFCURVE",
"67 365 OFFCURVE",
"50 324 QCURVE",
"54 315 OFFCURVE",
"69 299 OFFCURVE",
"75 299 QCURVE SMOOTH",
"80 299 OFFCURVE",
"103 324 OFFCURVE",
"133 350 OFFCURVE",
"148 350 QCURVE SMOOTH",
"173 350 OFFCURVE",
"234 328 OFFCURVE",
"255 328 QCURVE SMOOTH",
"272 328 OFFCURVE",
"292 337 QCURVE",
"-13 23 LINE",
"-12 15 OFFCURVE",
"0 -4 OFFCURVE",
"9 -4 QCURVE SMOOTH",
"19 -4 OFFCURVE",
"77 20 OFFCURVE",
"97 20 QCURVE SMOOTH",
"131 20 OFFCURVE",
"238 -4 OFFCURVE",
"273 -4 QCURVE SMOOTH",
"293 -4 OFFCURVE",
"330 17 OFFCURVE",
"356 42 OFFCURVE",
"383 83 OFFCURVE",
"393 103 OFFCURVE",
"401 119 QCURVE",
"392 147 OFFCURVE",
"380 147 QCURVE SMOOTH",
"376 147 OFFCURVE",
"354 122 OFFCURVE",
"324 97 OFFCURVE",
"309 97 QCURVE SMOOTH",
"284 97 OFFCURVE",
"210 119 OFFCURVE",
"186 119 QCURVE SMOOTH",
"178 119 OFFCURVE",
"163 115 OFFCURVE",
"145 109 OFFCURVE",
"139 108 QCURVE",
"443 415 LINE",
"443 449 OFFCURVE",
"424 449 QCURVE SMOOTH",
"409 449 OFFCURVE",
"364 427 OFFCURVE",
"349 427 QCURVE SMOOTH",
"314 427 OFFCURVE",
"206 449 OFFCURVE",
"171 449 QCURVE SMOOTH"
);
}
);
width = 431;
}
);
note = z;
unicode = 007A;
},
{
glyphname = braceleft;
layers = (
{
layerId = "EE330C8E-4A1C-402A-831D-620872201BE1";
paths = (
{
closed = 1;
nodes = (
"32 -33 OFFCURVE",
"134 -125 OFFCURVE",
"192 -125 QCURVE SMOOTH",
"197 -125 OFFCURVE",
"202 -94 OFFCURVE",
"196 -92 QCURVE",
"176 -90 OFFCURVE",
"137 -41 OFFCURVE",
"137 -6 QCURVE SMOOTH",
"137 25 OFFCURVE",
"191 179 OFFCURVE",
"191 255 OFFCURVE",
"158 308 OFFCURVE",
"137 308 QCURVE",
"163 308 OFFCURVE",
"227 387 OFFCURVE",
"236 434 QCURVE SMOOTH",
"244 477 OFFCURVE",
"248 578 OFFCURVE",
"255 613 QCURVE SMOOTH",
"264 657 OFFCURVE",
"327 715 OFFCURVE",
"353 717 QCURVE",
"357 718 OFFCURVE",
"364 739 OFFCURVE",
"364 746 QCURVE SMOOTH",
"364 750 OFFCURVE",
"362 750 QCURVE SMOOTH",
"320 750 OFFCURVE",
"225 710 OFFCURVE",
"142 626 OFFCURVE",
"132 572 QCURVE SMOOTH",
"125 536 OFFCURVE",
"121 455 OFFCURVE",
"119 411 OFFCURVE",
"104 365 OFFCURVE",
"62 338 OFFCURVE",
"23 328 QCURVE",
"18 321 OFFCURVE",
"14 295 OFFCURVE",
"15 291 QCURVE",
"19 289 OFFCURVE",
"43 282 OFFCURVE",
"52 278 OFFCURVE",
"69 269 OFFCURVE",
"76 260 OFFCURVE",
"82 244 OFFCURVE",
"82 235 QCURVE SMOOTH",
"82 214 OFFCURVE",
"32 63 OFFCURVE",
"32 31 QCURVE SMOOTH"
);
}
);
width = 354;
}
);
note = braceleft;
unicode = 007B;
},
{
glyphname = bar;
layers = (
{
layerId = "EE330C8E-4A1C-402A-831D-620872201BE1";
paths = (
{
closed = 1;
nodes = (
"95 419 OFFCURVE",
"-5 -115 QCURVE",
"-6 -118 OFFCURVE",
"1 -126 OFFCURVE",
"6 -126 QCURVE SMOOTH",
"23 -126 OFFCURVE",
"70 -113 OFFCURVE",
"78 -106 QCURVE",
"248 766 LINE",
"249 776 OFFCURVE",
"224 776 QCURVE SMOOTH",
"186 776 OFFCURVE",
"165 757 QCURVE"
);
}
);
width = 242;
}
);
note = bar;
unicode = 007C;
},
{
glyphname = braceright;
layers = (
{
layerId = "EE330C8E-4A1C-402A-831D-620872201BE1";
paths = (
{
closed = 1;
nodes = (
"214 608 OFFCURVE",
"158 441 OFFCURVE",
"158 403 QCURVE SMOOTH",
"158 364 OFFCURVE",
"191 308 OFFCURVE",
"212 308 QCURVE",
"186 308 OFFCURVE",
"123 234 OFFCURVE",
"114 187 QCURVE SMOOTH",
"106 144 OFFCURVE",
"104 53 OFFCURVE",
"97 18 QCURVE SMOOTH",
"88 -27 OFFCURVE",
"22 -90 OFFCURVE",
"-3 -92 QCURVE",
"-7 -93 OFFCURVE",
"-14 -113 OFFCURVE",
"-14 -125 OFFCURVE",
"-11 -125 QCURVE SMOOTH",
"54 -125 OFFCURVE",
"204 -15 OFFCURVE",
"218 58 QCURVE SMOOTH",
"224 88 OFFCURVE",
"229 194 OFFCURVE",
"234 219 QCURVE SMOOTH",
"236 230 OFFCURVE",
"243 248 OFFCURVE",
"257 261 OFFCURVE",
"265 270 OFFCURVE",
"288 279 OFFCURVE",
"295 282 OFFCURVE",
"324 290 OFFCURVE",
"327 291 QCURVE",
"335 301 OFFCURVE",
"335 321 QCURVE SMOOTH",
"335 326 OFFCURVE",
"334 328 QCURVE",
"302 337 OFFCURVE",
"268 363 OFFCURVE",
"268 389 QCURVE SMOOTH",
"268 411 OFFCURVE",
"323 568 OFFCURVE",
"323 602 QCURVE SMOOTH",
"323 668 OFFCURVE",
"219 750 OFFCURVE",
"159 750 QCURVE SMOOTH",
"154 750 OFFCURVE",
"149 718 OFFCURVE",
"155 717 QCURVE",
"176 715 OFFCURVE",
"214 671 OFFCURVE",
"214 637 QCURVE SMOOTH"
);
}
);
width = 346;
}
);
note = braceright;
unicode = 007D;
},
{
glyphname = asciitilde;
layers = (
{
layerId = "EE330C8E-4A1C-402A-831D-620872201BE1";
paths = (
{
closed = 1;
nodes = (
"129 359 OFFCURVE",
"29 303 OFFCURVE",
"29 269 QCURVE SMOOTH",
"29 256 OFFCURVE",
"33 254 QCURVE",
"56 271 OFFCURVE",
"73 283 OFFCURVE",
"109 298 OFFCURVE",
"126 298 QCURVE SMOOTH",
"170 298 OFFCURVE",
"293 245 OFFCURVE",
"337 245 QCURVE SMOOTH",
"382 245 OFFCURVE",
"472 302 OFFCURVE",
"472 335 QCURVE SMOOTH",
"472 348 OFFCURVE",
"468 350 QCURVE",
"445 333 OFFCURVE",
"428 321 OFFCURVE",
"392 306 OFFCURVE",
"375 306 QCURVE SMOOTH",
"332 306 OFFCURVE",
"210 359 OFFCURVE",
"166 359 QCURVE SMOOTH"
);
}
);
width = 500;
}
);
note = asciitilde;
unicode = 007E;
},
{
glyphname = exclamdown;
layers = (
{
layerId = "EE330C8E-4A1C-402A-831D-620872201BE1";
paths = (
{
closed = 1;
nodes = (
"69 -238 OFFCURVE",
"111 -201 OFFCURVE",
"117 -170 QCURVE SMOOTH",
"121 -147 OFFCURVE",
"152 190 OFFCURVE",
"152 213 QCURVE SMOOTH",
"152 226 OFFCURVE",
"138 242 OFFCURVE",
"128 242 QCURVE SMOOTH",
"119 242 OFFCURVE",
"112 220 QCURVE SMOOTH",
"91 158 OFFCURVE",
"-4 -163 OFFCURVE",
"-4 -211 OFFCURVE",
"24 -238 OFFCURVE",
"46 -238 QCURVE SMOOTH"
);
},
{
closed = 1;
nodes = (
"91 326 OFFCURVE",
"122 293 OFFCURVE",
"145 293 QCURVE SMOOTH",
"178 293 OFFCURVE",
"231 347 OFFCURVE",
"231 383 QCURVE SMOOTH",
"231 409 OFFCURVE",
"202 443 OFFCURVE",
"178 443 QCURVE SMOOTH",
"147 443 OFFCURVE",
"91 387 OFFCURVE",
"91 351 QCURVE SMOOTH"
);
}
);
width = 241;
}
);
note = exclamdown;
unicode = 00A1;
},
{
glyphname = cent;
layers = (
{
layerId = "EE330C8E-4A1C-402A-831D-620872201BE1";
paths = (
{
closed = 1;
nodes = (
"197 449 OFFCURVE",
"49 270 OFFCURVE",
"49 156 QCURVE SMOOTH",
"49 81 OFFCURVE",
"120 -6 OFFCURVE",
"194 -6 QCURVE SMOOTH",
"241 -6 OFFCURVE",
"348 74 OFFCURVE",
"359 102 QCURVE",
"359 106 OFFCURVE",
"342 126 OFFCURVE",
"340 126 QCURVE",
"329 111 OFFCURVE",
"270 68 OFFCURVE",
"239 68 QCURVE SMOOTH",
"175 68 OFFCURVE",
"175 169 QCURVE SMOOTH",
"175 246 OFFCURVE",
"241 394 OFFCURVE",
"281 394 QCURVE SMOOTH",
"296 394 OFFCURVE",
"316 368 OFFCURVE",
"325 336 OFFCURVE",
"347 310 OFFCURVE",
"364 310 QCURVE SMOOTH",
"385 310 OFFCURVE",
"411 346 OFFCURVE",
"411 371 QCURVE SMOOTH",
"411 383 OFFCURVE",
"404 404 QCURVE",
"364 449 OFFCURVE",
"292 449 QCURVE SMOOTH"
);
}
);
width = 371;
}
);
note = cent;
unicode = 00A2;
},
{
glyphname = sterling;
layers = (
{
layerId = "EE330C8E-4A1C-402A-831D-620872201BE1";
paths = (
{
closed = 1;
nodes = (
"288 642 OFFCURVE",
"154 537 OFFCURVE",
"136 447 QCURVE SMOOTH",
"126 398 OFFCURVE",
"127 362 QCURVE SMOOTH",
"127 358 OFFCURVE",
"124 358 QCURVE SMOOTH",
"65 358 LINE SMOOTH",
"58 358 OFFCURVE",
"47 330 OFFCURVE",
"47 319 QCURVE SMOOTH",
"47 308 OFFCURVE",
"50 301 QCURVE",
"122 301 LINE SMOOTH",
"126 301 OFFCURVE",
"126 297 QCURVE",
"125 287 OFFCURVE",
"120 237 OFFCURVE",
"119 230 QCURVE SMOOTH",
"111 157 OFFCURVE",
"58 68 OFFCURVE",
"5 26 QCURVE",
"0 23 OFFCURVE",
"0 20 QCURVE SMOOTH",
"0 13 OFFCURVE",
"15 -4 OFFCURVE",
"29 -7 QCURVE",
"33 -5 OFFCURVE",
"61 9 OFFCURVE",
"78 17 OFFCURVE",
"114 24 OFFCURVE",
"134 24 QCURVE SMOOTH",
"155 24 OFFCURVE",
"272 -5 OFFCURVE",
"304 -5 QCURVE SMOOTH",
"347 -5 OFFCURVE",
"423 75 OFFCURVE",
"445 118 QCURVE",
"446 119 OFFCURVE",
"446 124 QCURVE SMOOTH",
"446 131 OFFCURVE",
"436 139 OFFCURVE",
"431 139 QCURVE",
"430 138 OFFCURVE",
"415 121 OFFCURVE",
"412 119 OFFCURVE",
"399 106 OFFCURVE",
"395 103 OFFCURVE",
"383 93 OFFCURVE",
"377 91 OFFCURVE",
"366 85 OFFCURVE",
"356 84 OFFCURVE",
"344 82 OFFCURVE",
"338 82 QCURVE SMOOTH",
"326 82 OFFCURVE",
"253 111 OFFCURVE",
"225 111 QCURVE SMOOTH",
"169 111 OFFCURVE",
"144 96 QCURVE",
"212 177 OFFCURVE",
"227 248 QCURVE SMOOTH",
"234 281 OFFCURVE",
"234 298 QCURVE SMOOTH",
"234 301 OFFCURVE",
"238 301 QCURVE SMOOTH",
"381 301 LINE",
"396 316 OFFCURVE",
"396 343 QCURVE SMOOTH",
"396 358 OFFCURVE",
"388 358 QCURVE SMOOTH",
"237 358 LINE SMOOTH",
"234 358 OFFCURVE",
"234 361 QCURVE",
"232 419 OFFCURVE",
"237 449 QCURVE SMOOTH",
"263 585 OFFCURVE",
"350 585 QCURVE SMOOTH",
"366 585 OFFCURVE",
"386 554 OFFCURVE",
"408 524 OFFCURVE",
"427 524 QCURVE SMOOTH",
"451 524 OFFCURVE",
"486 569 OFFCURVE",
"494 607 QCURVE",
"487 624 OFFCURVE",
"420 642 OFFCURVE",
"381 642 QCURVE SMOOTH"
);
}
);
width = 489;
}
);
note = sterling;
unicode = 00A3;
},
{
glyphname = currency;
layers = (
{
layerId = "EE330C8E-4A1C-402A-831D-620872201BE1";
paths = (
{
closed = 1;
nodes = (
"316 452 OFFCURVE",
"316 367 QCURVE SMOOTH",
"316 329 OFFCURVE",
"300 242 OFFCURVE",
"254 164 OFFCURVE",
"221 164 QCURVE SMOOTH",
"165 164 OFFCURVE",
"165 248 QCURVE SMOOTH",
"165 285 OFFCURVE",
"180 372 OFFCURVE",
"226 452 OFFCURVE",
"259 452 QCURVE SMOOTH"
);
},
{
closed = 1;
nodes = (
"224 497 OFFCURVE",
"173 467 QCURVE",
"138 520 LINE",
"122 516 OFFCURVE",
"84 487 OFFCURVE",
"84 479 QCURVE SMOOTH",
"84 477 OFFCURVE",
"85 476 QCURVE",
"120 424 LINE",
"56 353 OFFCURVE",
"56 269 QCURVE SMOOTH",
"56 236 OFFCURVE",
"69 204 QCURVE",
"12 156 LINE",
"13 140 OFFCURVE",
"32 106 OFFCURVE",
"40 106 QCURVE SMOOTH",
"42 106 OFFCURVE",
"44 108 QCURVE",
"102 157 LINE",
"143 119 OFFCURVE",
"204 119 QCURVE SMOOTH",
"258 119 OFFCURVE",
"308 148 QCURVE",
"341 98 LINE",
"357 102 OFFCURVE",
"395 131 OFFCURVE",
"395 139 QCURVE SMOOTH",
"395 141 OFFCURVE",
"394 142 QCURVE",
"361 190 LINE",
"426 260 OFFCURVE",
"426 346 QCURVE SMOOTH",
"426 381 OFFCURVE",
"411 416 QCURVE",
"465 462 LINE",
"464 478 OFFCURVE",
"446 512 OFFCURVE",
"438 512 QCURVE SMOOTH",
"436 512 OFFCURVE",
"434 510 QCURVE",
"377 462 LINE",
"337 497 OFFCURVE",
"278 497 QCURVE SMOOTH"
);
}
);
width = 475;
}
);
note = currency;
unicode = 00A4;
},
{
glyphname = yen;
layers = (
{
layerId = "EE330C8E-4A1C-402A-831D-620872201BE1";
paths = (
{
closed = 1;
nodes = (
"38 152 OFFCURVE",
"38 129 QCURVE SMOOTH",
"38 114 OFFCURVE",
"47 114 QCURVE SMOOTH",
"136 114 LINE",
"125 69 OFFCURVE",
"117 55 QCURVE SMOOTH",
"112 46 OFFCURVE",
"67 30 OFFCURVE",
"57 30 QCURVE SMOOTH",
"55 30 OFFCURVE",
"51 9 OFFCURVE",
"51 2 QCURVE SMOOTH",
"51 -3 OFFCURVE",
"52 -4 QCURVE",
"181 2 OFFCURVE",
"193 2 QCURVE SMOOTH",
"194 2 OFFCURVE",
"305 -4 QCURVE",
"311 6 OFFCURVE",
"311 25 QCURVE SMOOTH",
"311 30 OFFCURVE",
"309 30 QCURVE SMOOTH",
"300 30 OFFCURVE",
"262 49 OFFCURVE",
"262 59 QCURVE SMOOTH",
"262 84 OFFCURVE",
"267 114 QCURVE",
"366 114 LINE",
"382 128 OFFCURVE",
"382 153 QCURVE SMOOTH",
"382 167 OFFCURVE",
"374 167 QCURVE SMOOTH",
"277 167 LINE",
"286 217 LINE",
"386 217 LINE",
"402 231 OFFCURVE",
"402 256 QCURVE SMOOTH",
"402 270 OFFCURVE",
"394 270 QCURVE SMOOTH",
"296 270 LINE",
"300 292 LINE SMOOTH",
"305 320 OFFCURVE",
"509 563 OFFCURVE",
"540 594 QCURVE SMOOTH",
"552 606 OFFCURVE",
"617 629 OFFCURVE",
"626 629 QCURVE SMOOTH",
"633 629 OFFCURVE",
"633 662 QCURVE",
"620 661 OFFCURVE",
"579 658 OFFCURVE",
"542 656 OFFCURVE",
"521 656 QCURVE SMOOTH",
"496 656 OFFCURVE",
"394 662 QCURVE",
"386 656 OFFCURVE",
"386 634 QCURVE SMOOTH",
"386 628 OFFCURVE",
"388 628 QCURVE SMOOTH",
"412 628 OFFCURVE",
"455 616 OFFCURVE",
"455 604 QCURVE SMOOTH",
"455 579 OFFCURVE",
"317 424 QCURVE",
"314 419 OFFCURVE",
"310 419 QCURVE SMOOTH",
"308 419 OFFCURVE",
"307 422 QCURVE SMOOTH",
"255 576 LINE SMOOTH",
"249 594 OFFCURVE",
"249 598 QCURVE SMOOTH",
"249 613 OFFCURVE",
"285 628 OFFCURVE",
"298 628 QCURVE SMOOTH",
"301 628 OFFCURVE",
"307 650 OFFCURVE",
"307 657 QCURVE SMOOTH",
"307 662 LINE",
"193 656 OFFCURVE",
"153 656 QCURVE SMOOTH",
"133 656 OFFCURVE",
"89 658 OFFCURVE",
"36 661 OFFCURVE",
"21 662 QCURVE",
"13 656 OFFCURVE",
"13 638 QCURVE SMOOTH",
"13 628 OFFCURVE",
"16 628 QCURVE SMOOTH",
"44 628 OFFCURVE",
"61 616 QCURVE SMOOTH",
"87 597 OFFCURVE",
"102 546 QCURVE SMOOTH",
"170 314 LINE",
"172 302 OFFCURVE",
"172 300 QCURVE SMOOTH",
"172 288 OFFCURVE",
"166 270 QCURVE",
"68 270 LINE",
"56 250 OFFCURVE",
"56 232 QCURVE SMOOTH",
"56 217 OFFCURVE",
"65 217 QCURVE SMOOTH",
"156 217 LINE",
"146 167 LINE",
"50 167 LINE"
);
}
);
width = 627;
}
);
note = yen;
unicode = 00A5;
},
{
glyphname = brokenbar;
layers = (
{
layerId = "EE330C8E-4A1C-402A-831D-620872201BE1";
paths = (
{
closed = 1;
nodes = (
"93 414 OFFCURVE",
"92 388 QCURVE",
"91 385 OFFCURVE",
"98 377 OFFCURVE",
"103 377 QCURVE SMOOTH",
"120 377 OFFCURVE",
"166 391 OFFCURVE",
"175 398 QCURVE",
"246 760 LINE",
"246 763 OFFCURVE",
"238 769 OFFCURVE",
"226 771 OFFCURVE",
"222 771 QCURVE SMOOTH",
"184 771 OFFCURVE",
"163 752 QCURVE"
);
},
{
closed = 1;
nodes = (
"-5 -90 OFFCURVE",
"-6 -115 QCURVE",
"-7 -118 OFFCURVE",
"0 -126 OFFCURVE",
"5 -126 QCURVE SMOOTH",
"22 -126 OFFCURVE",
"69 -113 OFFCURVE",
"77 -106 QCURVE",
"148 257 LINE SMOOTH",
"149 262 OFFCURVE",
"132 268 OFFCURVE",
"125 268 QCURVE SMOOTH",
"88 268 OFFCURVE",
"65 248 QCURVE"
);
}
);
width = 240;
}
);
note = brokenbar;
unicode = 00A6;
},
{
glyphname = section;
layers = (
{
layerId = "EE330C8E-4A1C-402A-831D-620872201BE1";
paths = (
{
closed = 1;
nodes = (
"224 651 OFFCURVE",
"122 561 OFFCURVE",
"122 482 QCURVE SMOOTH",
"122 468 OFFCURVE",
"124 463 QCURVE",
"87 438 OFFCURVE",
"43 362 OFFCURVE",
"35 318 OFFCURVE",
"35 301 QCURVE SMOOTH",
"35 266 OFFCURVE",
"72 210 OFFCURVE",
"125 173 OFFCURVE",
"178 139 OFFCURVE",
"215 98 OFFCURVE",
"215 73 QCURVE SMOOTH",
"215 43 OFFCURVE",
"173 17 OFFCURVE",
"148 17 QCURVE SMOOTH",
"126 17 OFFCURVE",
"85 65 OFFCURVE",
"68 65 QCURVE SMOOTH",
"47 65 OFFCURVE",
"24 12 OFFCURVE",
"24 -4 QCURVE",
"29 -17 OFFCURVE",
"75 -41 OFFCURVE",
"107 -41 QCURVE SMOOTH",
"174 -41 OFFCURVE",
"277 43 OFFCURVE",
"277 125 QCURVE SMOOTH",
"277 138 OFFCURVE",
"275 148 QCURVE",
"307 169 OFFCURVE",
"367 271 OFFCURVE",
"367 318 QCURVE SMOOTH",
"367 352 OFFCURVE",
"329 407 OFFCURVE",
"276 442 OFFCURVE",
"222 473 OFFCURVE",
"184 513 OFFCURVE",
"184 537 QCURVE SMOOTH",
"184 593 OFFCURVE",
"254 593 QCURVE SMOOTH",
"272 593 OFFCURVE",
"298 568 OFFCURVE",
"318 543 OFFCURVE",
"329 543 QCURVE SMOOTH",
"342 543 OFFCURVE",
"361 557 OFFCURVE",
"369 577 OFFCURVE",
"372 596 OFFCURVE",
"372 604 QCURVE",
"373 613 LINE",
"368 626 OFFCURVE",
"323 651 OFFCURVE",
"292 651 QCURVE SMOOTH"
);
},
{
closed = 1;
nodes = (
"111 406 OFFCURVE",
"135 424 QCURVE",
"145 397 OFFCURVE",
"199 349 OFFCURVE",
"250 320 OFFCURVE",
"290 272 OFFCURVE",
"290 244 QCURVE SMOOTH",
"290 209 OFFCURVE",
"264 185 QCURVE",
"253 215 OFFCURVE",
"200 261 OFFCURVE",
"150 286 OFFCURVE",
"111 330 OFFCURVE",
"111 359 QCURVE SMOOTH"
);
}
);
width = 396;
}
);
note = section;
unicode = 00A7;
},
{
glyphname = dieresis;
layers = (
{
layerId = "EE330C8E-4A1C-402A-831D-620872201BE1";
paths = (
{
closed = 1;
nodes = (
"387 590 OFFCURVE",
"340 539 OFFCURVE",
"340 506 QCURVE SMOOTH",
"340 479 OFFCURVE",
"373 443 OFFCURVE",
"398 443 QCURVE SMOOTH",
"429 443 OFFCURVE",
"476 495 OFFCURVE",
"476 528 QCURVE SMOOTH",
"476 554 OFFCURVE",
"443 590 OFFCURVE",
"418 590 QCURVE SMOOTH"
);
},
{
closed = 1;
nodes = (
"167 592 OFFCURVE",
"120 540 OFFCURVE",
"120 507 QCURVE SMOOTH",
"120 481 OFFCURVE",
"153 445 OFFCURVE",
"178 445 QCURVE SMOOTH",
"209 445 OFFCURVE",
"256 496 OFFCURVE",
"256 529 QCURVE SMOOTH",
"256 556 OFFCURVE",
"223 592 OFFCURVE",
"198 592 QCURVE SMOOTH"
);
}
);
width = 386;
}
);
note = dieresis;
unicode = 00A8;
},
{
glyphname = copyright;
layers = (
{
layerId = "EE330C8E-4A1C-402A-831D-620872201BE1";
paths = (
{
closed = 1;
nodes = (
"256 481 OFFCURVE",
"162 372 OFFCURVE",
"162 309 QCURVE SMOOTH",
"162 262 OFFCURVE",
"218 199 OFFCURVE",
"262 199 QCURVE SMOOTH",
"317 199 OFFCURVE",
"354 219 QCURVE SMOOTH",
"361 223 OFFCURVE",
"380 261 OFFCURVE",
"381 268 QCURVE",
"378 273 OFFCURVE",
"369 273 QCURVE SMOOTH",
"368 273 OFFCURVE",
"366 272 OFFCURVE",
"365 272 QCURVE",
"364 270 LINE",
"362 268 OFFCURVE",
"357 262 OFFCURVE",
"351 255 OFFCURVE",
"343 247 OFFCURVE",
"339 244 QCURVE",
"321 229 OFFCURVE",
"286 229 QCURVE SMOOTH",
"228 229 OFFCURVE",
"228 305 QCURVE SMOOTH",
"228 358 OFFCURVE",
"278 451 OFFCURVE",
"317 451 QCURVE SMOOTH",
"353 451 OFFCURVE",
"383 417 OFFCURVE",
"384 399 QCURVE",
"390 397 OFFCURVE",
"396 397 QCURVE SMOOTH",
"403 397 OFFCURVE",
"404 401 QCURVE",
"409 416 OFFCURVE",
"409 462 QCURVE SMOOTH",
"409 469 OFFCURVE",
"408 469 QCURVE",
"365 481 OFFCURVE",
"321 481 QCURVE SMOOTH"
);
},
{
closed = 1;
nodes = (
"413 569 OFFCURVE",
"509 467 OFFCURVE",
"509 388 QCURVE SMOOTH",
"509 281 OFFCURVE",
"348 113 OFFCURVE",
"248 113 QCURVE SMOOTH",
"172 113 OFFCURVE",
"76 216 OFFCURVE",
"76 295 QCURVE SMOOTH",
"76 402 OFFCURVE",
"237 569 OFFCURVE",
"337 569 QCURVE SMOOTH"
);
},
{
closed = 1;
nodes = (
"226 615 OFFCURVE",
"34 415 OFFCURVE",
"34 286 QCURVE SMOOTH",
"34 192 OFFCURVE",
"148 69 OFFCURVE",
"239 69 QCURVE SMOOTH",
"359 69 OFFCURVE",
"552 269 OFFCURVE",
"552 398 QCURVE SMOOTH",
"552 492 OFFCURVE",
"437 615 OFFCURVE",
"346 615 QCURVE SMOOTH"
);
}
);
width = 574;
}
);
note = copyright;
unicode = 00A9;
},
{
glyphname = ordfeminine;
layers = (
{
layerId = "EE330C8E-4A1C-402A-831D-620872201BE1";
paths = (
{
closed = 1;
nodes = (
"174 554 OFFCURVE",
"36 385 OFFCURVE",
"36 318 QCURVE SMOOTH",
"36 247 OFFCURVE",
"106 247 QCURVE SMOOTH",
"150 247 OFFCURVE",
"199 301 QCURVE",
"200 302 LINE",
"201 302 OFFCURVE",
"201 300 OFFCURVE",
"204 285 QCURVE",
"217 247 OFFCURVE",
"251 247 QCURVE SMOOTH",
"287 247 OFFCURVE",
"339 301 OFFCURVE",
"349 326 QCURVE",
"347 333 OFFCURVE",
"332 346 OFFCURVE",
"328 346 QCURVE SMOOTH",
"327 346 OFFCURVE",
"315 326 OFFCURVE",
"299 307 OFFCURVE",
"294 307 QCURVE SMOOTH",
"280 307 OFFCURVE",
"280 325 QCURVE SMOOTH",
"280 331 OFFCURVE",
"282 339 QCURVE",
"320 539 LINE",
"314 543 OFFCURVE",
"261 554 OFFCURVE",
"239 554 QCURVE SMOOTH"
);
},
{
closed = 1;
nodes = (
"231 512 OFFCURVE",
"231 501 QCURVE SMOOTH",
"231 499 OFFCURVE",
"229 485 QCURVE SMOOTH",
"219 428 LINE SMOOTH",
"211 379 OFFCURVE",
"161 298 OFFCURVE",
"139 298 QCURVE SMOOTH",
"123 298 OFFCURVE",
"123 338 QCURVE SMOOTH",
"123 383 OFFCURVE",
"190 512 OFFCURVE",
"213 512 QCURVE SMOOTH"
);
}
);
width = 369;
}
);
note = ordfeminine;
unicode = 00AA;
},
{
glyphname = guillemotleft;
layers = (
{
layerId = "EE330C8E-4A1C-402A-831D-620872201BE1";
paths = (
{
closed = 1;
nodes = (
"348 347 OFFCURVE",
"211 268 QCURVE",
"198 255 OFFCURVE",
"198 238 QCURVE SMOOTH",
"198 228 OFFCURVE",
"202 227 QCURVE",
"255 184 OFFCURVE",
"340 108 OFFCURVE",
"373 75 OFFCURVE",
"374 73 QCURVE",
"383 75 OFFCURVE",
"412 90 OFFCURVE",
"412 99 QCURVE SMOOTH",
"412 107 OFFCURVE",
"358 177 QCURVE SMOOTH",
"305 248 LINE",
"387 319 LINE SMOOTH",
"471 392 OFFCURVE",
"471 399 QCURVE SMOOTH",
"471 407 OFFCURVE",
"449 422 OFFCURVE",
"443 423 QCURVE"
);
},
{
closed = 1;
nodes = (
"163 347 OFFCURVE",
"26 268 QCURVE",
"13 255 OFFCURVE",
"13 238 QCURVE SMOOTH",
"13 231 OFFCURVE",
"17 227 QCURVE",
"70 184 OFFCURVE",
"155 108 OFFCURVE",
"188 75 OFFCURVE",
"189 73 QCURVE",
"198 75 OFFCURVE",
"227 90 OFFCURVE",
"227 99 QCURVE SMOOTH",
"227 107 OFFCURVE",
"173 177 QCURVE SMOOTH",
"120 248 LINE",
"202 319 LINE SMOOTH",
"286 392 OFFCURVE",
"286 399 QCURVE SMOOTH",
"286 407 OFFCURVE",
"264 422 OFFCURVE",
"258 423 QCURVE"
);
}
);
width = 475;
}
);
note = guillemotleft;
unicode = 00AB;
},
{
glyphname = logicalnot;
layers = (
{
layerId = "EE330C8E-4A1C-402A-831D-620872201BE1";
paths = (
{
closed = 1;
nodes = (
"44 427 OFFCURVE",
"28 366 QCURVE",
"31 356 OFFCURVE",
"31 356 QCURVE",
"393 356 LINE SMOOTH",
"401 356 OFFCURVE",
"401 348 QCURVE SMOOTH",
"401 346 LINE",
"365 163 LINE SMOOTH",
"364 158 OFFCURVE",
"375 153 OFFCURVE",
"381 153 QCURVE SMOOTH",
"414 153 OFFCURVE",
"433 163 QCURVE",
"480 416 LINE SMOOTH",
"482 427 OFFCURVE",
"471 427 QCURVE SMOOTH",
"53 427 LINE SMOOTH"
);
}
);
width = 510;
}
);
note = logicalnot;
unicode = 00AC;
},
{
glyphname = registered;
layers = (
{
layerId = "EE330C8E-4A1C-402A-831D-620872201BE1";
paths = (
{
closed = 1;
nodes = (
"334 532 OFFCURVE",
"334 495 QCURVE SMOOTH",
"334 469 OFFCURVE",
"312 425 OFFCURVE",
"290 425 QCURVE SMOOTH",
"274 425 OFFCURVE",
"274 433 QCURVE SMOOTH",
"274 437 OFFCURVE",
"275 439 QCURVE",
"290 518 LINE",
"292 526 OFFCURVE",
"300 532 OFFCURVE",
"308 532 QCURVE SMOOTH"
);
},
{
closed = 1;
nodes = (
"310 554 OFFCURVE",
"278 553 OFFCURVE",
"266 553 QCURVE SMOOTH",
"241 553 OFFCURVE",
"205 555 QCURVE",
"202 552 OFFCURVE",
"202 544 QCURVE SMOOTH",
"202 540 OFFCURVE",
"203 540 QCURVE SMOOTH",
"207 540 OFFCURVE",
"224 532 OFFCURVE",
"224 529 QCURVE SMOOTH",
"224 524 OFFCURVE",
"220 496 QCURVE",
"189 332 LINE",
"187 317 OFFCURVE",
"179 299 QCURVE",
"177 296 OFFCURVE",
"157 288 OFFCURVE",
"153 288 QCURVE SMOOTH",
"151 288 OFFCURVE",
"151 280 QCURVE SMOOTH",
"151 273 LINE",
"157 273 OFFCURVE",
"200 277 OFFCURVE",
"222 277 OFFCURVE",
"244 275 QCURVE SMOOTH",
"267 273 LINE",
"271 279 OFFCURVE",
"271 286 QCURVE SMOOTH",
"271 288 OFFCURVE",
"270 288 QCURVE SMOOTH",
"267 288 LINE",
"264 289 OFFCURVE",
"255 293 OFFCURVE",
"252 297 QCURVE",
"250 299 OFFCURVE",
"250 305 QCURVE SMOOTH",
"250 314 OFFCURVE",
"251 318 QCURVE",
"266 393 LINE SMOOTH",
"267 399 OFFCURVE",
"271 399 QCURVE SMOOTH",
"276 399 OFFCURVE",
"279 394 QCURVE",
"281 391 OFFCURVE",
"286 378 OFFCURVE",
"296 354 OFFCURVE",
"302 341 QCURVE SMOOTH",
"313 318 OFFCURVE",
"328 296 OFFCURVE",
"370 272 OFFCURVE",
"402 272 QCURVE SMOOTH",
"411 272 OFFCURVE",
"414 274 QCURVE",
"417 280 OFFCURVE",
"417 288 QCURVE",
"392 288 OFFCURVE",
"363 342 QCURVE",
"348 373 OFFCURVE",
"337 401 QCURVE",
"337 402 OFFCURVE",
"336 402 OFFCURVE",
"336 403 QCURVE",
"338 405 LINE",
"361 415 OFFCURVE",
"399 469 OFFCURVE",
"399 497 QCURVE SMOOTH",
"399 527 OFFCURVE",
"350 554 OFFCURVE",
"321 554 QCURVE SMOOTH"
);
},
{
closed = 1;
nodes = (
"418 636 OFFCURVE",
"514 534 OFFCURVE",
"514 455 QCURVE SMOOTH",
"514 348 OFFCURVE",
"353 180 OFFCURVE",
"253 180 QCURVE SMOOTH",
"177 180 OFFCURVE",
"81 283 OFFCURVE",
"81 362 QCURVE SMOOTH",
"81 469 OFFCURVE",
"242 636 OFFCURVE",
"342 636 QCURVE SMOOTH"
);
},
{
closed = 1;
nodes = (
"231 682 OFFCURVE",
"39 482 OFFCURVE",
"39 353 QCURVE SMOOTH",
"39 259 OFFCURVE",
"153 136 OFFCURVE",
"244 136 QCURVE SMOOTH",
"364 136 OFFCURVE",
"557 336 OFFCURVE",
"557 465 QCURVE SMOOTH",
"557 559 OFFCURVE",
"442 682 OFFCURVE",
"351 682 QCURVE SMOOTH"
);
}
);
width = 568;
}
);
note = registered;
unicode = 00AE;
},
{
glyphname = macron;
layers = (
{
layerId = "EE330C8E-4A1C-402A-831D-620872201BE1";
paths = (
{
closed = 1;
nodes = (
"166 592 OFFCURVE",
"153 559 OFFCURVE",
"153 549 QCURVE SMOOTH",
"153 530 OFFCURVE",
"160 530 QCURVE SMOOTH",
"387 530 LINE",
"395 535 OFFCURVE",
"408 563 OFFCURVE",
"413 583 OFFCURVE",
"413 585 QCURVE SMOOTH",
"413 599 OFFCURVE",
"408 599 QCURVE SMOOTH",
"175 599 LINE"
);
}
);
width = 354;
}
);
note = macron;
unicode = 00AF;
},
{
glyphname = degree;
layers = (
{
layerId = "EE330C8E-4A1C-402A-831D-620872201BE1";
paths = (
{
closed = 1;
nodes = (
"243 590 OFFCURVE",
"263 567 OFFCURVE",
"263 549 QCURVE SMOOTH",
"263 524 OFFCURVE",
"228 482 OFFCURVE",
"202 482 QCURVE SMOOTH",
"182 482 OFFCURVE",
"162 505 OFFCURVE",
"162 523 QCURVE SMOOTH",
"162 548 OFFCURVE",
"197 590 OFFCURVE",
"223 590 QCURVE SMOOTH"
);
},
{
closed = 1;
nodes = (
"190 634 OFFCURVE",
"119 563 OFFCURVE",
"119 516 QCURVE SMOOTH",
"119 482 OFFCURVE",
"160 437 OFFCURVE",
"193 437 QCURVE SMOOTH",
"235 437 OFFCURVE",
"306 509 OFFCURVE",
"306 555 QCURVE SMOOTH",
"306 589 OFFCURVE",
"265 634 OFFCURVE",
"232 634 QCURVE SMOOTH"
);
}
);
width = 215;
}
);
note = degree;
unicode = 00B0;
},
{
glyphname = plusminus;
layers = (
{
layerId = "EE330C8E-4A1C-402A-831D-620872201BE1";
paths = (
{
closed = 1;
nodes = (
"35 85 OFFCURVE",
"35 57 QCURVE SMOOTH",
"35 39 OFFCURVE",
"39 39 QCURVE SMOOTH",
"464 39 LINE",
"490 65 OFFCURVE",
"490 93 QCURVE SMOOTH",
"490 111 OFFCURVE",
"486 111 QCURVE SMOOTH",
"61 111 OFFCURVE",
"61 111 QCURVE"
);
},
{
closed = 1;
nodes = (
"94 394 OFFCURVE",
"94 366 QCURVE SMOOTH",
"94 348 OFFCURVE",
"98 348 QCURVE SMOOTH",
"269 348 LINE SMOOTH",
"273 348 OFFCURVE",
"273 343 QCURVE",
"237 155 LINE",
"236 152 OFFCURVE",
"244 146 OFFCURVE",
"252 146 QCURVE SMOOTH",
"269 146 OFFCURVE",
"317 157 OFFCURVE",
"318 164 QCURVE",
"353 344 OFFCURVE",
"353 344 QCURVE",
"353 348 OFFCURVE",
"357 348 QCURVE SMOOTH",
"523 348 LINE",
"549 374 OFFCURVE",
"549 402 QCURVE SMOOTH",
"549 420 OFFCURVE",
"545 420 QCURVE SMOOTH",
"372 420 LINE SMOOTH",
"367 420 OFFCURVE",
"369 425 QCURVE",
"404 613 LINE",
"405 617 OFFCURVE",
"400 622 OFFCURVE",
"394 622 QCURVE SMOOTH",
"381 622 OFFCURVE",
"324 613 OFFCURVE",
"322 604 QCURVE SMOOTH",
"315 568 OFFCURVE",
"295 453 OFFCURVE",
"289 424 QCURVE",
"289 420 OFFCURVE",
"285 420 QCURVE SMOOTH",
"120 420 OFFCURVE",
"120 420 QCURVE"
);
}
);
width = 488;
}
);
note = plusminus;
unicode = 00B1;
},
{
glyphname = uni00B2;
layers = (
{
layerId = "EE330C8E-4A1C-402A-831D-620872201BE1";
paths = (
{
closed = 1;
nodes = (
"167 644 OFFCURVE",
"91 594 OFFCURVE",
"79 574 QCURVE",
"76 570 OFFCURVE",
"76 562 QCURVE SMOOTH",
"76 557 OFFCURVE",
"84 540 OFFCURVE",
"87 540 QCURVE SMOOTH",
"88 540 OFFCURVE",
"112 563 OFFCURVE",
"150 586 OFFCURVE",
"188 586 OFFCURVE",
"207 558 OFFCURVE",
"207 539 QCURVE SMOOTH",
"207 500 OFFCURVE",
"113 368 OFFCURVE",
"23 288 QCURVE",
"20 280 OFFCURVE",
"20 275 QCURVE SMOOTH",
"20 264 OFFCURVE",
"28 253 QCURVE",
"33 253 OFFCURVE",
"147 254 QCURVE SMOOTH",
"242 253 LINE",
"290 363 LINE",
"287 368 OFFCURVE",
"272 368 QCURVE SMOOTH",
"266 368 OFFCURVE",
"253 342 OFFCURVE",
"227 316 OFFCURVE",
"205 316 QCURVE SMOOTH",
"99 316 LINE SMOOTH",
"97 316 OFFCURVE",
"97 320 OFFCURVE",
"99 322 QCURVE",
"121 336 OFFCURVE",
"169 372 OFFCURVE",
"244 439 OFFCURVE",
"291 522 OFFCURVE",
"291 561 QCURVE SMOOTH",
"291 599 OFFCURVE",
"246 644 OFFCURVE",
"208 644 QCURVE SMOOTH"
);
}
);
width = 312;
}
);
note = uni00B2;
unicode = 00B2;
},
{
glyphname = uni00B3;
layers = (
{
layerId = "EE330C8E-4A1C-402A-831D-620872201BE1";
paths = (
{
closed = 1;
nodes = (
"94 282 OFFCURVE",
"68 315 OFFCURVE",
"57 315 QCURVE SMOOTH",
"40 315 OFFCURVE",
"17 287 OFFCURVE",
"17 259 OFFCURVE",
"63 246 OFFCURVE",
"82 246 QCURVE SMOOTH",
"161 246 OFFCURVE",
"270 341 OFFCURVE",
"270 399 QCURVE SMOOTH",
"270 436 OFFCURVE",
"212 472 OFFCURVE",
"188 472 QCURVE",
"221 489 OFFCURVE",
"276 556 OFFCURVE",
"276 588 QCURVE SMOOTH",
"276 616 OFFCURVE",
"235 645 OFFCURVE",
"213 645 QCURVE SMOOTH",
"181 645 OFFCURVE",
"108 605 OFFCURVE",
"88 580 QCURVE",
"84 576 OFFCURVE",
"96 559 OFFCURVE",
"102 559 QCURVE SMOOTH",
"104 559 OFFCURVE",
"152 596 OFFCURVE",
"170 596 QCURVE SMOOTH",
"181 596 OFFCURVE",
"196 579 OFFCURVE",
"196 564 QCURVE SMOOTH",
"196 551 OFFCURVE",
"188 521 OFFCURVE",
"145 478 OFFCURVE",
"108 470 QCURVE",
"104 464 OFFCURVE",
"104 456 QCURVE",
"103 450 OFFCURVE",
"106 440 QCURVE",
"127 440 LINE SMOOTH",
"188 440 OFFCURVE",
"188 390 QCURVE SMOOTH",
"188 356 OFFCURVE",
"150 282 OFFCURVE",
"109 282 QCURVE SMOOTH"
);
}
);
width = 290;
}
);
note = uni00B3;
unicode = 00B3;
},
{
glyphname = acute;
layers = (
{
layerId = "EE330C8E-4A1C-402A-831D-620872201BE1";
paths = (
{
closed = 1;
nodes = (
"233 687 OFFCURVE",
"228 681 QCURVE SMOOTH",
"209 658 OFFCURVE",
"146 546 OFFCURVE",
"146 539 QCURVE SMOOTH",
"146 535 OFFCURVE",
"155 522 OFFCURVE",
"158 522 QCURVE SMOOTH",
"171 522 OFFCURVE",
"305 628 OFFCURVE",
"305 652 QCURVE SMOOTH",
"305 661 OFFCURVE",
"279 687 OFFCURVE",
"260 687 QCURVE SMOOTH"
);
}
);
width = 216;
}
);
note = acute;
unicode = 00B4;
},
{
glyphname = paragraph;
layers = (
{
layerId = "EE330C8E-4A1C-402A-831D-620872201BE1";
paths = (
{
closed = 1;
nodes = (
"312 269 OFFCURVE",
"319 270 QCURVE",
"335 274 OFFCURVE",
"344 274 QCURVE SMOOTH",
"348 274 OFFCURVE",
"347 270 QCURVE",
"314 103 OFFCURVE",
"302 58 QCURVE",
"300 44 OFFCURVE",
"286 44 QCURVE SMOOTH",
"279 44 OFFCURVE",
"271 51 OFFCURVE",
"272 57 QCURVE SMOOTH",
"310 261 LINE"
);
},
{
closed = 1;
nodes = (
"250 652 OFFCURVE",
"123 558 OFFCURVE",
"104 460 QCURVE SMOOTH",
"88 375 OFFCURVE",
"156 263 OFFCURVE",
"234 263 QCURVE SMOOTH",
"243 263 OFFCURVE",
"252 261 OFFCURVE",
"251 256 QCURVE SMOOTH",
"237 183 LINE SMOOTH",
"214 68 OFFCURVE",
"207 50 QCURVE SMOOTH",
"204 43 OFFCURVE",
"163 28 OFFCURVE",
"155 28 QCURVE SMOOTH",
"152 28 OFFCURVE",
"146 1 OFFCURVE",
"147 -4 QCURVE",
"160 -3 OFFCURVE",
"203 0 OFFCURVE",
"240 2 OFFCURVE",
"259 2 QCURVE SMOOTH",
"293 2 OFFCURVE",
"390 -3 OFFCURVE",
"407 -4 QCURVE",
"412 1 OFFCURVE",
"415 18 QCURVE SMOOTH",
"417 30 OFFCURVE",
"414 30 QCURVE SMOOTH",
"404 30 OFFCURVE",
"369 44 OFFCURVE",
"368 52 QCURVE",
"367 69 OFFCURVE",
"399 251 OFFCURVE",
"407 290 QCURVE",
"407 291 OFFCURVE",
"413 294 QCURVE",
"428 298 OFFCURVE",
"439 304 QCURVE SMOOTH",
"458 315 OFFCURVE",
"462 333 QCURVE",
"465 344 OFFCURVE",
"463 352 QCURVE",
"422 343 LINE",
"417 343 OFFCURVE",
"418 348 QCURVE SMOOTH",
"420 357 OFFCURVE",
"441 468 OFFCURVE",
"447 500 QCURVE SMOOTH",
"465 593 OFFCURVE",
"470 604 QCURVE",
"475 612 OFFCURVE",
"513 622 OFFCURVE",
"525 622 QCURVE SMOOTH",
"529 622 OFFCURVE",
"537 650 OFFCURVE",
"534 654 QCURVE",
"420 648 LINE",
"392 648 OFFCURVE",
"346 652 OFFCURVE",
"318 652 QCURVE SMOOTH"
);
},
{
closed = 1;
nodes = (
"379 606 OFFCURVE",
"395 606 QCURVE SMOOTH",
"401 606 OFFCURVE",
"409 599 OFFCURVE",
"408 596 QCURVE",
"405 575 OFFCURVE",
"360 340 QCURVE SMOOTH",
"359 335 OFFCURVE",
"353 332 QCURVE SMOOTH",
"343 327 OFFCURVE",
"330 327 QCURVE SMOOTH",
"326 327 OFFCURVE",
"323 330 OFFCURVE",
"324 332 QCURVE",
"377 594 LINE SMOOTH"
);
}
);
width = 434;
}
);
note = paragraph;
unicode = 00B6;
},
{
glyphname = periodcentered;
layers = (
{
layerId = "EE330C8E-4A1C-402A-831D-620872201BE1";
paths = (
{
closed = 1;
nodes = (
"78 224 OFFCURVE",
"110 188 OFFCURVE",
"135 188 QCURVE SMOOTH",
"166 188 OFFCURVE",
"218 247 OFFCURVE",
"218 280 QCURVE SMOOTH",
"218 305 OFFCURVE",
"187 338 OFFCURVE",
"163 338 QCURVE SMOOTH",
"131 338 OFFCURVE",
"78 285 OFFCURVE",
"78 250 QCURVE SMOOTH"
);
}
);
width = 189;
}
);
note = periodcentered;
unicode = 00B7;
},
{
glyphname = cedilla;
layers = (
{
layerId = "EE330C8E-4A1C-402A-831D-620872201BE1";
paths = (
{
closed = 1;
nodes = (
"195 -9 OFFCURVE",
"164 -58 OFFCURVE",
"158 -67 QCURVE",
"155 -70 OFFCURVE",
"168 -85 OFFCURVE",
"170 -85 QCURVE",
"187 -78 OFFCURVE",
"204 -78 QCURVE SMOOTH",
"225 -78 OFFCURVE",
"225 -103 QCURVE SMOOTH",
"225 -119 OFFCURVE",
"198 -145 OFFCURVE",
"174 -145 QCURVE SMOOTH",
"161 -145 OFFCURVE",
"131 -124 OFFCURVE",
"122 -124 QCURVE SMOOTH",
"115 -124 OFFCURVE",
"100 -140 OFFCURVE",
"100 -150 QCURVE SMOOTH",
"100 -164 OFFCURVE",
"105 -175 QCURVE",
"118 -183 OFFCURVE",
"159 -183 QCURVE SMOOTH",
"194 -183 OFFCURVE",
"247 -159 OFFCURVE",
"273 -124 OFFCURVE",
"285 -93 OFFCURVE",
"285 -81 QCURVE SMOOTH",
"285 -60 OFFCURVE",
"258 -31 OFFCURVE",
"237 -31 QCURVE SMOOTH",
"228 -31 OFFCURVE",
"215 -32 QCURVE",
"237 -1 LINE",
"201 -1 LINE"
);
}
);
width = 30821;
}
);
note = cedilla;
unicode = 00B8;
},
{
glyphname = uni00B9;
layers = (
{
layerId = "EE330C8E-4A1C-402A-831D-620872201BE1";
paths = (
{
closed = 1;
nodes = (
"59 566 OFFCURVE",
"59 557 QCURVE SMOOTH",
"59 551 OFFCURVE",
"66 539 OFFCURVE",
"69 538 QCURVE",
"117 560 OFFCURVE",
"126 560 QCURVE SMOOTH",
"134 560 OFFCURVE",
"134 547 QCURVE SMOOTH",
"134 545 OFFCURVE",
"132 529 QCURVE",
"93 330 LINE SMOOTH",
"90 312 OFFCURVE",
"77 297 QCURVE SMOOTH",
"72 291 OFFCURVE",
"34 281 OFFCURVE",
"26 281 QCURVE SMOOTH",
"25 281 OFFCURVE",
"20 262 OFFCURVE",
"20 256 QCURVE SMOOTH",
"20 255 OFFCURVE",
"20 254 QCURVE",
"21 252 LINE",
"24 252 OFFCURVE",
"113 257 OFFCURVE",
"141 257 OFFCURVE",
"215 252 OFFCURVE",
"221 252 QCURVE",
"228 259 OFFCURVE",
"228 277 QCURVE SMOOTH",
"228 281 OFFCURVE",
"226 281 QCURVE SMOOTH",
"218 281 OFFCURVE",
"186 289 OFFCURVE",
"182 295 QCURVE",
"178 302 OFFCURVE",
"178 311 QCURVE SMOOTH",
"178 323 OFFCURVE",
"180 331 QCURVE",
"221 543 LINE SMOOTH",
"229 582 OFFCURVE",
"250 628 QCURVE",
"250 631 OFFCURVE",
"241 648 OFFCURVE",
"237 648 QCURVE SMOOTH",
"231 648 OFFCURVE",
"60 567 QCURVE"
);
}
);
width = 267;
}
);
note = uni00B9;
unicode = 00B9;
},
{
glyphname = ordmasculine;
layers = (
{
layerId = "EE330C8E-4A1C-402A-831D-620872201BE1";
paths = (
{
closed = 1;
nodes = (
"125 284 OFFCURVE",
"125 348 QCURVE SMOOTH",
"125 517 OFFCURVE",
"198 517 QCURVE SMOOTH",
"240 517 OFFCURVE",
"240 450 QCURVE SMOOTH",
"240 284 OFFCURVE",
"166 284 QCURVE SMOOTH"
);
},
{
closed = 1;
nodes = (
"39 315 OFFCURVE",
"103 247 OFFCURVE",
"153 247 QCURVE SMOOTH",
"222 247 OFFCURVE",
"327 364 OFFCURVE",
"327 433 QCURVE SMOOTH",
"327 485 OFFCURVE",
"263 554 OFFCURVE",
"213 554 QCURVE SMOOTH",
"147 554 OFFCURVE",
"39 440 OFFCURVE",
"39 367 QCURVE SMOOTH"
);
}
);
width = 342;
}
);
note = ordmasculine;
unicode = 00BA;
},
{
glyphname = guillemotright;
layers = (
{
layerId = "EE330C8E-4A1C-402A-831D-620872201BE1";
paths = (
{
closed = 1;
nodes = (
"91 421 OFFCURVE",
"62 405 OFFCURVE",
"62 387 OFFCURVE",
"115 319 QCURVE SMOOTH",
"169 248 LINE",
"88 177 LINE SMOOTH",
"27 124 OFFCURVE",
"4 102 OFFCURVE",
"4 97 QCURVE SMOOTH",
"4 89 OFFCURVE",
"26 74 OFFCURVE",
"32 73 QCURVE",
"33 75 OFFCURVE",
"79 109 OFFCURVE",
"192 185 OFFCURVE",
"262 228 QCURVE",
"275 234 OFFCURVE",
"275 256 QCURVE SMOOTH",
"275 263 OFFCURVE",
"272 269 QCURVE",
"185 337 OFFCURVE",
"99 423 QCURVE"
);
},
{
closed = 1;
nodes = (
"276 421 OFFCURVE",
"247 405 OFFCURVE",
"247 387 OFFCURVE",
"300 319 QCURVE SMOOTH",
"354 248 LINE",
"273 177 LINE SMOOTH",
"212 124 OFFCURVE",
"189 102 OFFCURVE",
"189 97 QCURVE SMOOTH",
"189 89 OFFCURVE",
"211 74 OFFCURVE",
"217 73 QCURVE",
"218 75 OFFCURVE",
"264 109 OFFCURVE",
"377 185 OFFCURVE",
"447 228 QCURVE",
"461 234 OFFCURVE",
"461 256 QCURVE SMOOTH",
"461 261 OFFCURVE",
"457 269 QCURVE",
"370 337 OFFCURVE",
"284 423 QCURVE"
);
}
);
width = 489;
}
);
note = guillemotright;
unicode = 00BB;
},
{
glyphname = onequarter;
layers = (
{
layerId = "EE330C8E-4A1C-402A-831D-620872201BE1";
paths = (
{
closed = 1;
nodes = (
"48 566 OFFCURVE",
"48 557 QCURVE SMOOTH",
"48 551 OFFCURVE",
"55 539 OFFCURVE",
"58 538 QCURVE",
"106 560 OFFCURVE",
"115 560 QCURVE SMOOTH",
"123 560 OFFCURVE",
"123 547 QCURVE SMOOTH",
"123 545 OFFCURVE",
"121 529 QCURVE",
"82 330 LINE SMOOTH",
"79 312 OFFCURVE",
"66 297 QCURVE SMOOTH",
"61 291 OFFCURVE",
"23 281 OFFCURVE",
"15 281 QCURVE SMOOTH",
"14 281 OFFCURVE",
"9 262 OFFCURVE",
"9 256 QCURVE SMOOTH",
"9 255 OFFCURVE",
"10 254 QCURVE",
"10 252 LINE",
"13 252 OFFCURVE",
"102 257 OFFCURVE",
"130 257 OFFCURVE",
"204 252 OFFCURVE",
"210 252 QCURVE",
"217 259 OFFCURVE",
"217 277 QCURVE SMOOTH",
"217 281 OFFCURVE",
"215 281 QCURVE SMOOTH",
"207 281 OFFCURVE",
"175 289 OFFCURVE",
"171 295 QCURVE",
"167 302 OFFCURVE",
"167 311 QCURVE SMOOTH",
"167 323 OFFCURVE",
"169 331 QCURVE",
"210 543 LINE SMOOTH",
"218 582 OFFCURVE",
"239 628 QCURVE",
"239 631 OFFCURVE",
"230 648 OFFCURVE",
"226 648 QCURVE SMOOTH",
"220 648 OFFCURVE",
"49 567 QCURVE"
);
},
{
closed = 1;
nodes = (
"588 617 OFFCURVE",
"588 622 QCURVE SMOOTH",
"588 630 OFFCURVE",
"558 646 OFFCURVE",
"551 644 QCURVE",
"108 12 LINE",
"106 10 OFFCURVE",
"106 6 QCURVE SMOOTH",
"106 -2 OFFCURVE",
"134 -14 OFFCURVE",
"142 -13 QCURVE",
"587 616 LINE"
);
},
{
closed = 1;
nodes = (
"311 123 LINE",
"307 104 OFFCURVE",
"314 100 QCURVE",
"459 100 LINE SMOOTH",
"464 100 OFFCURVE",
"464 97 QCURVE SMOOTH",
"464 96 LINE",
"445 3 LINE",
"445 2 OFFCURVE",
"449 0 OFFCURVE",
"456 -1 OFFCURVE",
"466 -2 OFFCURVE",
"478 -3 OFFCURVE",
"484 -3 QCURVE SMOOTH",
"506 -3 OFFCURVE",
"528 2 QCURVE",
"547 95 LINE",
"549 100 OFFCURVE",
"551 100 QCURVE SMOOTH",
"575 100 LINE",
"588 116 OFFCURVE",
"588 140 QCURVE SMOOTH",
"588 156 OFFCURVE",
"582 156 QCURVE SMOOTH",
"563 156 LINE SMOOTH",
"559 156 OFFCURVE",
"559 159 QCURVE SMOOTH",
"559 160 LINE",
"604 391 LINE",
"604 393 OFFCURVE",
"599 396 OFFCURVE",
"593 397 OFFCURVE",
"588 397 QCURVE SMOOTH",
"578 397 OFFCURVE",
"569 388 QCURVE SMOOTH"
);
},
{
closed = 1;
nodes = (
"393 156 OFFCURVE",
"393 162 QCURVE SMOOTH",
"393 163 OFFCURVE",
"394 164 QCURVE SMOOTH",
"493 266 LINE",
"495 267 LINE",
"496 267 OFFCURVE",
"496 261 QCURVE",
"476 160 LINE",
"475 156 OFFCURVE",
"470 156 QCURVE SMOOTH",
"396 156 LINE SMOOTH"
);
}
);
width = 632;
}
);
note = onequarter;
unicode = 00BC;
},
{
glyphname = onehalf;
layers = (
{
layerId = "EE330C8E-4A1C-402A-831D-620872201BE1";
paths = (
{
closed = 1;
nodes = (
"570 617 OFFCURVE",
"570 622 QCURVE SMOOTH",
"570 630 OFFCURVE",
"540 646 OFFCURVE",
"533 644 QCURVE",
"90 12 LINE",
"88 10 OFFCURVE",
"88 6 QCURVE SMOOTH",
"88 -2 OFFCURVE",
"116 -14 OFFCURVE",
"124 -13 QCURVE",
"569 616 OFFCURVE",
"569 616 QCURVE"
);
},
{
closed = 1;
nodes = (
"529 332 OFFCURVE",
"547 295 OFFCURVE",
"543 274 QCURVE SMOOTH",
"525 181 OFFCURVE",
"360 34 QCURVE",
"352 15 OFFCURVE",
"365 -1 QCURVE",
"370 -1 OFFCURVE",
"484 0 QCURVE SMOOTH",
"579 -1 LINE",
"627 109 LINE",
"624 114 OFFCURVE",
"609 114 QCURVE SMOOTH",
"605 114 OFFCURVE",
"602 110 QCURVE",
"600 107 OFFCURVE",
"587 86 OFFCURVE",
"581 79 OFFCURVE",
"568 66 OFFCURVE",
"552 62 OFFCURVE",
"542 62 QCURVE SMOOTH",
"436 62 LINE SMOOTH",
"430 62 OFFCURVE",
"436 68 QCURVE",
"500 108 OFFCURVE",
"614 223 OFFCURVE",
"625 280 QCURVE SMOOTH",
"635 329 OFFCURVE",
"590 390 OFFCURVE",
"545 390 QCURVE SMOOTH",
"504 390 OFFCURVE",
"431 341 OFFCURVE",
"416 320 QCURVE",
"415 317 LINE",
"414 313 OFFCURVE",
"413 310 QCURVE",
"412 305 OFFCURVE",
"419 286 OFFCURVE",
"424 286 QCURVE SMOOTH",
"425 286 OFFCURVE",
"449 309 OFFCURVE",
"487 332 OFFCURVE",
"506 332 QCURVE SMOOTH"
);
},
{
closed = 1;
nodes = (
"107 560 OFFCURVE",
"114 560 QCURVE SMOOTH",
"126 560 OFFCURVE",
"120 529 QCURVE SMOOTH",
"81 330 LINE SMOOTH",
"78 314 OFFCURVE",
"64 297 QCURVE SMOOTH",
"59 291 OFFCURVE",
"22 281 OFFCURVE",
"14 281 QCURVE SMOOTH",
"12 281 OFFCURVE",
"6 254 OFFCURVE",
"8 252 QCURVE",
"11 252 OFFCURVE",
"100 257 OFFCURVE",
"128 257 OFFCURVE",
"203 252 OFFCURVE",
"209 252 QCURVE",
"211 254 OFFCURVE",
"215 266 QCURVE SMOOTH",
"216 269 OFFCURVE",
"215 281 OFFCURVE",
"214 281 QCURVE SMOOTH",
"206 281 OFFCURVE",
"174 289 OFFCURVE",
"170 295 QCURVE SMOOTH",
"163 306 OFFCURVE",
"168 331 QCURVE SMOOTH",
"209 543 LINE SMOOTH",
"217 582 OFFCURVE",
"238 628 QCURVE",
"238 631 OFFCURVE",
"229 648 OFFCURVE",
"226 648 QCURVE SMOOTH",
"225 648 LINE SMOOTH",
"222 648 OFFCURVE",
"62 572 QCURVE",
"60 570 OFFCURVE",
"60 563 QCURVE",
"59 557 OFFCURVE",
"67 544 OFFCURVE",
"70 543 QCURVE"
);
}
);
width = 667;
}
);
note = onehalf;
unicode = 00BD;
},
{
glyphname = threequarters;
layers = (
{
layerId = "EE330C8E-4A1C-402A-831D-620872201BE1";
paths = (
{
closed = 1;
nodes = (
"585 617 OFFCURVE",
"585 622 QCURVE SMOOTH",
"585 630 OFFCURVE",
"555 646 OFFCURVE",
"548 644 QCURVE",
"105 12 LINE",
"103 10 OFFCURVE",
"103 6 QCURVE SMOOTH",
"103 -2 OFFCURVE",
"131 -14 OFFCURVE",
"139 -13 QCURVE",
"584 616 OFFCURVE",
"584 616 QCURVE"
);
},
{
closed = 1;
nodes = (
"172 645 OFFCURVE",
"100 605 OFFCURVE",
"80 580 QCURVE",
"76 576 OFFCURVE",
"89 559 OFFCURVE",
"95 559 QCURVE SMOOTH",
"97 559 OFFCURVE",
"143 596 OFFCURVE",
"161 596 QCURVE SMOOTH",
"174 596 OFFCURVE",
"190 574 OFFCURVE",
"187 554 QCURVE",
"174 487 OFFCURVE",
"100 470 QCURVE",
"95 462 OFFCURVE",
"95 456 QCURVE",
"94 450 OFFCURVE",
"97 440 QCURVE",
"118 440 LINE SMOOTH",
"154 440 OFFCURVE",
"185 406 OFFCURVE",
"169 324 OFFCURVE",
"128 282 OFFCURVE",
"100 282 QCURVE SMOOTH",
"85 282 OFFCURVE",
"59 315 OFFCURVE",
"37 315 OFFCURVE",
"12 297 OFFCURVE",
"10 284 QCURVE SMOOTH",
"8 272 OFFCURVE",
"10 266 QCURVE",
"28 246 OFFCURVE",
"74 246 QCURVE SMOOTH",
"136 246 OFFCURVE",
"246 317 OFFCURVE",
"259 382 QCURVE SMOOTH",
"268 428 OFFCURVE",
"208 472 OFFCURVE",
"180 472 QCURVE",
"205 485 OFFCURVE",
"260 541 OFFCURVE",
"267 574 QCURVE SMOOTH",
"274 609 OFFCURVE",
"230 645 OFFCURVE",
"204 645 QCURVE SMOOTH"
);
},
{
closed = 1;
nodes = (
"503 -3 OFFCURVE",
"525 2 QCURVE",
"542 93 LINE",
"544 98 OFFCURVE",
"547 98 QCURVE SMOOTH",
"570 98 LINE",
"577 104 LINE",
"581 128 OFFCURVE",
"583 151 OFFCURVE",
"578 154 QCURVE",
"560 154 LINE",
"556 155 OFFCURVE",
"554 156 OFFCURVE",
"555 158 QCURVE",
"600 391 LINE",
"601 395 OFFCURVE",
"593 398 OFFCURVE",
"586 398 QCURVE SMOOTH",
"575 398 OFFCURVE",
"565 388 QCURVE SMOOTH",
"307 123 LINE",
"303 104 OFFCURVE",
"310 100 QCURVE",
"455 100 LINE SMOOTH",
"460 100 OFFCURVE",
"460 97 QCURVE",
"442 3 LINE",
"442 2 OFFCURVE",
"446 0 OFFCURVE",
"453 -1 OFFCURVE",
"463 -2 OFFCURVE",
"475 -3 OFFCURVE",
"481 -3 QCURVE SMOOTH"
);
},
{
closed = 1;
nodes = (
"492 267 OFFCURVE",
"492 261 QCURVE",
"473 160 LINE",
"473 159 OFFCURVE",
"466 156 QCURVE",
"393 156 LINE SMOOTH",
"390 156 OFFCURVE",
"390 162 QCURVE SMOOTH",
"390 163 OFFCURVE",
"391 164 QCURVE SMOOTH",
"490 266 LINE",
"493 267 LINE"
);
}
);
width = 628;
}
);
note = threequarters;
unicode = 00BE;
},
{
glyphname = questiondown;
layers = (
{
layerId = "EE330C8E-4A1C-402A-831D-620872201BE1";
paths = (
{
closed = 1;
nodes = (
"332 415 OFFCURVE",
"297 450 OFFCURVE",
"274 450 QCURVE SMOOTH",
"243 450 OFFCURVE",
"192 393 OFFCURVE",
"192 358 QCURVE SMOOTH",
"192 332 OFFCURVE",
"224 300 OFFCURVE",
"249 300 QCURVE SMOOTH",
"280 300 OFFCURVE",
"332 353 OFFCURVE",
"332 388 QCURVE SMOOTH"
);
},
{
closed = 1;
nodes = (
"159 221 OFFCURVE",
"208 185 OFFCURVE",
"208 168 QCURVE SMOOTH",
"208 143 OFFCURVE",
"169 127 QCURVE SMOOTH",
"111 101 OFFCURVE",
"66 76 QCURVE SMOOTH",
"34 59 OFFCURVE",
"-10 -20 OFFCURVE",
"-10 -61 QCURVE SMOOTH",
"-10 -125 OFFCURVE",
"86 -207 OFFCURVE",
"151 -207 QCURVE SMOOTH",
"204 -207 OFFCURVE",
"234 -170 QCURVE",
"247 -142 OFFCURVE",
"224 -83 OFFCURVE",
"191 -83 QCURVE SMOOTH",
"176 -83 OFFCURVE",
"131 -128 OFFCURVE",
"116 -128 QCURVE SMOOTH",
"67 -128 OFFCURVE",
"67 -76 QCURVE SMOOTH",
"67 -33 OFFCURVE",
"119 -10 QCURVE SMOOTH",
"220 35 LINE SMOOTH",
"246 47 OFFCURVE",
"288 98 OFFCURVE",
"288 139 QCURVE SMOOTH",
"288 176 OFFCURVE",
"196 244 OFFCURVE",
"172 244 QCURVE",
"159 236 OFFCURVE",
"159 224 QCURVE SMOOTH"
);
}
);
width = 346;
}
);
note = questiondown;
unicode = 00BF;
},
{
glyphname = AE;
layers = (
{
layerId = "EE330C8E-4A1C-402A-831D-620872201BE1";
paths = (
{
closed = 1;
nodes = (
"564 657 OFFCURVE",
"521 658 OFFCURVE",
"510 659 QCURVE SMOOTH",
"500 660 LINE",
"499 660 OFFCURVE",
"494 640 OFFCURVE",
"494 634 QCURVE SMOOTH",
"494 624 OFFCURVE",
"508 624 OFFCURVE",
"517 623 OFFCURVE",
"529 610 OFFCURVE",
"527 598 QCURVE",
"522 574 OFFCURVE",
"451 494 QCURVE SMOOTH",
"137 134 LINE",
"78 67 LINE SMOOTH",
"61 49 OFFCURVE",
"8 29 OFFCURVE",
"-5 29 QCURVE SMOOTH",
"-6 29 OFFCURVE",
"-11 13 OFFCURVE",
"-11 8 QCURVE SMOOTH",
"-11 -2 OFFCURVE",
"-10 -4 QCURVE",
"5 -3 OFFCURVE",
"55 0 OFFCURVE",
"96 2 OFFCURVE",
"115 2 QCURVE SMOOTH",
"139 2 OFFCURVE",
"207 -4 OFFCURVE",
"215 -4 QCURVE",
"223 16 OFFCURVE",
"223 26 QCURVE SMOOTH",
"223 30 OFFCURVE",
"221 30 QCURVE SMOOTH",
"200 30 OFFCURVE",
"169 42 QCURVE SMOOTH",
"156 47 OFFCURVE",
"156 60 QCURVE SMOOTH",
"156 65 OFFCURVE",
"162 77 OFFCURVE",
"174 93 OFFCURVE",
"184 105 OFFCURVE",
"203 126 OFFCURVE",
"207 131 QCURVE",
"275 207 LINE",
"280 212 OFFCURVE",
"284 212 QCURVE SMOOTH",
"317 213 OFFCURVE",
"378 213 QCURVE SMOOTH",
"429 213 OFFCURVE",
"463 211 QCURVE",
"470 211 OFFCURVE",
"469 207 QCURVE",
"466 157 OFFCURVE",
"463 134 QCURVE SMOOTH",
"455 68 OFFCURVE",
"451 55 QCURVE",
"448 47 OFFCURVE",
"408 32 OFFCURVE",
"398 32 QCURVE SMOOTH",
"394 32 OFFCURVE",
"392 13 QCURVE SMOOTH",
"391 3 OFFCURVE",
"394 -4 QCURVE",
"525 2 LINE",
"566 2 OFFCURVE",
"790 -2 OFFCURVE",
"842 -2 QCURVE",
"849 20 OFFCURVE",
"916 170 QCURVE",
"912 176 OFFCURVE",
"889 176 QCURVE SMOOTH",
"878 176 OFFCURVE",
"875 170 QCURVE SMOOTH",
"860 139 OFFCURVE",
"818 90 OFFCURVE",
"802 82 QCURVE SMOOTH",
"748 54 OFFCURVE",
"687 54 QCURVE SMOOTH",
"662 54 LINE SMOOTH",
"603 54 OFFCURVE",
"600 70 QCURVE SMOOTH",
"595 94 OFFCURVE",
"600 141 QCURVE SMOOTH",
"616 295 LINE SMOOTH",
"617 304 OFFCURVE",
"684 304 QCURVE SMOOTH",
"745 304 OFFCURVE",
"756 296 QCURVE",
"757 296 OFFCURVE",
"762 292 OFFCURVE",
"764 290 OFFCURVE",
"768 282 OFFCURVE",
"770 272 OFFCURVE",
"774 252 OFFCURVE",
"776 238 QCURVE",
"778 230 OFFCURVE",
"790 230 QCURVE SMOOTH",
"806 230 OFFCURVE",
"810 234 QCURVE",
"829 423 LINE",
"826 428 OFFCURVE",
"810 428 QCURVE SMOOTH",
"797 428 OFFCURVE",
"794 421 QCURVE",
"778 374 OFFCURVE",
"765 365 QCURVE SMOOTH",
"756 359 OFFCURVE",
"712 359 QCURVE SMOOTH",
"663 359 LINE SMOOTH",
"623 359 OFFCURVE",
"623 367 QCURVE SMOOTH",
"623 368 LINE",
"639 519 LINE SMOOTH",
"643 570 OFFCURVE",
"652 597 QCURVE",
"655 610 OFFCURVE",
"714 610 QCURVE SMOOTH",
"765 610 LINE SMOOTH",
"804 610 OFFCURVE",
"871 560 OFFCURVE",
"877 518 QCURVE SMOOTH",
"878 511 OFFCURVE",
"889 511 QCURVE SMOOTH",
"906 511 OFFCURVE",
"911 516 QCURVE",
"911 576 OFFCURVE",
"915 664 QCURVE",
"863 664 OFFCURVE",
"632 657 OFFCURVE",
"591 657 QCURVE SMOOTH"
);
},
{
closed = 1;
nodes = (
"481 280 LINE",
"479 275 OFFCURVE",
"476 275 QCURVE",
"446 273 OFFCURVE",
"407 273 QCURVE SMOOTH",
"362 273 OFFCURVE",
"337 276 QCURVE",
"336 277 OFFCURVE",
"337 279 OFFCURVE",
"338 280 QCURVE",
"503 469 LINE"
);
}
);
width = 931;
}
);
note = AE;
unicode = 00C6;
},
{
glyphname = Eth;
layers = (
{
layerId = "EE330C8E-4A1C-402A-831D-620872201BE1";
paths = (
{
closed = 1;
nodes = (
"253 351 LINE",
"287 524 LINE",
"294 568 OFFCURVE",
"311 587 QCURVE SMOOTH",
"325 603 OFFCURVE",
"405 603 QCURVE SMOOTH",
"409 603 LINE SMOOTH",
"489 603 OFFCURVE",
"551 450 OFFCURVE",
"530 340 QCURVE SMOOTH",
"502 197 OFFCURVE",
"387 53 OFFCURVE",
"309 53 QCURVE SMOOTH",
"223 53 OFFCURVE",
"206 66 QCURVE SMOOTH",
"199 71 OFFCURVE",
"212 136 QCURVE SMOOTH",
"239 279 LINE",
"361 279 LINE",
"362 279 LINE SMOOTH",
"364 279 OFFCURVE",
"368 282 OFFCURVE",
"369 285 QCURVE",
"384 319 OFFCURVE",
"390 344 QCURVE",
"391 351 OFFCURVE",
"384 351 QCURVE SMOOTH"
);
},
{
closed = 1;
nodes = (
"75 351 LINE",
"74 351 LINE SMOOTH",
"72 351 OFFCURVE",
"68 349 OFFCURVE",
"67 346 QCURVE",
"59 328 OFFCURVE",
"49 289 QCURVE",
"52 279 LINE",
"109 279 LINE",
"81 135 LINE SMOOTH",
"71 80 OFFCURVE",
"60 54 QCURVE",
"55 46 OFFCURVE",
"11 32 OFFCURVE",
"0 32 QCURVE SMOOTH",
"-3 32 OFFCURVE",
"-8 13 QCURVE",
"-10 3 OFFCURVE",
"-7 -4 QCURVE",
"125 2 LINE",
"159 2 OFFCURVE",
"265 -3 OFFCURVE",
"283 -3 QCURVE SMOOTH",
"433 -3 OFFCURVE",
"643 191 OFFCURVE",
"671 336 QCURVE",
"678 385 OFFCURVE",
"675 477 OFFCURVE",
"636 560 OFFCURVE",
"575 623 OFFCURVE",
"476 659 OFFCURVE",
"413 659 QCURVE SMOOTH",
"251 659 LINE SMOOTH",
"189 659 OFFCURVE",
"124 664 QCURVE",
"119 659 OFFCURVE",
"117 643 QCURVE SMOOTH",
"115 628 OFFCURVE",
"117 628 QCURVE SMOOTH",
"126 628 OFFCURVE",
"165 607 OFFCURVE",
"166 599 QCURVE",
"167 582 OFFCURVE",
"156 521 QCURVE SMOOTH",
"123 351 LINE"
);
}
);
width = 689;
}
);
note = Eth;
unicode = 00D0;
},
{
glyphname = multiply;
layers = (
{
layerId = "EE330C8E-4A1C-402A-831D-620872201BE1";
paths = (
{
closed = 1;
nodes = (
"49 54 OFFCURVE",
"52 57 QCURVE",
"205 192 LINE",
"207 194 OFFCURVE",
"209 194 QCURVE SMOOTH",
"210 194 OFFCURVE",
"212 192 QCURVE",
"309 60 LINE",
"310 57 OFFCURVE",
"322 57 OFFCURVE",
"364 102 OFFCURVE",
"364 112 QCURVE",
"269 245 LINE",
"268 246 OFFCURVE",
"268 248 OFFCURVE",
"270 250 QCURVE",
"417 382 LINE",
"417 395 OFFCURVE",
"395 438 OFFCURVE",
"389 438 QCURVE SMOOTH",
"386 438 OFFCURVE",
"383 435 QCURVE",
"232 301 LINE",
"231 300 OFFCURVE",
"230 300 QCURVE SMOOTH",
"228 300 OFFCURVE",
"226 302 QCURVE",
"129 434 LINE",
"125 438 OFFCURVE",
"120 438 QCURVE SMOOTH",
"114 438 OFFCURVE",
"73 390 OFFCURVE",
"73 380 QCURVE",
"169 251 LINE",
"170 250 OFFCURVE",
"170 246 QCURVE SMOOTH",
"170 245 OFFCURVE",
"168 243 QCURVE",
"17 109 LINE",
"17 97 OFFCURVE",
"37 54 OFFCURVE",
"44 54 QCURVE SMOOTH"
);
}
);
width = 421;
}
);
note = multiply;
unicode = 00D7;
},
{
glyphname = Oslash;
layers = (
{
layerId = "EE330C8E-4A1C-402A-831D-620872201BE1";
paths = (
{
closed = 1;
nodes = (
"438 611 OFFCURVE",
"469 560 QCURVE",
"182 149 LINE",
"172 188 OFFCURVE",
"172 238 QCURVE SMOOTH",
"172 397 OFFCURVE",
"294 611 OFFCURVE",
"374 611 QCURVE SMOOTH"
);
},
{
closed = 1;
nodes = (
"306 667 OFFCURVE",
"134 552 OFFCURVE",
"27 360 OFFCURVE",
"27 256 QCURVE SMOOTH",
"27 125 OFFCURVE",
"111 49 QCURVE",
"95 26 LINE",
"93 24 OFFCURVE",
"93 19 QCURVE SMOOTH",
"93 12 OFFCURVE",
"121 -1 OFFCURVE",
"129 0 QCURVE",
"145 23 LINE",
"200 -10 OFFCURVE",
"267 -10 QCURVE SMOOTH",
"359 -10 OFFCURVE",
"532 105 OFFCURVE",
"639 296 OFFCURVE",
"639 400 QCURVE SMOOTH",
"639 530 OFFCURVE",
"557 606 QCURVE",
"581 640 LINE",
"582 642 OFFCURVE",
"582 646 QCURVE SMOOTH",
"582 654 OFFCURVE",
"552 671 OFFCURVE",
"545 669 QCURVE",
"521 634 LINE",
"466 667 OFFCURVE",
"398 667 QCURVE SMOOTH"
);
},
{
closed = 1;
nodes = (
"232 46 OFFCURVE",
"200 101 QCURVE",
"489 510 LINE",
"496 478 OFFCURVE",
"496 435 QCURVE SMOOTH",
"496 383 OFFCURVE",
"473 258 OFFCURVE",
"428 131 OFFCURVE",
"345 46 OFFCURVE",
"293 46 QCURVE SMOOTH"
);
}
);
width = 650;
}
);
note = Oslash;
unicode = 00D8;
},
{
glyphname = Thorn;
layers = (
{
layerId = "EE330C8E-4A1C-402A-831D-620872201BE1";
paths = (
{
closed = 1;
nodes = (
"324 141 OFFCURVE",
"409 168 OFFCURVE",
"481 220 OFFCURVE",
"525 308 OFFCURVE",
"525 363 QCURVE SMOOTH",
"525 430 OFFCURVE",
"429 520 OFFCURVE",
"354 520 QCURVE SMOOTH",
"336 520 OFFCURVE",
"304 517 OFFCURVE",
"286 514 OFFCURVE",
"285 514 QCURVE SMOOTH",
"283 514 OFFCURVE",
"283 519 QCURVE SMOOTH",
"283 525 OFFCURVE",
"298 586 OFFCURVE",
"306 604 QCURVE SMOOTH",
"309 611 OFFCURVE",
"358 628 OFFCURVE",
"366 628 QCURVE SMOOTH",
"373 628 OFFCURVE",
"373 662 QCURVE",
"259 656 OFFCURVE",
"247 656 QCURVE SMOOTH",
"245 656 OFFCURVE",
"119 662 QCURVE",
"116 653 LINE SMOOTH",
"113 644 OFFCURVE",
"111 629 OFFCURVE",
"114 628 QCURVE",
"124 628 OFFCURVE",
"159 611 OFFCURVE",
"162 603 QCURVE",
"163 601 OFFCURVE",
"163 594 QCURVE SMOOTH",
"163 592 OFFCURVE",
"154 525 QCURVE",
"78 135 LINE SMOOTH",
"69 83 OFFCURVE",
"56 55 QCURVE SMOOTH",
"44 30 OFFCURVE",
"-5 30 QCURVE SMOOTH",
"-11 30 OFFCURVE",
"-11 6 QCURVE SMOOTH",
"-11 -3 OFFCURVE",
"-10 -4 QCURVE",
"4 -3 OFFCURVE",
"96 4 OFFCURVE",
"121 4 QCURVE SMOOTH",
"145 4 OFFCURVE",
"234 -4 OFFCURVE",
"243 -4 QCURVE",
"245 0 OFFCURVE",
"250 28 OFFCURVE",
"247 30 QCURVE",
"240 30 OFFCURVE",
"201 48 OFFCURVE",
"200 55 QCURVE",
"200 62 LINE SMOOTH",
"200 93 OFFCURVE",
"209 138 QCURVE",
"209 139 OFFCURVE",
"211 143 QCURVE",
"211 145 OFFCURVE",
"214 145 QCURVE SMOOTH",
"219 145 OFFCURVE",
"262 141 OFFCURVE",
"280 141 QCURVE SMOOTH"
);
},
{
closed = 1;
nodes = (
"225 192 OFFCURVE",
"225 217 QCURVE SMOOTH",
"225 220 OFFCURVE",
"226 227 OFFCURVE",
"226 228 QCURVE",
"265 430 LINE SMOOTH",
"273 469 OFFCURVE",
"332 469 QCURVE SMOOTH",
"383 469 OFFCURVE",
"383 371 QCURVE SMOOTH",
"383 306 OFFCURVE",
"324 192 OFFCURVE",
"283 192 QCURVE SMOOTH"
);
}
);
width = 537;
}
);
note = Thorn;
unicode = 00DE;
},
{
glyphname = germandbls;
layers = (
{
layerId = "EE330C8E-4A1C-402A-831D-620872201BE1";
paths = (
{
closed = 1;
nodes = (
"348 696 OFFCURVE",
"190 547 OFFCURVE",
"170 446 QCURVE SMOOTH",
"167 430 OFFCURVE",
"161 430 QCURVE SMOOTH",
"144 430 LINE SMOOTH",
"124 430 OFFCURVE",
"86 393 OFFCURVE",
"86 382 QCURVE SMOOTH",
"86 372 OFFCURVE",
"92 372 QCURVE SMOOTH",
"151 372 LINE SMOOTH",
"155 372 OFFCURVE",
"155 369 QCURVE SMOOTH",
"155 368 OFFCURVE",
"154 365 QCURVE",
"154 362 LINE",
"84 1 LINE SMOOTH",
"77 -37 OFFCURVE",
"66 -80 OFFCURVE",
"48 -136 OFFCURVE",
"23 -163 OFFCURVE",
"8 -163 QCURVE SMOOTH",
"-5 -163 OFFCURVE",
"-22 -138 OFFCURVE",
"-31 -107 OFFCURVE",
"-50 -82 OFFCURVE",
"-64 -82 QCURVE SMOOTH",
"-97 -82 OFFCURVE",
"-124 -144 OFFCURVE",
"-123 -179 QCURVE",
"-119 -193 OFFCURVE",
"-69 -218 OFFCURVE",
"-33 -218 QCURVE SMOOTH",
"62 -218 OFFCURVE",
"182 -92 OFFCURVE",
"204 21 QCURVE SMOOTH",
"292 475 LINE SMOOTH",
"298 505 OFFCURVE",
"307 544 OFFCURVE",
"323 593 OFFCURVE",
"341 622 OFFCURVE",
"370 642 OFFCURVE",
"387 642 QCURVE SMOOTH",
"470 642 OFFCURVE",
"453 549 QCURVE SMOOTH",
"441 489 OFFCURVE",
"395 445 QCURVE",
"388 439 OFFCURVE",
"355 409 OFFCURVE",
"340 392 OFFCURVE",
"319 362 OFFCURVE",
"310 327 OFFCURVE",
"310 305 QCURVE SMOOTH",
"310 284 OFFCURVE",
"327 246 OFFCURVE",
"345 226 OFFCURVE",
"361 210 QCURVE SMOOTH",
"368 203 OFFCURVE",
"400 176 OFFCURVE",
"416 160 OFFCURVE",
"430 133 OFFCURVE",
"430 118 QCURVE SMOOTH",
"430 111 OFFCURVE",
"428 94 OFFCURVE",
"421 69 OFFCURVE",
"403 53 OFFCURVE",
"391 53 QCURVE SMOOTH",
"374 53 OFFCURVE",
"353 77 OFFCURVE",
"343 106 OFFCURVE",
"318 130 OFFCURVE",
"298 130 QCURVE SMOOTH",
"281 130 OFFCURVE",
"258 106 OFFCURVE",
"250 68 OFFCURVE",
"248 46 OFFCURVE",
"248 36 QCURVE",
"253 22 OFFCURVE",
"335 -7 OFFCURVE",
"388 -7 QCURVE SMOOTH",
"450 -7 OFFCURVE",
"541 95 OFFCURVE",
"541 149 QCURVE SMOOTH",
"541 185 OFFCURVE",
"495 253 OFFCURVE",
"467 271 QCURVE",
"408 313 OFFCURVE",
"408 361 QCURVE SMOOTH",
"408 383 OFFCURVE",
"425 415 OFFCURVE",
"446 431 OFFCURVE",
"465 442 QCURVE SMOOTH",
"488 455 OFFCURVE",
"504 466 OFFCURVE",
"539 497 OFFCURVE",
"559 537 OFFCURVE",
"564 565 QCURVE SMOOTH",
"575 624 OFFCURVE",
"491 696 OFFCURVE",
"428 696 QCURVE SMOOTH"
);
}
);
width = 537;
}
);
note = germandbls;
unicode = 00DF;
},
{
glyphname = ae;
layers = (
{
layerId = "EE330C8E-4A1C-402A-831D-620872201BE1";
paths = (
{
closed = 1;
nodes = (
"427 449 OFFCURVE",
"366 406 QCURVE",
"338 449 OFFCURVE",
"274 449 QCURVE SMOOTH",
"206 449 OFFCURVE",
"73 362 OFFCURVE",
"73 317 QCURVE SMOOTH",
"73 278 OFFCURVE",
"116 278 QCURVE SMOOTH",
"135 278 OFFCURVE",
"170 296 OFFCURVE",
"172 306 QCURVE SMOOTH",
"178 342 OFFCURVE",
"223 389 OFFCURVE",
"245 389 QCURVE SMOOTH",
"271 389 OFFCURVE",
"271 342 QCURVE SMOOTH",
"271 325 OFFCURVE",
"268 307 QCURVE SMOOTH",
"259 259 LINE SMOOTH",
"257 248 OFFCURVE",
"249 245 QCURVE",
"233 240 OFFCURVE",
"163 225 OFFCURVE",
"109 209 OFFCURVE",
"52 182 OFFCURVE",
"20 134 OFFCURVE",
"20 101 QCURVE SMOOTH",
"20 54 OFFCURVE",
"88 -8 OFFCURVE",
"146 -8 QCURVE SMOOTH",
"235 -8 OFFCURVE",
"278 61 QCURVE",
"320 -7 OFFCURVE",
"405 -7 QCURVE SMOOTH",
"460 -7 OFFCURVE",
"552 74 OFFCURVE",
"561 98 QCURVE",
"561 101 OFFCURVE",
"548 126 OFFCURVE",
"545 127 QCURVE",
"543 127 OFFCURVE",
"513 92 OFFCURVE",
"471 58 OFFCURVE",
"453 58 QCURVE SMOOTH",
"423 58 OFFCURVE",
"374 120 OFFCURVE",
"374 190 QCURVE SMOOTH",
"374 200 OFFCURVE",
"378 200 QCURVE SMOOTH",
"411 200 OFFCURVE",
"513 230 OFFCURVE",
"610 305 OFFCURVE",
"610 354 QCURVE SMOOTH",
"610 397 OFFCURVE",
"543 449 OFFCURVE",
"495 449 QCURVE SMOOTH"
);
},
{
closed = 1;
nodes = (
"228 91 OFFCURVE",
"196 67 OFFCURVE",
"177 67 QCURVE SMOOTH",
"161 67 OFFCURVE",
"139 88 OFFCURVE",
"139 108 QCURVE SMOOTH",
"139 121 OFFCURVE",
"145 142 OFFCURVE",
"160 157 OFFCURVE",
"171 167 OFFCURVE",
"198 176 OFFCURVE",
"210 179 OFFCURVE",
"242 186 OFFCURVE",
"246 187 QCURVE",
"232 110 LINE SMOOTH"
);
},
{
closed = 1;
nodes = (
"496 394 OFFCURVE",
"496 318 OFFCURVE",
"432 253 OFFCURVE",
"383 253 QCURVE SMOOTH",
"379 253 OFFCURVE",
"379 257 QCURVE SMOOTH",
"379 296 OFFCURVE",
"397 334 QCURVE SMOOTH",
"410 361 OFFCURVE",
"454 394 OFFCURVE",
"472 394 QCURVE SMOOTH"
);
}
);
width = 621;
}
);
note = ae;
unicode = 00E6;
},
{
glyphname = eth;
layers = (
{
layerId = "EE330C8E-4A1C-402A-831D-620872201BE1";
paths = (
{
closed = 1;
nodes = (
"270 342 OFFCURVE",
"291 327 OFFCURVE",
"291 312 QCURVE SMOOTH",
"291 288 OFFCURVE",
"276 207 QCURVE SMOOTH",
"246 50 OFFCURVE",
"177 50 QCURVE SMOOTH",
"138 50 OFFCURVE",
"138 106 QCURVE SMOOTH",
"138 206 OFFCURVE",
"210 342 OFFCURVE",
"257 342 QCURVE SMOOTH"
);
},
{
closed = 1;
nodes = (
"157 399 OFFCURVE",
"20 253 OFFCURVE",
"20 161 QCURVE SMOOTH",
"20 91 OFFCURVE",
"103 -6 OFFCURVE",
"166 -6 QCURVE SMOOTH",
"207 -6 OFFCURVE",
"292 34 OFFCURVE",
"367 108 OFFCURVE",
"414 233 OFFCURVE",
"414 309 QCURVE SMOOTH",
"414 485 OFFCURVE",
"277 613 QCURVE",
"364 713 LINE",
"367 718 OFFCURVE",
"367 722 QCURVE SMOOTH",
"367 727 OFFCURVE",
"351 741 OFFCURVE",
"335 751 OFFCURVE",
"334 750 QCURVE",
"241 644 LINE",
"207 670 OFFCURVE",
"161 695 QCURVE",
"151 693 OFFCURVE",
"137 669 OFFCURVE",
"137 658 QCURVE",
"174 638 OFFCURVE",
"207 605 QCURVE",
"114 501 LINE",
"112 499 OFFCURVE",
"112 495 QCURVE SMOOTH",
"112 489 OFFCURVE",
"137 466 OFFCURVE",
"146 466 QCURVE",
"238 569 LINE",
"296 490 OFFCURVE",
"296 409 QCURVE SMOOTH",
"296 386 OFFCURVE",
"291 386 QCURVE",
"289 387 LINE SMOOTH",
"266 399 OFFCURVE",
"235 399 QCURVE SMOOTH"
);
}
);
width = 431;
}
);
note = eth;
unicode = 00F0;
},
{
glyphname = divide;
layers = (
{
layerId = "EE330C8E-4A1C-402A-831D-620872201BE1";
paths = (
{
closed = 1;
nodes = (
"246 498 OFFCURVE",
"206 454 OFFCURVE",
"206 426 QCURVE SMOOTH",
"206 403 OFFCURVE",
"234 372 OFFCURVE",
"256 372 QCURVE SMOOTH",
"283 372 OFFCURVE",
"323 417 OFFCURVE",
"323 445 QCURVE SMOOTH",
"323 468 OFFCURVE",
"295 498 OFFCURVE",
"273 498 QCURVE SMOOTH"
);
},
{
closed = 1;
nodes = (
"174 126 OFFCURVE",
"134 82 OFFCURVE",
"134 54 QCURVE SMOOTH",
"134 31 OFFCURVE",
"162 0 OFFCURVE",
"184 0 QCURVE SMOOTH",
"211 0 OFFCURVE",
"251 45 OFFCURVE",
"251 73 QCURVE SMOOTH",
"251 96 OFFCURVE",
"223 126 OFFCURVE",
"201 126 QCURVE SMOOTH"
);
},
{
closed = 1;
nodes = (
"4 259 OFFCURVE",
"4 231 QCURVE SMOOTH",
"4 213 OFFCURVE",
"8 213 QCURVE SMOOTH",
"433 213 LINE",
"459 239 OFFCURVE",
"459 267 QCURVE SMOOTH",
"459 285 OFFCURVE",
"455 285 QCURVE SMOOTH",
"30 285 LINE"
);
}
);
width = 464;
}
);
note = divide;
unicode = 00F7;
},
{
glyphname = oslash;
layers = (
{
layerId = "EE330C8E-4A1C-402A-831D-620872201BE1";
paths = (
{
closed = 1;
nodes = (
"170 53 OFFCURVE",
"156 90 QCURVE",
"302 297 LINE",
"302 287 LINE SMOOTH",
"302 199 OFFCURVE",
"236 53 OFFCURVE",
"194 53 QCURVE SMOOTH"
);
},
{
closed = 1;
nodes = (
"278 389 OFFCURVE",
"290 358 QCURVE",
"146 152 LINE",
"146 155 LINE SMOOTH",
"146 241 OFFCURVE",
"216 389 OFFCURVE",
"255 389 QCURVE SMOOTH"
);
},
{
closed = 1;
nodes = (
"170 449 OFFCURVE",
"27 281 OFFCURVE",
"27 167 QCURVE SMOOTH",
"27 96 OFFCURVE",
"70 43 QCURVE",
"52 18 LINE",
"50 16 OFFCURVE",
"50 11 QCURVE SMOOTH",
"50 4 OFFCURVE",
"78 -9 OFFCURVE",
"86 -8 QCURVE",
"102 14 LINE",
"132 -7 OFFCURVE",
"173 -7 QCURVE SMOOTH",
"279 -7 OFFCURVE",
"422 164 OFFCURVE",
"422 280 QCURVE SMOOTH",
"422 351 OFFCURVE",
"377 402 QCURVE",
"390 421 LINE",
"391 422 OFFCURVE",
"391 426 QCURVE SMOOTH",
"391 434 OFFCURVE",
"361 451 OFFCURVE",
"354 449 QCURVE",
"342 431 LINE",
"311 449 OFFCURVE",
"276 449 QCURVE SMOOTH"
);
}
);
width = 439;
}
);
note = oslash;
unicode = 00F8;
},
{
glyphname = thorn;
layers = (
{
layerId = "EE330C8E-4A1C-402A-831D-620872201BE1";
paths = (
{
closed = 1;
nodes = (
"26 -122 OFFCURVE",
"11 -160 QCURVE SMOOTH",
"8 -167 OFFCURVE",
"-36 -185 OFFCURVE",
"-45 -185 QCURVE",
"-51 -219 LINE",
"-40 -218 OFFCURVE",
"44 -211 OFFCURVE",
"65 -211 QCURVE SMOOTH",
"85 -211 OFFCURVE",
"167 -218 OFFCURVE",
"177 -219 QCURVE",
"180 -214 OFFCURVE",
"185 -186 OFFCURVE",
"182 -185 QCURVE",
"175 -185 OFFCURVE",
"139 -167 OFFCURVE",
"139 -160 QCURVE",
"138 -128 OFFCURVE",
"150 -69 QCURVE SMOOTH",
"162 -9 LINE SMOOTH",
"165 7 OFFCURVE",
"168 7 QCURVE SMOOTH",
"169 7 OFFCURVE",
"183 2 OFFCURVE",
"206 -3 OFFCURVE",
"217 -3 QCURVE SMOOTH",
"309 -3 OFFCURVE",
"455 123 OFFCURVE",
"475 229 QCURVE SMOOTH",
"491 309 OFFCURVE",
"413 427 OFFCURVE",
"339 427 QCURVE SMOOTH",
"317 427 OFFCURVE",
"258 396 OFFCURVE",
"244 383 QCURVE",
"241 380 OFFCURVE",
"237 383 OFFCURVE",
"238 386 QCURVE",
"240 395 OFFCURVE",
"274 568 QCURVE SMOOTH",
"285 628 OFFCURVE",
"304 676 QCURVE",
"304 695 OFFCURVE",
"297 695 QCURVE SMOOTH",
"295 695 LINE",
"286 692 LINE",
"276 688 OFFCURVE",
"243 678 OFFCURVE",
"202 666 OFFCURVE",
"145 655 OFFCURVE",
"117 652 QCURVE",
"114 652 OFFCURVE",
"109 638 OFFCURVE",
"109 635 QCURVE",
"107 621 OFFCURVE",
"111 621 QCURVE SMOOTH",
"119 621 LINE SMOOTH",
"160 621 OFFCURVE",
"160 603 QCURVE SMOOTH",
"160 583 OFFCURVE",
"151 532 QCURVE SMOOTH",
"31 -85 LINE"
);
},
{
closed = 1;
nodes = (
"226 323 OFFCURVE",
"261 355 OFFCURVE",
"292 355 QCURVE SMOOTH",
"374 355 OFFCURVE",
"343 200 QCURVE SMOOTH",
"335 157 OFFCURVE",
"304 94 OFFCURVE",
"270 65 OFFCURVE",
"244 52 OFFCURVE",
"233 52 QCURVE SMOOTH",
"197 52 OFFCURVE",
"188 72 QCURVE",
"180 87 OFFCURVE",
"185 113 QCURVE SMOOTH",
"218 282 LINE SMOOTH"
);
}
);
width = 450;
}
);
note = thorn;
unicode = 00FE;
},
{
glyphname = Aogonek;
layers = (
{
layerId = "EE330C8E-4A1C-402A-831D-620872201BE1";
paths = (
{
closed = 1;
nodes = (
"310 273 OFFCURVE",
"283 276 QCURVE",
"282 276 OFFCURVE",
"281 279 OFFCURVE",
"282 280 QCURVE",
"390 458 OFFCURVE",
"390 458 QCURVE",
"422 280 OFFCURVE",
"422 280 QCURVE",
"422 275 OFFCURVE",
"418 275 QCURVE",
"389 273 OFFCURVE",
"351 273 QCURVE SMOOTH"
);
},
{
closed = 1;
nodes = (
"122 134 LINE SMOOTH",
"92 84 OFFCURVE",
"83 71 QCURVE",
"74 59 OFFCURVE",
"8 30 OFFCURVE",
"-2 30 QCURVE SMOOTH",
"-7 30 OFFCURVE",
"-7 4 QCURVE SMOOTH",
"-7 -2 OFFCURVE",
"-6 -4 QCURVE",
"8 -3 OFFCURVE",
"87 3 OFFCURVE",
"112 3 QCURVE SMOOTH",
"136 3 OFFCURVE",
"212 -4 OFFCURVE",
"221 -4 QCURVE",
"226 6 OFFCURVE",
"226 26 QCURVE SMOOTH",
"226 30 OFFCURVE",
"224 30 QCURVE SMOOTH",
"210 30 OFFCURVE",
"159 48 OFFCURVE",
"159 82 OFFCURVE",
"192 131 QCURVE",
"237 207 LINE SMOOTH",
"240 212 OFFCURVE",
"245 212 QCURVE SMOOTH",
"278 213 OFFCURVE",
"339 213 QCURVE SMOOTH",
"394 213 OFFCURVE",
"430 211 QCURVE",
"436 211 OFFCURVE",
"436 207 QCURVE",
"458 78 OFFCURVE",
"458 69 QCURVE SMOOTH",
"458 51 OFFCURVE",
"442 35 QCURVE SMOOTH",
"372 -32 OFFCURVE",
"302 -119 OFFCURVE",
"302 -156 QCURVE SMOOTH",
"302 -182 OFFCURVE",
"336 -216 OFFCURVE",
"359 -216 QCURVE SMOOTH",
"388 -216 OFFCURVE",
"456 -177 OFFCURVE",
"478 -152 QCURVE",
"481 -149 OFFCURVE",
"488 -118 OFFCURVE",
"483 -117 QCURVE",
"482 -117 OFFCURVE",
"462 -130 OFFCURVE",
"427 -144 OFFCURVE",
"406 -144 QCURVE SMOOTH",
"392 -144 OFFCURVE",
"378 -129 OFFCURVE",
"378 -120 QCURVE SMOOTH",
"378 -80 OFFCURVE",
"471 3 OFFCURVE",
"524 3 QCURVE SMOOTH",
"548 3 OFFCURVE",
"643 -4 OFFCURVE",
"646 -4 QCURVE",
"653 5 OFFCURVE",
"653 25 QCURVE SMOOTH",
"653 30 OFFCURVE",
"651 30 QCURVE SMOOTH",
"640 30 OFFCURVE",
"594 50 OFFCURVE",
"591 66 QCURVE SMOOTH",
"581 115 OFFCURVE",
"577 141 QCURVE",
"472 659 LINE",
"469 667 OFFCURVE",
"460 667 QCURVE SMOOTH",
"454 667 OFFCURVE",
"440 656 OFFCURVE",
"424 633 OFFCURVE",
"413 618 OFFCURVE",
"395 588 OFFCURVE",
"394 586 QCURVE"
);
}
);
width = 677;
}
);
note = Aogonek;
unicode = 0104;
},
{
glyphname = aogonek;
layers = (
{
layerId = "EE330C8E-4A1C-402A-831D-620872201BE1";
paths = (
{
closed = 1;
nodes = (
"295 387 OFFCURVE",
"295 370 QCURVE SMOOTH",
"295 358 OFFCURVE",
"292 346 QCURVE",
"278 261 LINE SMOOTH",
"268 197 OFFCURVE",
"195 68 OFFCURVE",
"164 68 QCURVE SMOOTH",
"140 68 OFFCURVE",
"140 128 QCURVE SMOOTH",
"140 171 OFFCURVE",
"188 295 OFFCURVE",
"253 387 OFFCURVE",
"275 387 QCURVE SMOOTH"
);
},
{
closed = 1;
nodes = (
"250 449 OFFCURVE",
"108 327 OFFCURVE",
"17 162 OFFCURVE",
"17 98 QCURVE SMOOTH",
"17 46 OFFCURVE",
"62 -8 OFFCURVE",
"115 -8 QCURVE SMOOTH",
"141 -8 OFFCURVE",
"195 22 OFFCURVE",
"222 49 OFFCURVE",
"243 72 QCURVE",
"245 74 LINE",
"246 74 OFFCURVE",
"246 72 QCURVE SMOOTH",
"246 62 OFFCURVE",
"250 48 QCURVE",
"265 4 OFFCURVE",
"296 -5 QCURVE",
"214 -95 OFFCURVE",
"214 -157 QCURVE SMOOTH",
"214 -183 OFFCURVE",
"248 -216 OFFCURVE",
"271 -216 QCURVE SMOOTH",
"300 -216 OFFCURVE",
"368 -177 OFFCURVE",
"390 -152 QCURVE",
"393 -149 OFFCURVE",
"400 -118 OFFCURVE",
"395 -117 QCURVE",
"394 -117 OFFCURVE",
"374 -130 OFFCURVE",
"339 -144 OFFCURVE",
"318 -144 QCURVE SMOOTH",
"290 -144 OFFCURVE",
"290 -118 QCURVE SMOOTH",
"290 -104 OFFCURVE",
"300 -77 OFFCURVE",
"324 -49 OFFCURVE",
"340 -32 OFFCURVE",
"380 3 OFFCURVE",
"387 10 QCURVE SMOOTH",
"451 70 OFFCURVE",
"467 110 QCURVE",
"464 120 OFFCURVE",
"442 139 OFFCURVE",
"436 139 QCURVE SMOOTH",
"435 139 OFFCURVE",
"417 110 OFFCURVE",
"392 82 OFFCURVE",
"385 82 QCURVE SMOOTH",
"365 82 OFFCURVE",
"365 108 QCURVE SMOOTH",
"365 114 OFFCURVE",
"368 129 QCURVE SMOOTH",
"424 427 LINE",
"414 434 OFFCURVE",
"347 449 OFFCURVE",
"314 449 QCURVE SMOOTH"
);
}
);
width = 490;
}
);
note = aogonek;
unicode = 0105;
},
{
glyphname = dcroat;
layers = (
{
layerId = "EE330C8E-4A1C-402A-831D-620872201BE1";
paths = (
{
closed = 1;
nodes = (
"324 391 OFFCURVE",
"324 331 QCURVE SMOOTH",
"324 312 OFFCURVE",
"318 291 QCURVE SMOOTH",
"306 247 LINE SMOOTH",
"291 187 OFFCURVE",
"218 69 OFFCURVE",
"178 69 QCURVE SMOOTH",
"154 69 OFFCURVE",
"154 126 QCURVE SMOOTH",
"154 186 OFFCURVE",
"195 311 OFFCURVE",
"257 391 OFFCURVE",
"284 391 QCURVE SMOOTH"
);
},
{
closed = 1;
nodes = (
"225 444 OFFCURVE",
"94 336 OFFCURVE",
"17 180 OFFCURVE",
"17 108 QCURVE SMOOTH",
"17 56 OFFCURVE",
"77 -8 OFFCURVE",
"126 -8 QCURVE SMOOTH",
"165 -8 OFFCURVE",
"259 46 OFFCURVE",
"275 66 QCURVE",
"277 70 LINE",
"279 70 OFFCURVE",
"279 62 OFFCURVE",
"283 48 QCURVE",
"304 -9 OFFCURVE",
"351 -9 QCURVE SMOOTH",
"404 -9 OFFCURVE",
"482 73 OFFCURVE",
"497 110 QCURVE",
"494 120 OFFCURVE",
"472 139 OFFCURVE",
"466 139 QCURVE SMOOTH",
"465 139 OFFCURVE",
"447 110 OFFCURVE",
"422 82 OFFCURVE",
"415 82 QCURVE SMOOTH",
"395 82 OFFCURVE",
"395 108 QCURVE SMOOTH",
"395 114 OFFCURVE",
"398 129 QCURVE SMOOTH",
"469 489 LINE",
"471 494 OFFCURVE",
"474 494 QCURVE SMOOTH",
"534 494 LINE",
"535 494 LINE SMOOTH",
"536 494 OFFCURVE",
"540 497 OFFCURVE",
"541 500 QCURVE",
"545 510 OFFCURVE",
"550 532 OFFCURVE",
"553 553 OFFCURVE",
"553 555 QCURVE",
"554 562 OFFCURVE",
"548 562 QCURVE SMOOTH",
"488 562 LINE SMOOTH",
"485 562 OFFCURVE",
"485 567 QCURVE SMOOTH",
"485 571 OFFCURVE",
"488 584 QCURVE",
"498 640 OFFCURVE",
"517 678 QCURVE",
"517 682 OFFCURVE",
"511 695 OFFCURVE",
"508 695 QCURVE SMOOTH",
"503 695 LINE",
"486 687 OFFCURVE",
"355 656 OFFCURVE",
"330 656 QCURVE SMOOTH",
"328 656 OFFCURVE",
"321 640 OFFCURVE",
"321 633 QCURVE SMOOTH",
"321 625 OFFCURVE",
"324 625 QCURVE SMOOTH",
"373 625 OFFCURVE",
"373 603 QCURVE SMOOTH",
"373 590 OFFCURVE",
"368 567 QCURVE",
"368 562 OFFCURVE",
"365 562 QCURVE SMOOTH",
"269 562 LINE",
"268 562 LINE SMOOTH",
"267 562 OFFCURVE",
"263 560 OFFCURVE",
"262 557 QCURVE",
"258 549 OFFCURVE",
"252 530 OFFCURVE",
"250 517 OFFCURVE",
"248 505 OFFCURVE",
"248 504 QCURVE",
"251 494 LINE",
"351 494 LINE SMOOTH",
"354 494 OFFCURVE",
"354 489 QCURVE SMOOTH",
"354 487 OFFCURVE",
"343 436 QCURVE",
"343 432 OFFCURVE",
"339 432 OFFCURVE",
"337 434 QCURVE",
"315 445 OFFCURVE",
"294 445 QCURVE SMOOTH"
);
}
);
width = 527;
}
);
note = dcroat;
unicode = 0111;
},
{
glyphname = Eogonek;
layers = (
{
layerId = "EE330C8E-4A1C-402A-831D-620872201BE1";
paths = (
{
closed = 1;
nodes = (
"453 27 OFFCURVE",
"527 170 QCURVE",
"523 176 OFFCURVE",
"500 176 QCURVE SMOOTH",
"489 176 OFFCURVE",
"486 170 QCURVE",
"469 139 OFFCURVE",
"419 89 OFFCURVE",
"402 80 QCURVE SMOOTH",
"350 54 OFFCURVE",
"292 54 QCURVE SMOOTH",
"268 54 LINE SMOOTH",
"226 54 OFFCURVE",
"207 64 OFFCURVE",
"207 82 QCURVE SMOOTH",
"207 101 OFFCURVE",
"215 141 QCURVE SMOOTH",
"244 295 LINE SMOOTH",
"246 304 OFFCURVE",
"313 304 QCURVE SMOOTH",
"376 304 OFFCURVE",
"388 292 QCURVE SMOOTH",
"397 283 OFFCURVE",
"399 238 QCURVE",
"401 230 OFFCURVE",
"412 230 QCURVE SMOOTH",
"429 230 OFFCURVE",
"433 234 QCURVE",
"469 423 LINE",
"466 428 OFFCURVE",
"450 428 QCURVE SMOOTH",
"437 428 OFFCURVE",
"434 421 QCURVE SMOOTH",
"414 376 OFFCURVE",
"398 359 OFFCURVE",
"376 359 QCURVE SMOOTH",
"297 359 LINE SMOOTH",
"289 359 OFFCURVE",
"276 359 OFFCURVE",
"264 361 OFFCURVE",
"258 363 OFFCURVE",
"258 365 QCURVE",
"288 519 LINE SMOOTH",
"296 564 OFFCURVE",
"308 597 QCURVE",
"312 610 OFFCURVE",
"371 610 QCURVE SMOOTH",
"406 610 LINE SMOOTH",
"442 610 OFFCURVE",
"507 556 OFFCURVE",
"518 518 QCURVE",
"519 511 OFFCURVE",
"530 511 QCURVE SMOOTH",
"547 511 OFFCURVE",
"552 516 QCURVE",
"552 573 LINE SMOOTH",
"552 634 OFFCURVE",
"554 664 QCURVE",
"500 664 OFFCURVE",
"306 659 OFFCURVE",
"253 659 QCURVE SMOOTH",
"202 659 OFFCURVE",
"122 662 QCURVE",
"115 655 OFFCURVE",
"115 635 QCURVE SMOOTH",
"115 628 OFFCURVE",
"117 628 QCURVE SMOOTH",
"127 628 OFFCURVE",
"167 607 OFFCURVE",
"168 599 QCURVE",
"169 585 OFFCURVE",
"158 521 QCURVE SMOOTH",
"85 143 LINE SMOOTH",
"72 76 OFFCURVE",
"60 55 QCURVE SMOOTH",
"55 46 OFFCURVE",
"11 30 OFFCURVE",
"1 30 QCURVE SMOOTH",
"0 30 OFFCURVE",
"-4 23 OFFCURVE",
"-7 11 OFFCURVE",
"-7 5 QCURVE SMOOTH",
"-7 -2 OFFCURVE",
"-5 -4 QCURVE",
"6 -4 OFFCURVE",
"80 2 OFFCURVE",
"148 2 OFFCURVE",
"319 -1 OFFCURVE",
"337 -1 QCURVE",
"303 -20 OFFCURVE",
"223 -119 OFFCURVE",
"223 -156 QCURVE SMOOTH",
"223 -182 OFFCURVE",
"257 -216 OFFCURVE",
"280 -216 QCURVE SMOOTH",
"309 -216 OFFCURVE",
"377 -177 OFFCURVE",
"399 -152 QCURVE",
"402 -149 OFFCURVE",
"409 -118 OFFCURVE",
"404 -117 QCURVE",
"403 -117 OFFCURVE",
"383 -130 OFFCURVE",
"348 -144 OFFCURVE",
"327 -144 QCURVE SMOOTH",
"313 -144 OFFCURVE",
"299 -129 OFFCURVE",
"299 -120 QCURVE SMOOTH",
"299 -80 OFFCURVE",
"389 -2 OFFCURVE",
"443 -2 QCURVE"
);
}
);
width = 578;
}
);
note = Eogonek;
unicode = 0118;
},
{
glyphname = eogonek;
layers = (
{
layerId = "EE330C8E-4A1C-402A-831D-620872201BE1";
paths = (
{
closed = 1;
nodes = (
"267 394 OFFCURVE",
"267 356 QCURVE SMOOTH",
"267 315 OFFCURVE",
"201 232 OFFCURVE",
"154 232 QCURVE SMOOTH",
"150 232 OFFCURVE",
"150 236 QCURVE SMOOTH",
"150 247 OFFCURVE",
"167 307 OFFCURVE",
"175 322 QCURVE SMOOTH",
"213 394 OFFCURVE",
"243 394 QCURVE SMOOTH"
);
},
{
closed = 1;
nodes = (
"174 449 OFFCURVE",
"23 291 OFFCURVE",
"23 170 QCURVE SMOOTH",
"23 100 OFFCURVE",
"99 -3 OFFCURVE",
"166 -7 QCURVE",
"130 -38 OFFCURVE",
"76 -125 OFFCURVE",
"76 -157 QCURVE SMOOTH",
"76 -183 OFFCURVE",
"110 -216 OFFCURVE",
"133 -216 QCURVE SMOOTH",
"162 -216 OFFCURVE",
"230 -177 OFFCURVE",
"252 -152 QCURVE",
"255 -149 OFFCURVE",
"262 -118 OFFCURVE",
"257 -117 QCURVE",
"256 -117 OFFCURVE",
"236 -130 OFFCURVE",
"201 -144 OFFCURVE",
"180 -144 QCURVE SMOOTH",
"152 -144 OFFCURVE",
"152 -118 QCURVE SMOOTH",
"152 -84 OFFCURVE",
"217 -9 OFFCURVE",
"256 18 QCURVE SMOOTH",
"283 36 OFFCURVE",
"332 90 OFFCURVE",
"332 106 OFFCURVE",
"317 124 OFFCURVE",
"312 124 QCURVE SMOOTH",
"310 124 OFFCURVE",
"282 91 OFFCURVE",
"242 58 OFFCURVE",
"224 58 QCURVE SMOOTH",
"194 58 OFFCURVE",
"145 111 OFFCURVE",
"145 169 QCURVE SMOOTH",
"145 179 OFFCURVE",
"149 179 QCURVE SMOOTH",
"180 179 OFFCURVE",
"285 220 OFFCURVE",
"381 305 OFFCURVE",
"381 354 QCURVE SMOOTH",
"381 397 OFFCURVE",
"314 449 OFFCURVE",
"266 449 QCURVE SMOOTH"
);
}
);
width = 398;
}
);
note = eogonek;
unicode = 0119;
},
{
glyphname = Hbar;
layers = (
{
layerId = "EE330C8E-4A1C-402A-831D-620872201BE1";
paths = (
{
closed = 1;
nodes = (
"434 468 OFFCURVE",
"503 467 QCURVE",
"481 356 LINE SMOOTH",
"480 350 OFFCURVE",
"369 350 QCURVE SMOOTH",
"257 350 OFFCURVE",
"257 357 QCURVE SMOOTH",
"257 359 OFFCURVE",
"257 359 QCURVE",
"278 467 LINE",
"390 468 OFFCURVE",
"390 468 QCURVE"
);
},
{
closed = 1;
nodes = (
"228 656 OFFCURVE",
"188 658 OFFCURVE",
"140 661 OFFCURVE",
"125 662 QCURVE",
"119 656 OFFCURVE",
"119 632 QCURVE SMOOTH",
"119 628 OFFCURVE",
"120 628 QCURVE SMOOTH",
"131 628 OFFCURVE",
"168 611 OFFCURVE",
"168 596 QCURVE SMOOTH",
"168 569 OFFCURVE",
"159 524 QCURVE",
"112 525 LINE",
"101 521 LINE",
"91 511 OFFCURVE",
"81 472 QCURVE SMOOTH",
"80 468 OFFCURVE",
"84 465 OFFCURVE",
"87 465 OFFCURVE",
"88 465 QCURVE SMOOTH",
"150 466 LINE",
"84 135 LINE SMOOTH",
"70 70 OFFCURVE",
"59 52 QCURVE",
"54 43 OFFCURVE",
"11 30 OFFCURVE",
"0 30 QCURVE SMOOTH",
"-2 30 OFFCURVE",
"-6 9 OFFCURVE",
"-6 2 QCURVE SMOOTH",
"-6 -3 OFFCURVE",
"-5 -4 QCURVE",
"7 -3 OFFCURVE",
"96 3 OFFCURVE",
"121 3 QCURVE SMOOTH",
"139 3 OFFCURVE",
"184 1 OFFCURVE",
"236 -3 OFFCURVE",
"248 -4 QCURVE",
"255 6 OFFCURVE",
"255 25 QCURVE SMOOTH",
"255 30 OFFCURVE",
"253 30 QCURVE SMOOTH",
"244 30 OFFCURVE",
"205 49 OFFCURVE",
"205 59 QCURVE SMOOTH",
"205 87 OFFCURVE",
"215 139 QCURVE SMOOTH",
"243 284 LINE",
"245 292 OFFCURVE",
"357 292 QCURVE SMOOTH",
"467 292 OFFCURVE",
"467 286 QCURVE SMOOTH",
"467 285 LINE",
"437 135 LINE SMOOTH",
"422 69 OFFCURVE",
"413 53 QCURVE SMOOTH",
"408 44 OFFCURVE",
"364 30 OFFCURVE",
"353 30 QCURVE SMOOTH",
"348 30 OFFCURVE",
"348 2 QCURVE SMOOTH",
"348 -3 OFFCURVE",
"349 -4 QCURVE",
"360 -3 OFFCURVE",
"453 3 OFFCURVE",
"478 3 QCURVE SMOOTH",
"502 3 OFFCURVE",
"599 -4 OFFCURVE",
"601 -4 QCURVE",
"609 8 OFFCURVE",
"609 25 QCURVE SMOOTH",
"609 30 OFFCURVE",
"607 30 QCURVE SMOOTH",
"598 30 OFFCURVE",
"558 49 OFFCURVE",
"558 59 QCURVE SMOOTH",
"558 82 OFFCURVE",
"569 139 QCURVE SMOOTH",
"633 466 LINE",
"680 465 LINE",
"691 469 LINE",
"703 481 OFFCURVE",
"712 518 QCURVE SMOOTH",
"713 522 OFFCURVE",
"709 525 OFFCURVE",
"706 525 OFFCURVE",
"705 525 QCURVE SMOOTH",
"644 524 LINE",
"656 585 OFFCURVE",
"667 604 QCURVE SMOOTH",
"671 611 OFFCURVE",
"717 628 OFFCURVE",
"724 628 QCURVE SMOOTH",
"733 628 OFFCURVE",
"733 656 QCURVE SMOOTH",
"733 662 LINE",
"619 656 OFFCURVE",
"612 656 QCURVE SMOOTH",
"606 656 OFFCURVE",
"480 662 QCURVE",
"472 654 OFFCURVE",
"472 634 QCURVE SMOOTH",
"472 628 OFFCURVE",
"474 628 QCURVE SMOOTH",
"522 628 OFFCURVE",
"522 600 QCURVE SMOOTH",
"522 586 OFFCURVE",
"512 523 QCURVE",
"398 522 LINE SMOOTH",
"355 522 OFFCURVE",
"289 523 QCURVE",
"302 586 OFFCURVE",
"312 604 QCURVE SMOOTH",
"316 611 OFFCURVE",
"363 628 OFFCURVE",
"371 628 QCURVE SMOOTH",
"374 628 OFFCURVE",
"379 649 OFFCURVE",
"379 657 QCURVE SMOOTH",
"379 662 OFFCURVE",
"379 662 QCURVE",
"265 656 OFFCURVE",
"247 656 QCURVE SMOOTH"
);
}
);
width = 729;
}
);
note = Hbar;
unicode = 0126;
},
{
glyphname = hbar;
layers = (
{
layerId = "EE330C8E-4A1C-402A-831D-620872201BE1";
paths = (
{
closed = 1;
nodes = (
"303 449 OFFCURVE",
"273 426 QCURVE SMOOTH",
"234 395 OFFCURVE",
"190 310 QCURVE",
"189 310 LINE",
"188 311 LINE",
"188 317 OFFCURVE",
"222 489 QCURVE",
"224 494 OFFCURVE",
"227 494 QCURVE SMOOTH",
"329 494 LINE",
"330 494 LINE SMOOTH",
"331 494 OFFCURVE",
"335 497 OFFCURVE",
"336 500 QCURVE",
"340 510 OFFCURVE",
"345 532 OFFCURVE",
"348 553 OFFCURVE",
"348 555 QCURVE",
"349 562 OFFCURVE",
"343 562 QCURVE SMOOTH",
"241 562 LINE SMOOTH",
"238 562 OFFCURVE",
"238 567 QCURVE",
"239 575 OFFCURVE",
"243 588 QCURVE",
"253 628 OFFCURVE",
"270 678 QCURVE",
"270 682 OFFCURVE",
"264 695 OFFCURVE",
"261 695 QCURVE SMOOTH",
"256 695 LINE",
"239 687 OFFCURVE",
"108 656 OFFCURVE",
"83 656 QCURVE SMOOTH",
"81 656 OFFCURVE",
"74 640 OFFCURVE",
"74 633 QCURVE SMOOTH",
"74 625 OFFCURVE",
"77 625 QCURVE SMOOTH",
"126 625 OFFCURVE",
"126 603 QCURVE SMOOTH",
"126 595 OFFCURVE",
"122 567 QCURVE",
"122 562 OFFCURVE",
"118 562 QCURVE SMOOTH",
"64 562 LINE",
"63 562 LINE SMOOTH",
"62 562 OFFCURVE",
"58 560 OFFCURVE",
"57 557 QCURVE",
"53 549 OFFCURVE",
"47 530 OFFCURVE",
"45 517 OFFCURVE",
"43 505 OFFCURVE",
"43 504 QCURVE",
"46 494 LINE",
"104 494 LINE SMOOTH",
"106 494 OFFCURVE",
"106 488 QCURVE SMOOTH",
"106 486 OFFCURVE",
"12 0 QCURVE",
"32 -6 OFFCURVE",
"74 -6 QCURVE SMOOTH",
"107 -6 OFFCURVE",
"127 0 QCURVE",
"142 73 LINE SMOOTH",
"164 176 OFFCURVE",
"242 341 OFFCURVE",
"268 341 QCURVE SMOOTH",
"284 341 OFFCURVE",
"296 320 OFFCURVE",
"296 296 QCURVE SMOOTH",
"296 270 OFFCURVE",
"260 110 OFFCURVE",
"260 87 QCURVE SMOOTH",
"260 36 OFFCURVE",
"305 -9 OFFCURVE",
"335 -9 QCURVE SMOOTH",
"388 -9 OFFCURVE",
"466 73 OFFCURVE",
"481 110 QCURVE",
"478 120 OFFCURVE",
"456 139 OFFCURVE",
"450 139 QCURVE SMOOTH",
"449 139 OFFCURVE",
"431 110 OFFCURVE",
"406 82 OFFCURVE",
"399 82 QCURVE SMOOTH",
"379 82 OFFCURVE",
"379 112 QCURVE SMOOTH",
"379 122 OFFCURVE",
"381 128 QCURVE",
"406 264 LINE SMOOTH",
"415 309 OFFCURVE",
"415 341 QCURVE SMOOTH",
"415 385 OFFCURVE",
"374 449 OFFCURVE",
"333 449 QCURVE SMOOTH"
);
}
);
width = 498;
}
);
note = hbar;
unicode = 0127;
},
{
glyphname = Iogonek;
layers = (
{
layerId = "EE330C8E-4A1C-402A-831D-620872201BE1";
paths = (
{
closed = 1;
nodes = (
"298 579 OFFCURVE",
"312 604 QCURVE SMOOTH",
"316 611 OFFCURVE",
"363 628 OFFCURVE",
"371 628 QCURVE SMOOTH",
"374 628 OFFCURVE",
"379 649 OFFCURVE",
"379 657 QCURVE SMOOTH",
"379 662 LINE",
"265 656 OFFCURVE",
"247 656 QCURVE SMOOTH",
"228 656 OFFCURVE",
"188 658 OFFCURVE",
"140 661 OFFCURVE",
"125 662 QCURVE",
"119 656 OFFCURVE",
"119 632 QCURVE SMOOTH",
"119 628 OFFCURVE",
"120 628 QCURVE SMOOTH",
"131 628 OFFCURVE",
"168 611 OFFCURVE",
"168 596 QCURVE SMOOTH",
"168 571 OFFCURVE",
"159 523 QCURVE SMOOTH",
"84 135 LINE SMOOTH",
"75 78 OFFCURVE",
"59 52 QCURVE",
"54 43 OFFCURVE",
"11 30 OFFCURVE",
"0 30 QCURVE SMOOTH",
"-2 30 OFFCURVE",
"-6 9 OFFCURVE",
"-6 2 QCURVE SMOOTH",
"-6 -3 OFFCURVE",
"-5 -4 QCURVE",
"103 2 OFFCURVE",
"113 2 QCURVE",
"80 -8 OFFCURVE",
"-10 -117 OFFCURVE",
"-10 -156 QCURVE SMOOTH",
"-10 -182 OFFCURVE",
"24 -216 OFFCURVE",
"47 -216 QCURVE SMOOTH",
"76 -216 OFFCURVE",
"144 -177 OFFCURVE",
"166 -152 QCURVE",
"169 -149 OFFCURVE",
"176 -118 OFFCURVE",
"171 -117 QCURVE",
"170 -117 OFFCURVE",
"150 -130 OFFCURVE",
"115 -144 OFFCURVE",
"94 -144 QCURVE SMOOTH",
"80 -144 OFFCURVE",
"66 -129 OFFCURVE",
"66 -120 QCURVE SMOOTH",
"66 -85 OFFCURVE",
"164 -2 OFFCURVE",
"202 -2 QCURVE SMOOTH",
"224 -2 OFFCURVE",
"248 -4 QCURVE",
"255 6 OFFCURVE",
"255 25 QCURVE SMOOTH",
"255 30 OFFCURVE",
"253 30 QCURVE SMOOTH",
"244 30 OFFCURVE",
"205 49 OFFCURVE",
"205 59 QCURVE SMOOTH",
"205 87 OFFCURVE",
"215 139 QCURVE SMOOTH",
"288 519 LINE SMOOTH"
);
}
);
width = 375;
}
);
note = Iogonek;
unicode = 012E;
},
{
glyphname = iogonek;
layers = (
{
layerId = "EE330C8E-4A1C-402A-831D-620872201BE1";
paths = (
{
closed = 1;
nodes = (
"125 -62 OFFCURVE",
"223 16 QCURVE SMOOTH",
"249 37 OFFCURVE",
"289 92 OFFCURVE",
"296 110 QCURVE",
"293 120 OFFCURVE",
"271 139 OFFCURVE",
"265 139 QCURVE SMOOTH",
"264 139 OFFCURVE",
"246 110 OFFCURVE",
"221 82 OFFCURVE",
"214 82 QCURVE SMOOTH",
"194 82 OFFCURVE",
"194 112 QCURVE SMOOTH",
"194 122 OFFCURVE",
"196 128 QCURVE",
"236 328 OFFCURVE",
"236 353 QCURVE SMOOTH",
"236 404 OFFCURVE",
"191 449 OFFCURVE",
"161 449 QCURVE SMOOTH",
"108 449 OFFCURVE",
"30 367 OFFCURVE",
"15 330 QCURVE",
"18 320 OFFCURVE",
"40 301 OFFCURVE",
"46 301 QCURVE SMOOTH",
"47 301 OFFCURVE",
"65 330 OFFCURVE",
"90 358 OFFCURVE",
"97 358 QCURVE SMOOTH",
"117 358 OFFCURVE",
"117 328 QCURVE SMOOTH",
"117 318 OFFCURVE",
"115 312 QCURVE",
"80 124 LINE SMOOTH",
"75 94 OFFCURVE",
"75 87 QCURVE SMOOTH",
"75 9 OFFCURVE",
"130 -6 QCURVE",
"49 -97 OFFCURVE",
"49 -157 QCURVE SMOOTH",
"49 -183 OFFCURVE",
"83 -216 OFFCURVE",
"106 -216 QCURVE SMOOTH",
"135 -216 OFFCURVE",
"203 -177 OFFCURVE",
"225 -152 QCURVE",
"228 -149 OFFCURVE",
"235 -118 OFFCURVE",
"230 -117 QCURVE",
"229 -117 OFFCURVE",
"209 -130 OFFCURVE",
"174 -144 OFFCURVE",
"153 -144 QCURVE SMOOTH",
"125 -144 OFFCURVE",
"125 -118 QCURVE SMOOTH"
);
},
{
closed = 1;
nodes = (
"190 687 OFFCURVE",
"143 636 OFFCURVE",
"143 603 QCURVE SMOOTH",
"143 576 OFFCURVE",
"176 540 OFFCURVE",
"201 540 QCURVE SMOOTH",
"232 540 OFFCURVE",
"279 592 OFFCURVE",
"279 625 QCURVE SMOOTH",
"279 651 OFFCURVE",
"246 687 OFFCURVE",
"221 687 QCURVE SMOOTH"
);
}
);
width = 319;
}
);
note = iogonek;
unicode = 012F;
},
{
glyphname = dotlessi;
layers = (
{
layerId = "EE330C8E-4A1C-402A-831D-620872201BE1";
paths = (
{
closed = 1;
nodes = (
"110 449 OFFCURVE",
"32 367 OFFCURVE",
"17 330 QCURVE",
"20 320 OFFCURVE",
"42 301 OFFCURVE",
"48 301 QCURVE SMOOTH",
"49 301 OFFCURVE",
"67 330 OFFCURVE",
"92 358 OFFCURVE",
"99 358 QCURVE SMOOTH",
"119 358 OFFCURVE",
"119 328 QCURVE SMOOTH",
"119 318 OFFCURVE",
"117 312 QCURVE",
"82 124 LINE SMOOTH",
"77 94 OFFCURVE",
"77 87 QCURVE SMOOTH",
"77 40 OFFCURVE",
"119 -9 OFFCURVE",
"152 -9 QCURVE SMOOTH",
"205 -9 OFFCURVE",
"283 73 OFFCURVE",
"298 110 QCURVE",
"295 120 OFFCURVE",
"273 139 OFFCURVE",
"267 139 QCURVE SMOOTH",
"266 139 OFFCURVE",
"248 110 OFFCURVE",
"223 82 OFFCURVE",
"216 82 QCURVE SMOOTH",
"196 82 OFFCURVE",
"196 112 QCURVE SMOOTH",
"196 122 OFFCURVE",
"198 128 QCURVE",
"238 328 OFFCURVE",
"238 353 QCURVE SMOOTH",
"238 404 OFFCURVE",
"193 449 OFFCURVE",
"163 449 QCURVE SMOOTH"
);
}
);
width = 314;
}
);
note = dotlessi;
unicode = 0131;
},
{
glyphname = kgreenlandic;
layers = (
{
layerId = "EE330C8E-4A1C-402A-831D-620872201BE1";
paths = (
{
closed = 1;
nodes = (
"199 359 OFFCURVE",
"224 433 QCURVE",
"224 437 OFFCURVE",
"218 450 OFFCURVE",
"215 450 QCURVE SMOOTH",
"210 450 LINE",
"193 442 OFFCURVE",
"62 411 OFFCURVE",
"37 411 QCURVE SMOOTH",
"35 411 OFFCURVE",
"28 395 OFFCURVE",
"28 388 QCURVE SMOOTH",
"28 380 OFFCURVE",
"31 380 QCURVE SMOOTH",
"80 380 OFFCURVE",
"80 358 QCURVE SMOOTH",
"80 346 OFFCURVE",
"71 299 QCURVE SMOOTH",
"12 0 LINE",
"44 -8 OFFCURVE",
"73 -8 QCURVE SMOOTH",
"111 -8 OFFCURVE",
"128 0 QCURVE",
"166 196 LINE",
"166 197 OFFCURVE",
"167 197 QCURVE",
"168 196 LINE",
"177 170 LINE SMOOTH",
"186 145 OFFCURVE",
"220 74 OFFCURVE",
"237 54 QCURVE SMOOTH",
"264 23 OFFCURVE",
"311 -4 OFFCURVE",
"344 -4 QCURVE SMOOTH",
"436 -4 OFFCURVE",
"475 102 QCURVE",
"466 117 OFFCURVE",
"450 117 QCURVE SMOOTH",
"443 117 OFFCURVE",
"441 115 QCURVE SMOOTH",
"440 114 OFFCURVE",
"427 93 OFFCURVE",
"417 79 OFFCURVE",
"399 66 OFFCURVE",
"390 66 QCURVE SMOOTH",
"369 66 OFFCURVE",
"315 155 OFFCURVE",
"297 202 QCURVE",
"349 208 OFFCURVE",
"454 298 OFFCURVE",
"454 357 QCURVE SMOOTH",
"454 399 OFFCURVE",
"381 449 OFFCURVE",
"334 449 QCURVE SMOOTH",
"247 449 OFFCURVE",
"201 349 QCURVE SMOOTH",
"198 342 OFFCURVE",
"196 342 OFFCURVE",
"196 346 QCURVE"
);
},
{
closed = 1;
nodes = (
"308 376 OFFCURVE",
"329 348 OFFCURVE",
"329 333 QCURVE SMOOTH",
"329 287 OFFCURVE",
"292 262 QCURVE SMOOTH",
"260 241 OFFCURVE",
"212 241 QCURVE SMOOTH",
"179 241 OFFCURVE",
"179 253 QCURVE SMOOTH",
"179 278 OFFCURVE",
"253 376 OFFCURVE",
"292 376 QCURVE SMOOTH"
);
}
);
width = 500;
}
);
note = kgreenlandic;
unicode = 0138;
},
{
glyphname = Lslash;
layers = (
{
layerId = "EE330C8E-4A1C-402A-831D-620872201BE1";
paths = (
{
closed = 1;
nodes = (
"267 656 OFFCURVE",
"141 662 QCURVE",
"138 659 OFFCURVE",
"135 642 QCURVE SMOOTH",
"133 628 OFFCURVE",
"135 628 QCURVE SMOOTH",
"144 628 OFFCURVE",
"185 608 OFFCURVE",
"188 600 QCURVE SMOOTH",
"192 589 OFFCURVE",
"181 525 QCURVE SMOOTH",
"132 271 LINE",
"60 224 LINE",
"56 221 OFFCURVE",
"54 214 QCURVE",
"53 206 OFFCURVE",
"68 171 OFFCURVE",
"73 171 QCURVE",
"118 200 LINE",
"107 143 LINE SMOOTH",
"95 81 OFFCURVE",
"84 55 QCURVE",
"79 47 OFFCURVE",
"28 30 OFFCURVE",
"17 30 QCURVE SMOOTH",
"14 30 OFFCURVE",
"11 13 QCURVE",
"8 -1 OFFCURVE",
"11 -4 QCURVE",
"148 2 LINE",
"188 2 OFFCURVE",
"412 -2 OFFCURVE",
"465 -2 QCURVE",
"475 27 OFFCURVE",
"549 170 QCURVE",
"545 176 OFFCURVE",
"522 176 QCURVE SMOOTH",
"511 176 OFFCURVE",
"508 170 QCURVE",
"491 139 OFFCURVE",
"441 89 OFFCURVE",
"424 80 QCURVE SMOOTH",
"372 54 OFFCURVE",
"314 54 QCURVE SMOOTH",
"290 54 LINE SMOOTH",
"231 54 OFFCURVE",
"230 70 QCURVE",
"227 88 OFFCURVE",
"237 142 QCURVE SMOOTH",
"266 295 LINE",
"442 408 LINE SMOOTH",
"447 411 OFFCURVE",
"449 419 QCURVE SMOOTH",
"451 426 OFFCURVE",
"440 451 QCURVE",
"432 466 OFFCURVE",
"429 466 QCURVE",
"281 369 LINE",
"310 521 LINE SMOOTH",
"319 570 OFFCURVE",
"333 601 QCURVE SMOOTH",
"336 608 OFFCURVE",
"390 628 OFFCURVE",
"398 628 QCURVE SMOOTH",
"402 628 OFFCURVE",
"405 644 QCURVE SMOOTH",
"406 649 OFFCURVE",
"406 662 QCURVE",
"292 656 OFFCURVE",
"274 656 QCURVE SMOOTH"
);
}
);
width = 533;
}
);
note = Lslash;
unicode = 0141;
},
